<?xml version="1.0" encoding="utf-8" standalone="no"?>
<!DOCTYPE svg PUBLIC "-//W3C//DTD SVG 1.1//EN"
  "http://www.w3.org/Graphics/SVG/1.1/DTD/svg11.dtd">
<svg height="360pt" version="1.1" viewBox="0 0 360 360" width="360pt" xmlns="http://www.w3.org/2000/svg" xmlns:xlink="http://www.w3.org/1999/xlink">
 <metadata>
  <rdf:RDF xmlns:cc="http://creativecommons.org/ns#" xmlns:dc="http://purl.org/dc/elements/1.1/" xmlns:rdf="http://www.w3.org/1999/02/22-rdf-syntax-ns#">
   <cc:Work>
    <dc:type rdf:resource="http://purl.org/dc/dcmitype/StillImage"/>
    <dc:date>2021-11-27T05:09:51.280691</dc:date>
    <dc:format>image/svg+xml</dc:format>
    <dc:creator>
     <cc:Agent>
      <dc:title>Matplotlib v3.4.3, https://matplotlib.org/</dc:title>
     </cc:Agent>
    </dc:creator>
   </cc:Work>
  </rdf:RDF>
 </metadata>
 <defs>
  <style type="text/css">*{stroke-linecap:butt;stroke-linejoin:round;}</style>
 </defs>
 <g id="figure_1">
  <g id="patch_1">
   <path d="M 0 360 
L 360 360 
L 360 0 
L 0 0 
z
" style="fill:#ffffff;"/>
  </g>
  <g id="axes_1">
   <g id="patch_2">
    <path d="M 58.787331 320.4 
L 310.212669 320.4 
L 310.212669 43.2 
L 58.787331 43.2 
z
" style="fill:#ffffff;"/>
   </g>
   <g id="PatchCollection_1">
    <path clip-path="url(#pd4c51e0c99)" d="M 96.521933 287.331485 
L 96.300701 288.093587 
L 95.132902 294.175553 
L 82.918075 290.755452 
L 81.812466 296.09024 
L 78.927986 295.25887 
L 79.90189 294.821965 
L 82.777282 290.301372 
L 84.0006 290.337475 
L 85.888421 287.55864 
L 89.080481 287.971642 
L 90.30811 288.844364 
L 91.988745 289.277826 
L 93.364905 288.666139 
L 95.67889 289.100626 
L 96.011297 286.926009 
L 96.572165 287.061742 
L 96.521933 287.331485 
" style="fill:#808080;stroke:#ffffff;"/>
    <path clip-path="url(#pd4c51e0c99)" d="M 269.438112 208.869338 
L 268.053164 210.311165 
L 267.25282 209.83346 
L 262.709513 209.787962 
L 258.391231 211.025668 
L 255.782522 211.388634 
L 255.626723 211.998538 
L 250.810188 210.165049 
L 247.105805 209.943397 
L 243.890127 208.533763 
L 245.652774 207.129997 
L 246.656295 202.928049 
L 244.576231 201.965776 
L 247.837318 198.759482 
L 247.425933 197.930261 
L 245.329763 199.54091 
L 244.735921 197.756013 
L 245.639458 196.103827 
L 248.007029 194.754827 
L 247.868293 193.275374 
L 246.415593 191.363339 
L 246.571061 188.872561 
L 246.056229 187.74022 
L 241.895496 188.035823 
L 240.466852 188.677534 
L 238.22074 187.449084 
L 236.56087 188.822045 
L 232.895738 188.614983 
L 232.670152 187.812082 
L 231.179468 186.4051 
L 229.151777 186.909431 
L 228.524139 185.739584 
L 228.855063 184.71706 
L 226.532566 182.992449 
L 224.152193 184.220025 
L 223.349766 184.257364 
L 223.023274 185.369667 
L 222.058934 185.494447 
L 222.058876 185.494454 
L 220.666761 183.097425 
L 219.692415 181.931579 
L 220.038048 181.413013 
L 222.008326 180.946035 
L 222.648768 179.767448 
L 221.62127 178.917919 
L 219.808755 178.715047 
L 219.721724 177.943388 
L 218.54054 177.504519 
L 216.27866 175.303928 
L 216.440423 174.066672 
L 215.638753 172.239706 
L 213.140802 171.925696 
L 212.090902 172.745275 
L 211.484982 171.827342 
L 208.830227 171.445931 
L 207.475348 169.228315 
L 206.768181 167.301125 
L 205.469497 166.628293 
L 206.065488 165.10038 
L 204.436047 161.462468 
L 205.295941 158.736729 
L 204.791663 158.109128 
L 204.791673 158.109111 
L 206.476819 155.244565 
L 203.828228 153.888048 
L 203.828223 153.888046 
L 206.477661 147.565458 
L 207.472875 144.717243 
L 207.479817 142.461287 
L 203.906186 140.544533 
L 203.790144 137.717031 
L 201.281241 135.19854 
L 201.312964 131.432626 
L 197.977866 127.431753 
L 198.452729 123.998811 
L 195.287603 122.00565 
L 194.643486 119.143673 
L 195.69652 118.441831 
L 197.576988 116.109024 
L 197.577028 116.108972 
L 198.508401 114.267775 
L 201.703748 115.832842 
L 205.909117 115.272053 
L 213.294015 117.205568 
L 215.326604 118.454306 
L 216.74983 120.897406 
L 216.116737 123.675394 
L 214.106352 125.83402 
L 205.882628 125.686923 
L 204.928868 126.596552 
L 208.64806 128.522711 
L 209.490607 130.295737 
L 211.22238 134.250365 
L 213.894573 134.591644 
L 215.656752 135.05954 
L 215.045678 133.092694 
L 213.314735 131.840572 
L 213.708596 129.946292 
L 218.753779 130.605956 
L 219.65246 129.043248 
L 217.190741 126.771643 
L 218.813158 121.357074 
L 220.293127 120.86221 
L 222.41067 121.408908 
L 221.766174 118.423137 
L 219.289495 116.896662 
L 218.668536 114.336929 
L 216.32753 112.61759 
L 218.509267 112.170564 
L 270.349702 208.712756 
L 269.438112 208.869338 
" style="fill:#808080;stroke:#ffffff;"/>
    <path clip-path="url(#pd4c51e0c99)" d="M 193.3872 182.580657 
L 190.337848 182.536436 
L 190.632227 180.631676 
L 193.712923 178.798812 
L 196.315292 179.113962 
L 197.481893 179.585674 
L 197.432652 180.763358 
L 197.815328 181.784507 
L 193.3872 182.580657 
" style="fill:#808080;stroke:#ffffff;"/>
    <path clip-path="url(#pd4c51e0c99)" d="M 234.419747 207.55922 
L 236.644095 207.756223 
L 237.577145 207.607552 
L 238.193844 208.272451 
L 238.648633 208.24771 
L 238.785951 208.585595 
L 240.456083 209.066201 
L 243.17463 207.789776 
L 243.136205 209.410753 
L 240.337845 211.211965 
L 237.270371 214.84953 
L 235.443006 214.553802 
L 235.484497 212.459998 
L 232.063433 212.270526 
L 232.328339 211.341261 
L 234.578158 209.139602 
L 234.007335 208.795141 
L 234.419747 207.55922 
" style="fill:#808080;stroke:#ffffff;"/>
    <path clip-path="url(#pd4c51e0c99)" d="M 170.941834 77.64853 
L 172.022491 77.403651 
L 173.169309 78.70716 
L 176.306907 81.322285 
L 174.506819 83.235604 
L 174.482831 86.283516 
L 173.79363 87.147037 
L 173.777661 90.572468 
L 172.615885 90.84661 
L 170.338135 88.501377 
L 171.07214 86.995118 
L 169.634487 85.892067 
L 167.814976 82.494935 
L 167.140012 79.304035 
L 169.178991 77.78716 
L 169.685256 79.191617 
L 170.785196 79.061171 
L 170.941834 77.64853 
" style="fill:#808080;stroke:#ffffff;"/>
    <path clip-path="url(#pd4c51e0c99)" d="M 195.69652 118.441831 
L 194.643486 119.143673 
L 194.369788 116.171055 
L 192.088261 115.07788 
L 190.293866 116.993024 
L 190.366471 120.121102 
L 189.395893 122.234241 
L 187.555946 121.59022 
L 185.6394 122.168202 
L 183.565149 120.293126 
L 182.868815 121.519311 
L 181.967967 121.829049 
L 182.182383 124.566582 
L 179.178546 124.286108 
L 179.057718 126.633338 
L 177.538743 126.77936 
L 176.782968 129.825736 
L 175.524714 134.562817 
L 173.200998 140.587156 
L 173.943313 141.975397 
L 173.400794 143.661669 
L 171.564273 143.670957 
L 170.480394 147.625447 
L 170.766173 153.170876 
L 172.124112 155.247334 
L 171.623776 160.187671 
L 169.939623 163.103459 
L 169.031669 165.532852 
L 167.557035 162.977385 
L 163.215841 167.782163 
L 160.226654 168.668913 
L 157.288348 166.382296 
L 156.816754 161.839753 
L 156.870237 152.160664 
L 158.859334 149.592755 
L 164.06159 146.287359 
L 167.755564 142.002788 
L 170.876577 136.124 
L 174.423466 127.889171 
L 176.776103 124.556247 
L 180.239379 118.912043 
L 183.083926 116.640831 
L 185.45414 116.437577 
L 186.784096 112.645078 
L 189.284273 112.255979 
L 191.43979 110.837642 
L 196.574548 112.491263 
L 195.196126 114.097173 
L 197.576988 116.109024 
L 195.69652 118.441831 
" style="fill:#808080;stroke:#ffffff;"/>
    <path clip-path="url(#pd4c51e0c99)" d="M 179.202412 78.358803 
L 177.09292 79.322895 
L 174.664418 79.056521 
L 174.329126 77.967043 
L 173.23372 78.047388 
L 172.159383 76.288003 
L 174.176047 74.864374 
L 175.396546 75.653094 
L 175.83521 74.322754 
L 177.84777 74.930196 
L 179.652934 75.957191 
L 179.202412 78.358803 
" style="fill:#808080;stroke:#ffffff;"/>
    <path clip-path="url(#pd4c51e0c99)" d="M 178.426386 87.246701 
L 176.624284 86.594306 
L 177.039114 85.449772 
L 176.255425 84.250596 
L 177.858833 83.126256 
L 178.550939 84.561862 
L 180.040755 85.193389 
L 178.426386 87.246701 
" style="fill:#808080;stroke:#ffffff;"/>
    <path clip-path="url(#pd4c51e0c99)" d="M 147.033165 55.910587 
L 149.664944 58.566152 
L 150.507714 62.884542 
L 148.741744 63.753648 
L 146.776315 62.79332 
L 144.018825 61.351187 
L 143.740142 62.088266 
L 145.707786 62.924594 
L 146.335832 65.036776 
L 148.060892 64.559703 
L 147.674836 66.053983 
L 145.735615 67.75577 
L 148.003346 67.214527 
L 151.489126 67.061181 
L 152.857155 68.452584 
L 152.500573 70.194119 
L 148.704008 71.869115 
L 147.90385 72.56285 
L 145.472236 72.221767 
L 146.896231 73.118641 
L 144.642036 75.41775 
L 142.730691 77.50077 
L 140.462013 81.567689 
L 140.158187 84.44425 
L 138.73003 83.955576 
L 136.646464 84.386341 
L 137.168876 87.139867 
L 135.665259 90.371696 
L 134.442815 90.205262 
L 133.982743 94.001113 
L 131.564611 93.140501 
L 131.912062 95.234301 
L 130.838864 96.359693 
L 129.008168 96.154092 
L 127.527586 95.367166 
L 127.392885 98.548912 
L 126.452912 100.179399 
L 125.170582 97.481927 
L 123.998476 98.116658 
L 124.935371 99.861197 
L 125.121236 102.893961 
L 123.883907 106.087808 
L 121.28507 105.631732 
L 121.209971 103.719091 
L 121.081536 100.828356 
L 119.911444 103.483046 
L 117.303108 104.530195 
L 120.419882 106.544401 
L 122.021011 107.668178 
L 116.721195 108.967025 
L 111.401716 109.67157 
L 106.820555 108.392277 
L 105.429935 107.422328 
L 103.12135 107.771366 
L 98.510365 109.951224 
L 95.507513 110.021725 
L 146.821056 55.8 
L 147.033165 55.910587 
" style="fill:#ff0000;stroke:#ffffff;"/>
    <path clip-path="url(#pd4c51e0c99)" d="M 157.621551 205.798586 
L 161.555935 206.710632 
L 160.071557 209.536067 
L 159.617645 212.505185 
L 158.813966 213.191624 
L 157.5364 212.753643 
L 157.582532 213.820229 
L 155.378413 216.067553 
L 155.238255 217.95715 
L 156.653949 217.372147 
L 157.573605 219.249466 
L 157.404608 220.424985 
L 158.209795 222.029138 
L 157.132594 223.258932 
L 157.775054 226.521659 
L 159.391536 227.110685 
L 158.987518 228.910793 
L 156.129625 231.156131 
L 150.156293 229.669065 
L 145.600137 230.652967 
L 145.030929 233.124574 
L 141.394394 233.300188 
L 138.133914 231.018436 
L 136.912184 231.77347 
L 131.5361 229.093073 
L 130.566642 227.295156 
L 132.484243 225.057175 
L 134.239282 216.889616 
L 131.962007 212.073346 
L 130.242498 209.624021 
L 126.298889 207.237827 
L 126.608051 204.177268 
L 130.29199 203.956051 
L 134.689098 205.804428 
L 134.574738 200.974299 
L 136.836656 203.15334 
L 143.524148 200.755003 
L 144.714671 197.43379 
L 147.100408 196.841851 
L 147.333015 198.347955 
L 148.554403 198.536554 
L 149.637897 200.325007 
L 151.348419 202.449987 
L 152.755653 202.227577 
L 155.002708 204.287943 
L 155.591753 204.686093 
L 156.383411 204.640081 
L 157.621551 205.798586 
" style="fill:#ff0000;stroke:#ffffff;"/>
    <path clip-path="url(#pd4c51e0c99)" d="M 164.915092 231.890916 
L 165.419208 235.471204 
L 164.356892 238.682534 
L 162.933221 237.815277 
L 162.253535 234.997638 
L 162.906903 233.459291 
L 164.915092 231.890916 
" style="fill:#ff0000;stroke:#ffffff;"/>
    <path clip-path="url(#pd4c51e0c99)" d="M 102.946125 299.784047 
L 108.816278 300.875913 
L 110.82659 302.795301 
L 102.86693 301.248358 
L 102.946125 299.784047 
" style="fill:#808080;stroke:#ffffff;"/>
    <path clip-path="url(#pd4c51e0c99)" d="M 82.918075 290.755452 
L 95.132902 294.175553 
L 96.300701 288.093587 
L 108.816278 300.875913 
L 102.946125 299.784047 
L 102.86693 301.248358 
L 81.812466 296.09024 
L 82.918075 290.755452 
" style="fill:#808080;stroke:#ffffff;"/>
    <path clip-path="url(#pd4c51e0c99)" d="M 256.816087 260.989028 
L 255.435765 260.855198 
L 255.469985 263.751859 
L 256.452739 263.910151 
L 255.732318 264.753143 
L 255.874512 265.853052 
L 257.336615 264.767666 
L 257.851818 266.290048 
L 257.863036 273.240882 
L 257.236904 272.321571 
L 253.739036 267.138917 
L 253.73902 267.138933 
L 253.739012 267.13892 
L 254.386422 265.495908 
L 254.090525 265.346415 
L 254.484417 263.181327 
L 254.332084 259.939272 
L 254.527469 258.76612 
L 254.608352 258.693337 
L 255.732946 258.316912 
L 255.838836 257.511799 
L 256.719496 257.147459 
L 257.248351 258.76001 
L 256.96921 259.524792 
L 257.041412 259.529604 
L 256.816087 260.989028 
" style="fill:#808080;stroke:#ffffff;"/>
    <path clip-path="url(#pd4c51e0c99)" d="M 255.838836 257.511799 
L 255.732946 258.316912 
L 254.608352 258.693337 
L 254.85903 255.036117 
L 255.664163 251.653207 
L 255.68388 251.492491 
L 257.216128 251.168732 
L 258.230552 252.534486 
L 256.888466 254.679436 
L 256.719496 257.147459 
L 255.838836 257.511799 
" style="fill:#ffa500;stroke:#ffffff;"/>
    <path clip-path="url(#pd4c51e0c99)" d="M 255.874512 265.853052 
L 255.732318 264.753143 
L 256.452739 263.910151 
L 255.469985 263.751859 
L 255.435765 260.855198 
L 256.816087 260.989028 
L 257.510413 263.425873 
L 257.336615 264.767666 
L 255.874512 265.853052 
" style="fill:#808080;stroke:#ffffff;"/>
    <path clip-path="url(#pd4c51e0c99)" d="M 163.386237 277.113888 
L 161.190285 275.416786 
L 161.176453 274.419163 
L 158.314819 271.889766 
L 158.087365 268.772554 
L 160.30312 266.529468 
L 161.187485 263.138218 
L 160.720654 259.180082 
L 161.451598 257.068469 
L 165.145479 255.444611 
L 167.501568 255.946566 
L 167.407049 258.044418 
L 170.267761 256.496106 
L 170.518166 257.289174 
L 168.839405 259.338395 
L 168.82955 261.254147 
L 170.028517 262.270761 
L 169.608021 265.855455 
L 167.318498 267.94691 
L 167.993577 270.195088 
L 169.820884 270.251201 
L 170.734001 272.201047 
L 172.096152 272.823122 
L 171.944574 275.991335 
L 170.203835 277.199794 
L 169.101744 278.529302 
L 166.61267 280.123256 
L 167.000896 281.825491 
L 166.683625 283.560499 
L 164.884231 284.505413 
L 163.386237 277.113888 
" style="fill:#808080;stroke:#ffffff;"/>
    <path clip-path="url(#pd4c51e0c99)" d="M 96.521933 287.331485 
L 96.572165 287.061742 
L 97.470217 282.283255 
L 103.893965 280.661258 
L 107.62278 280.819571 
L 110.772156 280.329889 
L 112.482265 278.565547 
L 116.94253 277.732657 
L 117.543063 274.743823 
L 119.659337 274.745021 
L 121.482877 273.503102 
L 126.229611 273.534131 
L 127.076752 272.037852 
L 126.252681 271.032056 
L 125.598114 266.525545 
L 125.722006 264.000174 
L 124.784237 261.170108 
L 128.363205 259.427292 
L 132.128105 259.225143 
L 134.462344 257.800253 
L 137.849171 256.928557 
L 143.637208 256.766577 
L 149.247512 256.868915 
L 150.918742 257.59327 
L 154.180772 256.135505 
L 157.785292 256.253872 
L 159.13187 257.262293 
L 161.451598 257.068469 
L 160.720654 259.180082 
L 161.187485 263.138218 
L 160.30312 266.529468 
L 158.087365 268.772554 
L 158.314819 271.889766 
L 161.176453 274.419163 
L 161.190285 275.416786 
L 163.386237 277.113888 
L 164.884231 284.505413 
L 166.069726 288.130571 
L 166.269492 290.033573 
L 165.598936 293.368052 
L 165.867373 295.231218 
L 165.376184 297.462589 
L 165.702241 300.026433 
L 164.163646 301.718432 
L 166.44612 304.693086 
L 166.591531 306.433365 
L 167.434058 307.8 
L 110.82659 302.795301 
L 108.816278 300.875913 
L 96.300701 288.093587 
L 96.521933 287.331485 
" style="fill:#808080;stroke:#ffffff;"/>
    <path clip-path="url(#pd4c51e0c99)" d="M 257.041412 259.529604 
L 261.254868 259.771812 
L 266.423856 253.079685 
L 269.340758 257.35493 
L 268.901237 258.202905 
L 262.784217 262.757961 
L 267.383984 265.454116 
L 266.455959 266.552728 
L 266.289031 268.089198 
L 263.81054 269.60163 
L 263.38909 271.327213 
L 262.221554 273.080648 
L 258.135107 273.778403 
L 257.863036 273.240882 
L 257.851818 266.290048 
L 257.336615 264.767666 
L 257.510413 263.425873 
L 256.816087 260.989028 
L 257.041412 259.529604 
" style="fill:#808080;stroke:#ffffff;"/>
    <path clip-path="url(#pd4c51e0c99)" d="M 266.423856 253.079685 
L 272.163222 246.015292 
L 271.609507 240.756556 
L 270.24233 238.026037 
L 271.561621 236.306241 
L 272.175075 233.157198 
L 273.232579 231.948003 
L 276.934313 230.774961 
L 278.400307 231.243094 
L 279.556746 229.875549 
L 279.90218 230.196641 
L 292.264555 260.705391 
L 291.855223 260.880633 
L 279.593992 257.400415 
L 273.697259 256.783039 
L 269.340758 257.35493 
L 266.423856 253.079685 
" style="fill:#808080;stroke:#ffffff;"/>
    <path clip-path="url(#pd4c51e0c99)" d="M 279.556746 229.875549 
L 279.556703 229.875509 
L 276.612212 227.591821 
L 276.677341 226.108417 
L 273.858831 222.131194 
L 275.34801 220.042442 
L 275.597265 220.319523 
L 279.90218 230.196641 
L 279.556746 229.875549 
" style="fill:#ffa500;stroke:#ffffff;"/>
    <path clip-path="url(#pd4c51e0c99)" d="M 256.96921 259.524792 
L 257.248351 258.76001 
L 256.719496 257.147459 
L 256.888466 254.679436 
L 258.230552 252.534486 
L 257.216128 251.168732 
L 255.68388 251.492491 
L 254.457471 248.550986 
L 254.745583 246.629235 
L 255.333827 245.446559 
L 255.914748 244.262115 
L 255.379967 241.979876 
L 256.662949 242.368542 
L 259.761444 239.938567 
L 261.681032 240.023903 
L 264.244034 238.967357 
L 267.266085 235.986235 
L 268.944024 235.329724 
L 272.175075 233.157198 
L 271.561621 236.306241 
L 270.24233 238.026037 
L 271.609507 240.756556 
L 272.163222 246.015292 
L 266.423856 253.079685 
L 261.254868 259.771812 
L 257.041412 259.529604 
L 256.96921 259.524792 
" style="fill:#808080;stroke:#ffffff;"/>
    <path clip-path="url(#pd4c51e0c99)" d="M 275.34801 220.042442 
L 273.724618 219.487015 
L 271.18088 219.581745 
L 270.641743 217.565029 
L 269.570412 216.440363 
L 272.831339 214.145514 
L 275.443089 219.971954 
L 275.34801 220.042442 
" style="fill:#808080;stroke:#ffffff;"/>
    <path clip-path="url(#pd4c51e0c99)" d="M 169.939623 163.103459 
L 171.623776 160.187671 
L 172.124112 155.247334 
L 170.766173 153.170876 
L 170.480394 147.625447 
L 171.564273 143.670957 
L 173.400794 143.661669 
L 173.943313 141.975397 
L 173.200998 140.587156 
L 175.524714 134.562817 
L 176.782968 129.825736 
L 177.538743 126.77936 
L 179.057718 126.633338 
L 179.178546 124.286108 
L 182.182383 124.566582 
L 181.967967 121.829049 
L 182.868815 121.519311 
L 185.250287 123.190238 
L 188.232752 125.520047 
L 189.649578 131.798543 
L 190.562584 133.274973 
L 187.885443 134.990485 
L 186.733569 138.145619 
L 187.458441 140.62277 
L 185.097343 144.385948 
L 181.934633 148.413008 
L 181.170637 154.421971 
L 182.947446 157.200504 
L 185.212723 159.273475 
L 183.846909 164.196249 
L 181.700137 165.404721 
L 181.530406 172.489003 
L 180.567832 176.514934 
L 177.704234 176.319498 
L 176.577433 179.719662 
L 173.825332 180.047579 
L 172.917859 176.116971 
L 170.842785 171.423121 
L 169.031669 165.532852 
L 169.939623 163.103459 
" style="fill:#808080;stroke:#ffffff;"/>
    <path clip-path="url(#pd4c51e0c99)" d="M 211.484982 171.827342 
L 212.090902 172.745275 
L 213.140802 171.925696 
L 215.638753 172.239706 
L 216.440423 174.066672 
L 216.27866 175.303928 
L 218.54054 177.504519 
L 219.721724 177.943388 
L 219.808755 178.715047 
L 221.62127 178.917919 
L 222.648768 179.767448 
L 222.008326 180.946035 
L 220.038048 181.413013 
L 219.692415 181.931579 
L 220.666761 183.097425 
L 222.058876 185.494454 
L 222.058934 185.494447 
L 220.024071 186.377267 
L 219.523293 187.491047 
L 219.951648 189.576535 
L 218.843444 189.472944 
L 216.630362 190.300509 
L 215.717578 189.527136 
L 214.96042 190.488081 
L 213.861604 190.145105 
L 211.855877 190.562375 
L 208.80865 190.24808 
L 206.188254 190.49207 
L 204.247365 190.992977 
L 203.07469 192.388234 
L 201.883307 192.783522 
L 201.490223 190.953871 
L 200.356169 189.184535 
L 201.697678 188.058564 
L 201.393459 186.410695 
L 200.408618 184.971224 
L 199.954075 183.164767 
L 202.301148 182.733305 
L 204.580123 180.632134 
L 204.610944 178.192499 
L 206.224202 176.439509 
L 205.567958 174.656946 
L 206.795685 173.634948 
L 208.830227 171.445931 
L 211.484982 171.827342 
" style="fill:#808080;stroke:#ffffff;"/>
    <path clip-path="url(#pd4c51e0c99)" d="M 223.023274 185.369667 
L 223.349766 184.257364 
L 224.152193 184.220025 
L 226.532566 182.992449 
L 228.855063 184.71706 
L 228.524139 185.739584 
L 229.151777 186.909431 
L 231.179468 186.4051 
L 232.670152 187.812082 
L 232.895738 188.614983 
L 236.56087 188.822045 
L 238.22074 187.449084 
L 240.466852 188.677534 
L 241.895496 188.035823 
L 246.056229 187.74022 
L 246.571061 188.872561 
L 246.415593 191.363339 
L 247.868293 193.275374 
L 248.007029 194.754827 
L 245.639458 196.103827 
L 244.735921 197.756013 
L 245.329763 199.54091 
L 243.347445 200.702021 
L 242.051668 202.672592 
L 239.618999 203.82613 
L 237.79776 206.155955 
L 238.648633 208.24771 
L 238.193844 208.272451 
L 237.577145 207.607552 
L 236.644095 207.756223 
L 234.419747 207.55922 
L 234.007335 208.795141 
L 233.493042 208.482895 
L 228.901554 208.820844 
L 228.276788 207.371097 
L 225.867714 208.62723 
L 225.444769 211.157266 
L 224.049961 214.767197 
L 222.584499 214.41433 
L 221.408821 215.420016 
L 219.95574 214.992223 
L 220.565348 214.367256 
L 220.719251 212.84043 
L 221.166937 211.339911 
L 220.787168 210.661814 
L 221.288693 210.183051 
L 221.705896 210.674 
L 223.379615 210.348479 
L 224.036843 209.843898 
L 223.410359 209.575547 
L 223.446452 208.915466 
L 222.211076 208.146828 
L 221.372192 206.553308 
L 220.205041 206.154238 
L 220.047551 204.721544 
L 218.545606 203.947517 
L 217.395235 204.081298 
L 215.097868 203.303878 
L 213.395103 204.138293 
L 212.883772 204.893334 
L 211.735659 205.1538 
L 211.255297 206.266476 
L 209.311647 207.097502 
L 208.497243 207.924624 
L 207.021164 207.175877 
L 205.252126 207.502833 
L 203.464451 207.360793 
L 202.423479 208.457961 
L 202.04391 207.382609 
L 200.330553 206.515797 
L 200.592415 204.757065 
L 201.165437 203.550747 
L 201.797466 203.689072 
L 200.785012 201.950832 
L 202.593386 198.078562 
L 203.807079 197.350852 
L 203.865759 196.138839 
L 201.883307 192.783522 
L 203.07469 192.388234 
L 204.247365 190.992977 
L 206.188254 190.49207 
L 208.80865 190.24808 
L 211.855877 190.562375 
L 213.861604 190.145105 
L 214.96042 190.488081 
L 215.717578 189.527136 
L 216.630362 190.300509 
L 218.843444 189.472944 
L 219.951648 189.576535 
L 219.523293 187.491047 
L 220.024071 186.377267 
L 222.058934 185.494447 
L 223.023274 185.369667 
" style="fill:#808080;stroke:#ffffff;"/>
    <path clip-path="url(#pd4c51e0c99)" d="M 200.408618 184.971224 
L 201.393459 186.410695 
L 201.697678 188.058564 
L 200.356169 189.184535 
L 201.490223 190.953871 
L 201.883307 192.783522 
L 203.865759 196.138839 
L 203.807079 197.350852 
L 202.593386 198.078562 
L 200.785012 201.950832 
L 201.797466 203.689072 
L 201.165437 203.550747 
L 198.341381 202.385177 
L 196.488051 203.271789 
L 195.150863 203.03201 
L 193.671393 204.14492 
L 192.115793 202.849756 
L 191.07301 203.553568 
L 190.890171 203.320733 
L 189.411931 201.416188 
L 187.391107 201.383444 
L 187.003169 200.103864 
L 185.13163 199.817671 
L 184.832472 200.932821 
L 183.306099 200.196956 
L 183.375105 199.033496 
L 181.365425 198.829075 
L 180.018049 197.572941 
L 178.770999 194.972583 
L 178.880365 193.517213 
L 178.105824 191.31865 
L 177.097158 189.880835 
L 177.733531 188.722819 
L 177.024608 186.626969 
L 178.635806 185.293751 
L 182.300088 183.064909 
L 185.204199 181.356364 
L 187.688135 181.788711 
L 187.995014 182.782649 
L 190.337848 182.536436 
L 193.3872 182.580657 
L 197.815328 181.784507 
L 199.132234 182.001447 
L 199.954075 183.164767 
L 200.408618 184.971224 
" style="fill:#808080;stroke:#ffffff;"/>
    <path clip-path="url(#pd4c51e0c99)" d="M 186.287184 211.322776 
L 184.702382 211.473423 
L 185.325522 212.330091 
L 184.604673 215.097591 
L 184.113786 215.846939 
L 181.606045 216.14024 
L 180.210316 217.183632 
L 177.804758 216.995721 
L 173.637039 216.087984 
L 172.953165 214.652759 
L 170.137502 215.443227 
L 169.814631 216.243988 
L 168.065862 215.666653 
L 166.599896 215.556633 
L 165.305668 214.789642 
L 165.748322 213.76791 
L 165.64202 213.024672 
L 166.49917 212.796848 
L 167.940183 213.956183 
L 168.338324 212.849122 
L 170.842874 212.994226 
L 172.85067 212.195051 
L 174.21048 212.279826 
L 175.125498 213.103087 
L 175.361967 212.381657 
L 174.857234 209.671814 
L 175.838135 209.098942 
L 176.728407 207.124604 
L 178.856087 208.360005 
L 180.306003 206.551969 
L 181.252599 206.172985 
L 183.486274 207.283809 
L 184.763921 206.956585 
L 186.107338 207.627987 
L 185.933681 208.178688 
L 186.343774 209.598194 
L 186.287184 211.322776 
" style="fill:#808080;stroke:#ffffff;"/>
    <path clip-path="url(#pd4c51e0c99)" d="M 202.04391 207.382609 
L 202.423479 208.457961 
L 200.868739 209.614567 
L 199.979468 212.639178 
L 198.674022 215.715611 
L 196.476427 216.830655 
L 194.652715 216.888612 
L 192.565811 218.257751 
L 192.565775 218.257778 
L 191.548244 219.006113 
L 189.06153 218.466786 
L 186.728064 216.892092 
L 185.766914 216.461985 
L 185.090194 215.102779 
L 184.604673 215.097591 
L 185.325522 212.330091 
L 184.702382 211.473423 
L 186.287184 211.322776 
L 186.343774 209.598194 
L 187.869147 210.525938 
L 188.949409 210.872543 
L 191.245798 210.097448 
L 191.373899 209.23477 
L 192.465237 208.976249 
L 193.736474 208.156889 
L 194.070411 208.382909 
L 195.301456 207.686294 
L 195.813072 206.617424 
L 196.677251 206.233036 
L 199.81149 207.035951 
L 200.330553 206.515797 
L 202.04391 207.382609 
" style="fill:#808080;stroke:#ffffff;"/>
    <path clip-path="url(#pd4c51e0c99)" d="M 213.395103 204.138293 
L 215.097868 203.303878 
L 217.395235 204.081298 
L 218.545606 203.947517 
L 220.047551 204.721544 
L 220.205041 206.154238 
L 221.372192 206.553308 
L 222.211076 208.146828 
L 223.446452 208.915466 
L 223.410359 209.575547 
L 224.036843 209.843898 
L 223.379615 210.348479 
L 221.705896 210.674 
L 221.288693 210.183051 
L 220.787168 210.661814 
L 221.166937 211.339911 
L 220.719251 212.84043 
L 220.565348 214.367256 
L 219.95574 214.992223 
L 219.005215 213.255685 
L 218.887198 211.436951 
L 218.368209 209.666431 
L 216.196402 207.630136 
L 214.925285 206.114307 
L 213.802827 205.099947 
L 212.883772 204.893334 
L 213.395103 204.138293 
" style="fill:#808080;stroke:#ffffff;"/>
    <path clip-path="url(#pd4c51e0c99)" d="M 221.408821 215.420016 
L 222.584499 214.41433 
L 224.049961 214.767197 
L 224.384535 215.798495 
L 223.216016 217.046786 
L 222.249449 216.893823 
L 222.622016 222.0227 
L 220.794268 222.026863 
L 218.324392 221.055365 
L 215.066424 222.795766 
L 213.809177 224.159192 
L 209.39861 224.823125 
L 206.996864 224.605627 
L 205.891644 225.113311 
L 204.75892 223.563579 
L 204.10082 222.935591 
L 204.673005 222.121393 
L 203.863292 221.730734 
L 203.08274 222.81165 
L 201.179058 221.885602 
L 200.696121 220.214609 
L 198.776069 219.509502 
L 198.265554 218.237894 
L 196.476427 216.830655 
L 198.674022 215.715611 
L 199.979468 212.639178 
L 200.868739 209.614567 
L 202.423479 208.457961 
L 203.464451 207.360793 
L 205.252126 207.502833 
L 207.021164 207.175877 
L 208.497243 207.924624 
L 209.311647 207.097502 
L 211.255297 206.266476 
L 211.735659 205.1538 
L 212.883772 204.893334 
L 213.802827 205.099947 
L 214.925285 206.114307 
L 216.196402 207.630136 
L 218.368209 209.666431 
L 218.887198 211.436951 
L 219.005215 213.255685 
L 219.95574 214.992223 
L 221.408821 215.420016 
" style="fill:#808080;stroke:#ffffff;"/>
    <path clip-path="url(#pd4c51e0c99)" d="M 206.224202 176.439509 
L 204.610944 178.192499 
L 204.580123 180.632134 
L 202.301148 182.733305 
L 199.954075 183.164767 
L 199.132234 182.001447 
L 197.815328 181.784507 
L 197.432652 180.763358 
L 197.481893 179.585674 
L 196.315292 179.113962 
L 193.712923 178.798812 
L 192.656094 175.39111 
L 195.082669 173.688265 
L 198.971059 173.245607 
L 201.124054 172.382639 
L 201.629085 173.169809 
L 202.902081 173.170177 
L 205.567958 174.656946 
L 206.224202 176.439509 
" style="fill:#ffa500;stroke:#ffffff;"/>
    <path clip-path="url(#pd4c51e0c99)" d="M 206.768181 167.301125 
L 207.475348 169.228315 
L 208.830227 171.445931 
L 206.795685 173.634948 
L 205.567958 174.656946 
L 202.902081 173.170177 
L 201.629085 173.169809 
L 201.124054 172.382639 
L 198.971059 173.245607 
L 195.082669 173.688265 
L 192.656094 175.39111 
L 192.235231 172.257406 
L 192.912034 169.478513 
L 194.753503 167.709158 
L 197.104846 170.469502 
L 198.887178 170.039138 
L 198.652618 166.793884 
L 200.353218 165.676843 
L 201.421171 165.969964 
L 203.662243 167.057645 
L 205.469497 166.628293 
L 206.768181 167.301125 
" style="fill:#808080;stroke:#ffffff;"/>
    <path clip-path="url(#pd4c51e0c99)" d="M 204.791663 158.109128 
L 205.295941 158.736729 
L 204.436047 161.462468 
L 206.065488 165.10038 
L 205.469497 166.628293 
L 203.662243 167.057645 
L 201.421171 165.969964 
L 200.353218 165.676843 
L 198.652618 166.793884 
L 198.388861 164.316419 
L 197.704211 164.996216 
L 196.037496 163.80131 
L 195.380948 161.469951 
L 197.797217 159.793065 
L 200.279668 158.624535 
L 202.69227 158.767965 
L 204.791631 158.109058 
L 204.791673 158.109111 
L 204.791663 158.109128 
" style="fill:#ffa500;stroke:#ffffff;"/>
    <path clip-path="url(#pd4c51e0c99)" d="M 177.733531 188.722819 
L 177.097158 189.880835 
L 178.105824 191.31865 
L 178.880365 193.517213 
L 178.770999 194.972583 
L 180.018049 197.572941 
L 178.870757 198.086608 
L 178.146729 197.647984 
L 177.530491 198.482453 
L 175.668191 199.389436 
L 174.723726 200.475245 
L 172.809736 201.456219 
L 173.320249 202.685952 
L 173.665887 204.442053 
L 175.096903 205.395548 
L 176.728407 207.124604 
L 175.838135 209.098942 
L 174.857234 209.671814 
L 175.361967 212.381657 
L 175.125498 213.103087 
L 174.21048 212.279826 
L 172.85067 212.195051 
L 170.842874 212.994226 
L 168.338324 212.849122 
L 167.940183 213.956183 
L 166.49917 212.796848 
L 165.64202 213.024672 
L 162.625159 211.706362 
L 162.025845 212.603125 
L 159.617645 212.505185 
L 160.071557 209.536067 
L 161.555935 206.710632 
L 157.621551 205.798586 
L 156.383411 204.640081 
L 156.629835 202.813426 
L 156.140634 201.840091 
L 156.593227 199.028533 
L 156.388158 194.618602 
L 157.945172 194.696186 
L 158.670767 193.149375 
L 159.465909 189.340758 
L 159.05629 187.905033 
L 159.580162 187.038096 
L 161.665341 186.8815 
L 162.101851 187.818111 
L 163.832533 185.787741 
L 163.299619 184.20636 
L 163.236807 181.827334 
L 165.055323 182.407826 
L 166.60548 181.77821 
L 166.646735 183.398246 
L 169.120867 184.359886 
L 169.114435 185.847904 
L 171.603822 185.010708 
L 172.944844 183.820456 
L 175.784921 185.356243 
L 177.024608 186.626969 
L 177.733531 188.722819 
" style="fill:#808080;stroke:#ffffff;"/>
    <path clip-path="url(#pd4c51e0c99)" d="M 205.891644 225.113311 
L 206.996864 224.605627 
L 209.39861 224.823125 
L 213.809177 224.159192 
L 215.066424 222.795766 
L 218.324392 221.055365 
L 220.794268 222.026863 
L 222.622016 222.0227 
L 221.484985 224.097695 
L 221.055338 227.285568 
L 222.551812 229.379091 
L 219.820524 229.454776 
L 216.984256 231.442745 
L 217.359207 233.49122 
L 214.623553 234.471861 
L 212.180376 233.471974 
L 209.896868 235.072627 
L 207.575908 235.364766 
L 206.92008 232.675992 
L 205.172108 231.612723 
L 205.585504 230.945757 
L 205.177426 230.510278 
L 205.483637 229.110091 
L 206.429929 227.620448 
L 204.681482 226.089495 
L 204.174848 224.625381 
L 204.75892 223.563579 
L 205.891644 225.113311 
" style="fill:#ffa500;stroke:#ffffff;"/>
    <path clip-path="url(#pd4c51e0c99)" d="M 222.519844 259.306588 
L 217.684865 260.649241 
L 217.605616 259.968277 
L 213.325554 259.940605 
L 213.681436 258.087484 
L 215.754687 259.126914 
L 218.352482 258.385987 
L 220.919657 258.165068 
L 220.966212 258.892277 
L 222.719065 258.013185 
L 222.519844 259.306588 
" style="fill:#808080;stroke:#ffffff;"/>
    <path clip-path="url(#pd4c51e0c99)" d="M 209.896868 235.072627 
L 212.180376 233.471974 
L 214.623553 234.471861 
L 217.359207 233.49122 
L 216.984256 231.442745 
L 218.697851 232.196966 
L 218.264351 234.97228 
L 217.617439 235.592769 
L 215.697914 235.878747 
L 213.999458 235.822994 
L 210.399076 237.619589 
L 212.980106 239.519674 
L 211.485818 240.494292 
L 209.717024 240.820349 
L 207.703267 238.992258 
L 207.249491 239.997406 
L 208.340981 242.336911 
L 210.250707 243.988283 
L 209.177682 245.102339 
L 211.282397 246.679796 
L 213.08854 247.576084 
L 213.522906 249.88544 
L 210.310778 249.343704 
L 211.609583 251.268255 
L 209.574838 252.062887 
L 211.387217 255.47051 
L 209.165854 255.897904 
L 206.166353 254.546553 
L 204.476135 251.442082 
L 203.536943 248.785485 
L 202.016113 247.073458 
L 200.05824 244.949144 
L 199.695772 243.801837 
L 200.935266 241.592049 
L 200.952732 240.221836 
L 201.904276 239.473952 
L 201.821694 238.378965 
L 203.830447 237.70148 
L 204.894989 236.609491 
L 206.602554 236.409913 
L 207.003815 235.603917 
L 207.575908 235.364766 
L 209.896868 235.072627 
" style="fill:#808080;stroke:#ffffff;"/>
    <path clip-path="url(#pd4c51e0c99)" d="M 278.400307 231.243094 
L 276.934313 230.774961 
L 273.232579 231.948003 
L 272.175075 233.157198 
L 268.944024 235.329724 
L 267.266085 235.986235 
L 264.244034 238.967357 
L 261.681032 240.023903 
L 259.761444 239.938567 
L 256.662949 242.368542 
L 255.379967 241.979876 
L 255.914748 244.262115 
L 255.333827 245.446559 
L 254.745583 246.629235 
L 253.011322 245.2417 
L 253.75675 243.313043 
L 251.919564 244.342811 
L 248.974628 244.342749 
L 247.431064 247.383371 
L 242.628474 249.390401 
L 239.432374 248.014405 
L 235.892112 248.879454 
L 235.542442 250.766051 
L 233.381816 251.857574 
L 229.714051 250.515246 
L 226.137615 251.460947 
L 223.367878 247.856366 
L 220.546569 246.119308 
L 221.48014 242.594173 
L 219.071368 241.086731 
L 221.765916 236.389348 
L 226.517171 235.056154 
L 227.081415 231.628234 
L 233.024599 230.561852 
L 235.933285 226.85571 
L 239.069239 224.61608 
L 243.916289 222.876805 
L 249.970262 223.814551 
L 254.718985 223.705778 
L 257.895162 221.700829 
L 260.52346 220.984214 
L 263.098105 217.434979 
L 266.038289 215.847596 
L 269.570412 216.440363 
L 270.641743 217.565029 
L 271.18088 219.581745 
L 273.724618 219.487015 
L 275.34801 220.042442 
L 273.858831 222.131194 
L 276.677341 226.108417 
L 276.612212 227.591821 
L 279.556703 229.875509 
L 279.556746 229.875549 
L 278.400307 231.243094 
" style="fill:#808080;stroke:#ffffff;"/>
    <path clip-path="url(#pd4c51e0c99)" d="M 219.820524 229.454776 
L 222.551812 229.379091 
L 223.267054 230.859561 
L 226.235406 231.503076 
L 225.91222 232.644031 
L 222.308407 233.772561 
L 221.258921 235.347238 
L 219.105651 238.139865 
L 217.741898 236.44747 
L 217.617439 235.592769 
L 218.264351 234.97228 
L 218.697851 232.196966 
L 216.984256 231.442745 
L 219.820524 229.454776 
" style="fill:#808080;stroke:#ffffff;"/>
    <path clip-path="url(#pd4c51e0c99)" d="M 201.904276 239.473952 
L 200.952732 240.221836 
L 200.935266 241.592049 
L 199.695772 243.801837 
L 199.113482 243.585456 
L 198.939832 242.684246 
L 197.004552 241.522671 
L 196.503163 239.584392 
L 196.445617 236.724713 
L 196.722292 235.384602 
L 196.121977 234.79769 
L 196.121973 234.797677 
L 195.760669 233.504526 
L 196.854724 231.292484 
L 197.144984 232.046914 
L 197.926605 231.570012 
L 198.722991 232.592501 
L 199.515666 232.91377 
L 199.920323 234.384706 
L 199.920329 234.384725 
L 199.707663 235.848714 
L 200.382282 237.560455 
L 201.821694 238.378965 
L 201.904276 239.473952 
" style="fill:#808080;stroke:#ffffff;"/>
    <path clip-path="url(#pd4c51e0c99)" d="M 186.728064 216.892092 
L 189.06153 218.466786 
L 191.548244 219.006113 
L 192.565775 218.257778 
L 193.459475 219.782669 
L 194.530709 220.850923 
L 193.580418 222.55506 
L 192.141321 221.792949 
L 190.107104 222.076108 
L 187.505 221.638514 
L 186.134998 221.856344 
L 185.565071 222.776377 
L 184.428788 221.90661 
L 183.937872 223.68589 
L 185.548613 225.516959 
L 186.303918 226.752374 
L 187.824404 228.182987 
L 189.06408 228.994018 
L 190.37894 230.615869 
L 193.254144 231.89389 
L 192.990043 232.638159 
L 192.990041 232.638163 
L 189.943621 231.409398 
L 188.032132 230.083618 
L 185.143087 229.087648 
L 182.382805 226.211319 
L 182.96837 225.856973 
L 181.489421 224.197264 
L 181.345605 222.792615 
L 179.403813 222.25139 
L 178.588208 224.103298 
L 177.642667 222.7503 
L 177.640832 221.297075 
L 177.74263 221.22431 
L 179.802059 221.254951 
L 180.299687 220.517792 
L 181.340979 221.13515 
L 182.501069 221.136366 
L 182.410325 219.971102 
L 183.396461 219.468763 
L 183.554751 217.761579 
L 185.766914 216.461985 
L 186.728064 216.892092 
" style="fill:#808080;stroke:#ffffff;"/>
    <path clip-path="url(#pd4c51e0c99)" d="M 165.748322 213.76791 
L 165.305668 214.789642 
L 166.599896 215.556633 
L 168.065862 215.666653 
L 167.846048 217.382971 
L 166.569755 218.090936 
L 164.426047 217.553881 
L 163.775959 219.232599 
L 162.382814 219.34171 
L 161.891003 218.668177 
L 160.217594 220.042804 
L 158.798317 220.194333 
L 157.573605 219.249466 
L 156.653949 217.372147 
L 155.238255 217.95715 
L 155.378413 216.067553 
L 157.582532 213.820229 
L 157.5364 212.753643 
L 158.813966 213.191624 
L 159.617645 212.505185 
L 162.025845 212.603125 
L 162.625159 211.706362 
L 165.64202 213.024672 
L 165.748322 213.76791 
" style="fill:#808080;stroke:#ffffff;"/>
    <path clip-path="url(#pd4c51e0c99)" d="M 156.629835 202.813426 
L 156.383411 204.640081 
L 155.591753 204.686093 
L 155.002708 204.287943 
L 155.430754 201.958818 
L 156.140634 201.840091 
L 156.629835 202.813426 
" style="fill:#808080;stroke:#ffffff;"/>
    <path clip-path="url(#pd4c51e0c99)" d="M 156.140634 201.840091 
L 155.430754 201.958818 
L 155.002708 204.287943 
L 152.755653 202.227577 
L 151.348419 202.449987 
L 149.637897 200.325007 
L 148.554403 198.536554 
L 147.333015 198.347955 
L 147.100408 196.841851 
L 149.276618 196.222531 
L 149.276722 196.222559 
L 149.276608 196.222639 
L 151.163075 196.716737 
L 153.651793 196.030686 
L 155.194612 197.969108 
L 156.593227 199.028533 
L 156.140634 201.840091 
" style="fill:#ffa500;stroke:#ffffff;"/>
    <path clip-path="url(#pd4c51e0c99)" d="M 159.465909 189.340758 
L 158.670767 193.149375 
L 157.945172 194.696186 
L 156.388158 194.618602 
L 156.593227 199.028533 
L 155.194612 197.969108 
L 153.651793 196.030686 
L 151.163075 196.716737 
L 149.276608 196.222639 
L 149.276722 196.222559 
L 150.720106 195.193342 
L 153.446548 189.219695 
L 156.987364 187.686237 
L 159.05629 187.905033 
L 159.465909 189.340758 
" style="fill:#808080;stroke:#ffffff;"/>
    <path clip-path="url(#pd4c51e0c99)" d="M 109.113642 228.349293 
L 110.48213 228.064935 
L 110.786992 230.250514 
L 112.58657 230.678848 
L 113.219791 230.285393 
L 114.965335 230.837112 
L 115.400006 233.082905 
L 113.74694 233.870892 
L 113.044729 237.053075 
L 112.412305 237.535248 
L 111.884378 239.437791 
L 110.450409 239.45662 
L 111.208395 242.200113 
L 109.768726 244.677403 
L 110.632229 246.146953 
L 109.96168 247.154643 
L 108.441025 248.403907 
L 108.435029 249.817028 
L 106.896463 250.563203 
L 105.289329 249.572376 
L 103.502252 249.59832 
L 104.707452 246.543664 
L 104.965715 243.966978 
L 103.61903 243.224075 
L 103.216903 241.485246 
L 104.096232 238.892212 
L 105.693341 237.742436 
L 106.297564 236.154867 
L 107.512962 233.872421 
L 107.846274 232.129316 
L 107.579821 230.509675 
L 107.772568 229.102347 
L 109.113642 228.349293 
" style="fill:#808080;stroke:#ffffff;"/>
    <path clip-path="url(#pd4c51e0c99)" d="M 108.441025 248.403907 
L 109.96168 247.154643 
L 110.632229 246.146953 
L 109.768726 244.677403 
L 111.208395 242.200113 
L 110.450409 239.45662 
L 111.884378 239.437791 
L 112.412305 237.535248 
L 113.044729 237.053075 
L 113.74694 233.870892 
L 115.400006 233.082905 
L 114.965335 230.837112 
L 113.219791 230.285393 
L 112.58657 230.678848 
L 110.786992 230.250514 
L 110.48213 228.064935 
L 109.113642 228.349293 
L 107.772568 229.102347 
L 108.617872 226.241195 
L 107.831743 224.15499 
L 112.709526 222.282982 
L 116.159997 223.879236 
L 120.154245 224.726943 
L 123.199825 226.071124 
L 125.727438 226.324503 
L 130.566642 227.295156 
L 131.5361 229.093073 
L 136.912184 231.77347 
L 138.133914 231.018436 
L 141.394394 233.300188 
L 145.030929 233.124574 
L 144.988309 235.554551 
L 141.762321 238.026598 
L 137.629051 238.443894 
L 137.189739 239.802774 
L 134.965208 241.848273 
L 133.316892 245.047391 
L 134.299871 247.577078 
L 132.183315 249.164677 
L 131.135429 251.746054 
L 128.525557 252.20252 
L 125.729518 254.999326 
L 121.475144 254.347414 
L 118.309325 253.686855 
L 115.973274 254.72704 
L 114.422625 256.015362 
L 112.844653 255.337801 
L 111.866628 253.695687 
L 111.377564 251.143301 
L 108.435029 249.817028 
L 108.441025 248.403907 
" style="fill:#808080;stroke:#ffffff;"/>
    <path clip-path="url(#pd4c51e0c99)" d="M 126.767516 185.000982 
L 124.054517 188.230982 
L 119.023716 189.540254 
L 115.655514 187.960704 
L 118.821203 184.273681 
L 118.710107 179.796091 
L 122.785758 177.482542 
L 125.040871 176.028841 
L 124.971686 178.336685 
L 123.935282 180.404577 
L 125.424298 180.709705 
L 127.036662 181.979202 
L 126.767516 185.000982 
" style="fill:#808080;stroke:#ffffff;"/>
    <path clip-path="url(#pd4c51e0c99)" d="M 169.814631 216.243988 
L 170.137502 215.443227 
L 172.953165 214.652759 
L 173.637039 216.087984 
L 177.804758 216.995721 
L 177.590068 219.069511 
L 178.37875 220.811907 
L 176.013987 220.314531 
L 173.673257 221.885334 
L 173.899698 223.954022 
L 173.569139 225.155301 
L 174.620439 227.249091 
L 177.546012 229.234571 
L 179.251239 232.603764 
L 182.899417 235.749131 
L 185.346352 235.543479 
L 186.17729 236.401383 
L 185.357948 237.300167 
L 188.29806 238.565126 
L 190.731973 239.600488 
L 193.670321 241.4758 
L 194.080533 242.212707 
L 193.630557 243.762804 
L 191.660989 242.016657 
L 188.821493 241.60246 
L 187.684882 244.405704 
L 190.151165 245.732937 
L 189.948142 247.931769 
L 188.600093 248.300617 
L 187.105528 252.0015 
L 185.741953 252.42758 
L 185.670016 251.159718 
L 186.190571 248.885236 
L 186.840075 247.943337 
L 185.397222 245.638179 
L 184.270058 243.616818 
L 182.901036 243.190988 
L 181.848981 241.457713 
L 179.757145 240.820399 
L 178.30316 239.217803 
L 175.947856 239.049027 
L 173.423483 237.250167 
L 170.505247 234.599665 
L 168.372781 232.220797 
L 167.400461 228.099123 
L 165.893527 227.612607 
L 163.450986 226.211069 
L 162.054774 226.750488 
L 160.260234 228.644579 
L 158.987518 228.910793 
L 159.391536 227.110685 
L 157.775054 226.521659 
L 157.132594 223.258932 
L 158.209795 222.029138 
L 157.404608 220.424985 
L 157.573605 219.249466 
L 158.798317 220.194333 
L 160.217594 220.042804 
L 161.891003 218.668177 
L 162.382814 219.34171 
L 163.775959 219.232599 
L 164.426047 217.553881 
L 166.569755 218.090936 
L 167.846048 217.382971 
L 168.065862 215.666653 
L 169.814631 216.243988 
" style="fill:#808080;stroke:#ffffff;"/>
    <path clip-path="url(#pd4c51e0c99)" d="M 185.110494 251.131822 
L 184.115218 254.476997 
L 184.696085 255.725647 
L 184.115445 257.902128 
L 181.443074 256.501909 
L 179.706644 256.146163 
L 174.939498 254.229899 
L 175.343965 252.084447 
L 179.249443 252.303193 
L 182.61597 251.663063 
L 185.110494 251.131822 
" style="fill:#808080;stroke:#ffffff;"/>
    <path clip-path="url(#pd4c51e0c99)" d="M 164.287599 239.390172 
L 166.184179 242.359085 
L 165.711676 247.859514 
L 164.225185 247.586336 
L 162.87121 248.956537 
L 161.647085 247.831803 
L 161.613037 242.811433 
L 160.932605 240.414981 
L 162.681091 240.659474 
L 164.287599 239.390172 
" style="fill:#808080;stroke:#ffffff;"/>
    <path clip-path="url(#pd4c51e0c99)" d="M 165.055323 182.407826 
L 163.236807 181.827334 
L 162.319403 179.478961 
L 162.364328 175.193736 
L 162.779017 174.072543 
L 163.465943 172.83023 
L 165.480994 172.598724 
L 166.28565 171.447253 
L 168.097309 170.26092 
L 168.038211 172.41628 
L 167.36846 173.784904 
L 167.650495 174.957236 
L 168.914038 175.580309 
L 168.361209 177.167538 
L 167.659849 176.717324 
L 165.959595 179.735362 
L 166.60548 181.77821 
L 165.055323 182.407826 
" style="fill:#808080;stroke:#ffffff;"/>
    <path clip-path="url(#pd4c51e0c99)" d="M 173.181576 179.031263 
L 171.858029 182.47249 
L 169.287718 180.160021 
L 168.931651 178.424779 
L 172.352994 176.957288 
L 173.181576 179.031263 
" style="fill:#808080;stroke:#ffffff;"/>
    <path clip-path="url(#pd4c51e0c99)" d="M 125.424298 180.709705 
L 123.935282 180.404577 
L 124.971686 178.336685 
L 125.040871 176.028841 
L 127.030445 176.336009 
L 128.957978 179.448511 
L 127.036662 181.979202 
L 125.424298 180.709705 
" style="fill:#ff0000;stroke:#ffffff;"/>
    <path clip-path="url(#pd4c51e0c99)" d="M 134.197211 185.441786 
L 134.997597 183.10764 
L 133.867053 180.263278 
L 133.841851 180.198196 
L 131.106665 178.894592 
L 130.784201 177.662878 
L 132.027194 176.004086 
L 131.509912 174.710727 
L 129.832841 176.381976 
L 130.593487 172.396814 
L 129.941044 170.048731 
L 131.738559 165.99748 
L 134.174267 163.041374 
L 135.812851 163.723751 
L 138.473942 163.880213 
L 135.25392 167.889262 
L 137.614587 167.758215 
L 140.03174 168.209301 
L 138.852771 171.479479 
L 136.118243 174.81544 
L 138.462117 175.504243 
L 138.570783 175.970482 
L 139.866231 181.201522 
L 141.411878 182.116384 
L 142.24323 187.064512 
L 142.732348 188.803245 
L 145.682726 189.973475 
L 145.064114 192.603145 
L 143.609151 193.667715 
L 144.384821 195.947584 
L 141.760132 197.83619 
L 138.249437 197.307382 
L 133.597398 197.728426 
L 132.517049 196.69862 
L 130.430538 198.315435 
L 128.089593 197.372296 
L 125.92326 198.562504 
L 124.70012 197.439828 
L 129.402554 193.914579 
L 131.875022 193.4672 
L 131.85545 193.459958 
L 127.995793 191.981868 
L 127.622943 190.192664 
L 130.515985 189.458844 
L 129.599639 186.961923 
L 130.624627 184.360854 
L 134.192988 185.440556 
L 134.197211 185.441786 
" style="fill:#ff0000;stroke:#ffffff;"/>
    <path clip-path="url(#pd4c51e0c99)" d="M 124.914621 128.925196 
L 125.702515 132.276911 
L 122.34343 134.469002 
L 116.306852 135.162005 
L 114.518234 135.226535 
L 112.566719 133.654145 
L 108.594322 130.197334 
L 111.07269 129.354371 
L 108.651238 125.740324 
L 111.803342 126.472956 
L 112.333111 125.342954 
L 109.63068 122.781272 
L 112.031962 120.937922 
L 114.578228 121.570094 
L 115.582766 125.282506 
L 118.951659 124.312372 
L 120.381264 126.252697 
L 123.839156 125.255469 
L 126.307732 126.534678 
L 124.914621 128.925196 
" style="fill:#808080;stroke:#ffffff;"/>
    <path clip-path="url(#pd4c51e0c99)" d="M 275.34801 220.042442 
L 275.443089 219.971954 
L 275.597265 220.319523 
L 275.34801 220.042442 
" style="fill:#808080;stroke:#ffffff;"/>
    <path clip-path="url(#pd4c51e0c99)" d="M 255.782522 211.388634 
L 258.391231 211.025668 
L 262.709513 209.787962 
L 267.25282 209.83346 
L 268.053164 210.311165 
L 269.438112 208.869338 
L 270.349702 208.712756 
L 272.831339 214.145514 
L 269.570412 216.440363 
L 266.038289 215.847596 
L 263.098105 217.434979 
L 262.838582 215.5755 
L 261.044343 213.235895 
L 258.846219 212.524037 
L 257.121857 212.756425 
L 255.626723 211.998538 
L 255.782522 211.388634 
" style="fill:#808080;stroke:#ffffff;"/>
    <path clip-path="url(#pd4c51e0c99)" d="M 180.210316 217.183632 
L 181.606045 216.14024 
L 184.113786 215.846939 
L 184.604673 215.097591 
L 185.090194 215.102779 
L 185.766914 216.461985 
L 183.554751 217.761579 
L 183.396461 219.468763 
L 182.410325 219.971102 
L 182.501069 221.136366 
L 181.340979 221.13515 
L 180.299687 220.517792 
L 179.802059 221.254951 
L 177.74263 221.22431 
L 178.37875 220.811907 
L 177.590068 219.069511 
L 177.804758 216.995721 
L 180.210316 217.183632 
" style="fill:#808080;stroke:#ffffff;"/>
    <path clip-path="url(#pd4c51e0c99)" d="M 195.287603 122.00565 
L 198.452729 123.998811 
L 197.977866 127.431753 
L 201.312964 131.432626 
L 201.281241 135.19854 
L 203.790144 137.717031 
L 203.906186 140.544533 
L 207.479817 142.461287 
L 207.472875 144.717243 
L 206.477661 147.565458 
L 203.828223 153.888046 
L 203.828228 153.888048 
L 203.828222 153.888061 
L 200.271092 155.118378 
L 197.042846 157.411985 
L 193.86318 158.938368 
L 192.243942 156.903276 
L 190.02773 155.88105 
L 189.766445 151.738114 
L 188.178514 148.166353 
L 188.663285 145.616279 
L 189.861853 142.739082 
L 193.007532 137.487396 
L 193.964974 136.379207 
L 193.366024 134.69795 
L 190.562584 133.274973 
L 189.649578 131.798543 
L 188.232752 125.520047 
L 185.250287 123.190238 
L 182.868815 121.519311 
L 183.565149 120.293126 
L 185.6394 122.168202 
L 187.555946 121.59022 
L 189.395893 122.234241 
L 190.366471 120.121102 
L 190.293866 116.993024 
L 192.088261 115.07788 
L 194.369788 116.171055 
L 194.643486 119.143673 
L 195.287603 122.00565 
" style="fill:#808080;stroke:#ffffff;"/>
    <path clip-path="url(#pd4c51e0c99)" d="M 200.592415 204.757065 
L 200.330553 206.515797 
L 199.81149 207.035951 
L 196.677251 206.233036 
L 195.813072 206.617424 
L 195.301456 207.686294 
L 194.070411 208.382909 
L 193.736474 208.156889 
L 192.465237 208.976249 
L 191.373899 209.23477 
L 191.245798 210.097448 
L 188.949409 210.872543 
L 187.869147 210.525938 
L 186.343774 209.598194 
L 185.933681 208.178688 
L 186.107338 207.627987 
L 186.412364 206.672744 
L 187.6385 206.621728 
L 188.532471 206.09165 
L 188.565657 205.695932 
L 189.068544 205.440687 
L 189.144049 204.472596 
L 189.748317 204.220673 
L 190.08349 203.421983 
L 190.890171 203.320733 
L 191.07301 203.553568 
L 192.115793 202.849756 
L 193.671393 204.14492 
L 195.150863 203.03201 
L 196.488051 203.271789 
L 198.341381 202.385177 
L 201.165437 203.550747 
L 200.592415 204.757065 
" style="fill:#808080;stroke:#ffffff;"/>
    <path clip-path="url(#pd4c51e0c99)" d="M 181.365425 198.829075 
L 183.375105 199.033496 
L 183.306099 200.196956 
L 184.832472 200.932821 
L 185.13163 199.817671 
L 187.003169 200.103864 
L 187.391107 201.383444 
L 189.411931 201.416188 
L 190.890171 203.320733 
L 190.08349 203.421983 
L 189.748317 204.220673 
L 189.144049 204.472596 
L 189.068544 205.440687 
L 188.565657 205.695932 
L 188.532471 206.09165 
L 187.6385 206.621728 
L 186.412364 206.672744 
L 186.107338 207.627987 
L 184.763921 206.956585 
L 183.486274 207.283809 
L 181.252599 206.172985 
L 180.306003 206.551969 
L 178.856087 208.360005 
L 176.728407 207.124604 
L 175.096903 205.395548 
L 173.665887 204.442053 
L 173.320249 202.685952 
L 172.809736 201.456219 
L 174.723726 200.475245 
L 175.668191 199.389436 
L 177.530491 198.482453 
L 178.146729 197.647984 
L 178.870757 198.086608 
L 180.018049 197.572941 
L 181.365425 198.829075 
" style="fill:#808080;stroke:#ffffff;"/>
    <path clip-path="url(#pd4c51e0c99)" d="M 262.221554 273.080648 
L 263.38909 271.327213 
L 263.81054 269.60163 
L 266.289031 268.089198 
L 266.455959 266.552728 
L 267.383984 265.454116 
L 262.784217 262.757961 
L 268.901237 258.202905 
L 269.340758 257.35493 
L 273.697259 256.783039 
L 279.593992 257.400415 
L 291.855223 260.880633 
L 292.264555 260.705391 
L 298.784244 278.411322 
L 271.687614 289.705713 
L 270.864888 288.881376 
L 270.821383 287.917558 
L 269.246595 286.232899 
L 267.942993 285.726358 
L 265.729224 283.277217 
L 262.67481 280.833242 
L 260.122004 278.718789 
L 258.34567 279.323915 
L 258.330651 276.957682 
L 258.120799 275.512091 
L 258.135107 273.778403 
L 262.221554 273.080648 
" style="fill:#808080;stroke:#ffffff;"/>
    <path clip-path="url(#pd4c51e0c99)" d="M 244.613281 252.966112 
L 244.831561 251.849596 
L 247.209892 251.158342 
L 249.839232 248.99078 
L 248.117003 251.422706 
L 248.564814 252.095715 
L 248.17355 252.069213 
L 247.628866 252.575142 
L 247.112969 252.649011 
L 246.99055 252.855092 
L 246.81464 252.470252 
L 246.510505 252.299407 
L 245.864374 252.45745 
L 245.061186 253.078702 
L 244.385756 253.059797 
L 244.613281 252.966112 
" style="fill:#808080;stroke:#ffffff;"/>
    <path clip-path="url(#pd4c51e0c99)" d="M 245.061186 253.078702 
L 245.864374 252.45745 
L 246.510505 252.299407 
L 246.81464 252.470252 
L 246.99055 252.855092 
L 247.112969 252.649011 
L 247.628866 252.575142 
L 248.17355 252.069213 
L 248.564814 252.095715 
L 248.757295 252.384538 
L 245.81017 255.090021 
L 244.046222 255.066391 
L 242.853746 253.683852 
L 244.385756 253.059797 
L 245.061186 253.078702 
" style="fill:#808080;stroke:#ffffff;"/>
    <path clip-path="url(#pd4c51e0c99)" d="M 125.722006 264.000174 
L 125.598114 266.525545 
L 126.252681 271.032056 
L 127.076752 272.037852 
L 126.229611 273.534131 
L 121.482877 273.503102 
L 119.659337 274.745021 
L 117.543063 274.743823 
L 116.94253 277.732657 
L 112.482265 278.565547 
L 110.772156 280.329889 
L 107.62278 280.819571 
L 103.893965 280.661258 
L 97.470217 282.283255 
L 96.572165 287.061742 
L 96.011297 286.926009 
L 95.67889 289.100626 
L 93.364905 288.666139 
L 91.988745 289.277826 
L 90.30811 288.844364 
L 89.080481 287.971642 
L 85.888421 287.55864 
L 84.0006 290.337475 
L 82.777282 290.301372 
L 79.90189 294.821965 
L 78.927986 295.25887 
L 70.215756 292.557814 
L 71.560121 290.837535 
L 72.175861 288.75243 
L 74.114627 286.724371 
L 76.908696 286.043479 
L 80.202507 282.681341 
L 80.282374 282.645601 
L 82.46817 281.657101 
L 85.93646 282.190777 
L 89.398735 280.242982 
L 91.439577 279.660204 
L 95.151647 277.082222 
L 95.33257 271.837851 
L 97.411819 268.708603 
L 98.334682 266.699375 
L 101.135989 264.521671 
L 104.964246 263.495116 
L 107.835319 262.394147 
L 110.905744 258.674759 
L 112.428992 256.394628 
L 114.900235 256.923008 
L 116.639828 259.058025 
L 119.91325 259.373887 
L 123.305709 260.885584 
L 124.784237 261.170108 
L 125.722006 264.000174 
" style="fill:#808080;stroke:#ffffff;"/>
    <path clip-path="url(#pd4c51e0c99)" d="M 224.641198 297.968709 
L 222.428947 283.591624 
L 220.821701 280.531969 
L 221.354068 277.845758 
L 220.519425 276.21424 
L 221.49368 274.01171 
L 226.204686 272.97203 
L 229.812217 273.289453 
L 233.564119 273.660004 
L 235.333117 273.888076 
L 237.78498 271.920992 
L 238.979394 270.387104 
L 241.987491 269.219801 
L 244.585075 269.028377 
L 246.012758 270.74592 
L 246.506352 269.1974 
L 249.532295 269.308064 
L 252.300733 268.691636 
L 253.73902 267.138933 
L 253.739036 267.138917 
L 257.236904 272.321571 
L 257.863023 273.24087 
L 257.297324 275.168049 
L 257.31579 278.425958 
L 256.869352 280.812654 
L 256.20342 281.774139 
L 254.682106 280.863202 
L 252.621406 279.580514 
L 248.686264 274.609682 
L 248.409357 275.080319 
L 250.900894 278.866037 
L 254.083581 282.21249 
L 258.354491 287.560586 
L 260.245031 289.289979 
L 261.98702 291.149728 
L 263.719367 292.444108 
L 225.287862 302.327609 
L 224.641198 297.968709 
" style="fill:#808080;stroke:#ffffff;"/>
    <path clip-path="url(#pd4c51e0c99)" d="M 166.591531 306.433365 
L 166.44612 304.693086 
L 164.163646 301.718432 
L 165.702241 300.026433 
L 165.376184 297.462589 
L 165.867373 295.231218 
L 165.598936 293.368052 
L 166.269492 290.033573 
L 166.069726 288.130571 
L 164.884231 284.505413 
L 166.683625 283.560499 
L 167.000896 281.825491 
L 166.61267 280.123256 
L 169.101744 278.529302 
L 170.203835 277.199794 
L 171.944574 275.991335 
L 172.096152 272.823122 
L 176.319343 274.130005 
L 177.808496 273.720334 
L 180.820029 274.273486 
L 185.668183 275.832775 
L 187.576324 279.365523 
L 190.890017 279.905098 
L 196.156376 281.140794 
L 200.235174 282.749348 
L 201.912088 281.476428 
L 203.457311 279.377103 
L 202.279764 276.350101 
L 203.186037 274.213846 
L 205.526897 271.947385 
L 207.893045 271.036054 
L 212.782344 271.116476 
L 214.251543 272.73776 
L 215.574171 272.525287 
L 216.808204 273.019337 
L 220.407721 272.837257 
L 221.49368 274.01171 
L 220.519425 276.21424 
L 221.354068 277.845758 
L 220.821701 280.531969 
L 222.428947 283.591624 
L 224.641198 297.968709 
L 225.287862 302.327609 
L 167.434058 307.8 
L 166.591531 306.433365 
" style="fill:#ffa500;stroke:#ffffff;"/>
    <path clip-path="url(#pd4c51e0c99)" d="M 190.37894 230.615869 
L 189.06408 228.994018 
L 187.824404 228.182987 
L 186.303918 226.752374 
L 185.548613 225.516959 
L 183.937872 223.68589 
L 184.428788 221.90661 
L 185.565071 222.776377 
L 186.134998 221.856344 
L 187.505 221.638514 
L 190.107104 222.076108 
L 192.141321 221.792949 
L 193.580418 222.55506 
L 193.580406 222.55508 
L 194.65109 222.410829 
L 194.123242 224.330677 
L 195.754266 225.746095 
L 195.550465 227.754308 
L 194.85969 228.027248 
L 194.337016 228.475586 
L 193.456062 229.558054 
L 193.254144 231.89389 
L 190.37894 230.615869 
" style="fill:#808080;stroke:#ffffff;"/>
    <path clip-path="url(#pd4c51e0c99)" d="M 206.92008 232.675992 
L 207.575908 235.364766 
L 207.003815 235.603917 
L 206.602554 236.409913 
L 204.894989 236.609491 
L 203.830447 237.70148 
L 201.821694 238.378965 
L 200.382282 237.560455 
L 199.707663 235.848714 
L 199.920329 234.384725 
L 199.920323 234.384706 
L 200.319316 234.362874 
L 200.345601 233.495652 
L 202.080921 232.584754 
L 202.747936 232.319896 
L 203.759577 231.913489 
L 205.172108 231.612723 
L 206.92008 232.675992 
" style="fill:#808080;stroke:#ffffff;"/>
    <path clip-path="url(#pd4c51e0c99)" d="M 192.565811 218.257751 
L 194.652715 216.888612 
L 196.476427 216.830655 
L 198.265554 218.237894 
L 198.776069 219.509502 
L 200.696121 220.214609 
L 201.179058 221.885602 
L 203.08274 222.81165 
L 203.863292 221.730734 
L 204.673005 222.121393 
L 204.10082 222.935591 
L 204.75892 223.563579 
L 204.174848 224.625381 
L 204.681482 226.089495 
L 206.429929 227.620448 
L 205.483637 229.110091 
L 205.177426 230.510278 
L 205.585504 230.945757 
L 205.172108 231.612723 
L 203.759577 231.913489 
L 202.747936 232.319896 
L 202.600828 232.025619 
L 202.896997 231.47661 
L 203.092894 230.416085 
L 202.66238 230.507162 
L 201.958642 229.832406 
L 201.429942 229.714236 
L 200.939407 229.115799 
L 200.335961 228.942383 
L 199.825171 228.421105 
L 199.312078 228.7287 
L 199.073471 230.163689 
L 198.381357 230.563402 
L 198.58677 230.173356 
L 197.315181 229.471483 
L 196.260559 229.156006 
L 195.747738 228.638288 
L 194.85969 228.027248 
L 195.550465 227.754308 
L 195.754266 225.746095 
L 194.123242 224.330677 
L 194.65109 222.410829 
L 193.580406 222.55508 
L 193.580418 222.55506 
L 194.530709 220.850923 
L 193.459475 219.782669 
L 192.565775 218.257778 
L 192.565811 218.257751 
" style="fill:#808080;stroke:#ffffff;"/>
    <path clip-path="url(#pd4c51e0c99)" d="M 197.144984 232.046914 
L 196.854724 231.292484 
L 195.760669 233.504526 
L 196.121973 234.797677 
L 195.434276 234.556967 
L 194.413687 233.307457 
L 192.990043 232.638159 
L 193.254144 231.89389 
L 193.456062 229.558054 
L 194.337016 228.475586 
L 194.85969 228.027248 
L 195.747738 228.638288 
L 196.260559 229.156006 
L 197.315181 229.471483 
L 198.58677 230.173356 
L 198.381357 230.563402 
L 197.926605 231.570012 
L 197.144984 232.046914 
" style="fill:#808080;stroke:#ffffff;"/>
    <path clip-path="url(#pd4c51e0c99)" d="M 199.515666 232.91377 
L 198.722991 232.592501 
L 197.926605 231.570012 
L 198.381357 230.563402 
L 199.073471 230.163689 
L 199.312078 228.7287 
L 199.825171 228.421105 
L 200.335961 228.942383 
L 200.939407 229.115799 
L 201.429942 229.714236 
L 201.958642 229.832406 
L 202.66238 230.507162 
L 203.092894 230.416085 
L 202.896997 231.47661 
L 202.600828 232.025619 
L 202.747936 232.319896 
L 202.080921 232.584754 
L 200.345601 233.495652 
L 200.319316 234.362874 
L 199.920323 234.384706 
L 199.515666 232.91377 
" style="fill:#808080;stroke:#ffffff;"/>
   </g>
   <g id="matplotlib.axis_1">
    <g id="xtick_1">
     <g id="line2d_1">
      <defs>
       <path d="M 0 0 
L 0 3.5 
" id="m87a15377d5" style="stroke:#000000;stroke-width:0.8;"/>
      </defs>
      <g>
       <use style="stroke:#000000;stroke-width:0.8;" x="79.363561" xlink:href="#m87a15377d5" y="320.4"/>
      </g>
     </g>
     <g id="text_1">
      <!-- 2 -->
      <g transform="translate(76.182311 334.998438)scale(0.1 -0.1)">
       <defs>
        <path d="M 1228 531 
L 3431 531 
L 3431 0 
L 469 0 
L 469 531 
Q 828 903 1448 1529 
Q 2069 2156 2228 2338 
Q 2531 2678 2651 2914 
Q 2772 3150 2772 3378 
Q 2772 3750 2511 3984 
Q 2250 4219 1831 4219 
Q 1534 4219 1204 4116 
Q 875 4013 500 3803 
L 500 4441 
Q 881 4594 1212 4672 
Q 1544 4750 1819 4750 
Q 2544 4750 2975 4387 
Q 3406 4025 3406 3419 
Q 3406 3131 3298 2873 
Q 3191 2616 2906 2266 
Q 2828 2175 2409 1742 
Q 1991 1309 1228 531 
z
" id="DejaVuSans-32" transform="scale(0.015625)"/>
       </defs>
       <use xlink:href="#DejaVuSans-32"/>
      </g>
     </g>
    </g>
    <g id="xtick_2">
     <g id="line2d_2">
      <g>
       <use style="stroke:#000000;stroke-width:0.8;" x="117.03281" xlink:href="#m87a15377d5" y="320.4"/>
      </g>
     </g>
     <g id="text_2">
      <!-- 3 -->
      <g transform="translate(113.85156 334.998438)scale(0.1 -0.1)">
       <defs>
        <path d="M 2597 2516 
Q 3050 2419 3304 2112 
Q 3559 1806 3559 1356 
Q 3559 666 3084 287 
Q 2609 -91 1734 -91 
Q 1441 -91 1130 -33 
Q 819 25 488 141 
L 488 750 
Q 750 597 1062 519 
Q 1375 441 1716 441 
Q 2309 441 2620 675 
Q 2931 909 2931 1356 
Q 2931 1769 2642 2001 
Q 2353 2234 1838 2234 
L 1294 2234 
L 1294 2753 
L 1863 2753 
Q 2328 2753 2575 2939 
Q 2822 3125 2822 3475 
Q 2822 3834 2567 4026 
Q 2313 4219 1838 4219 
Q 1578 4219 1281 4162 
Q 984 4106 628 3988 
L 628 4550 
Q 988 4650 1302 4700 
Q 1616 4750 1894 4750 
Q 2613 4750 3031 4423 
Q 3450 4097 3450 3541 
Q 3450 3153 3228 2886 
Q 3006 2619 2597 2516 
z
" id="DejaVuSans-33" transform="scale(0.015625)"/>
       </defs>
       <use xlink:href="#DejaVuSans-33"/>
      </g>
     </g>
    </g>
    <g id="xtick_3">
     <g id="line2d_3">
      <g>
       <use style="stroke:#000000;stroke-width:0.8;" x="154.702058" xlink:href="#m87a15377d5" y="320.4"/>
      </g>
     </g>
     <g id="text_3">
      <!-- 4 -->
      <g transform="translate(151.520808 334.998438)scale(0.1 -0.1)">
       <defs>
        <path d="M 2419 4116 
L 825 1625 
L 2419 1625 
L 2419 4116 
z
M 2253 4666 
L 3047 4666 
L 3047 1625 
L 3713 1625 
L 3713 1100 
L 3047 1100 
L 3047 0 
L 2419 0 
L 2419 1100 
L 313 1100 
L 313 1709 
L 2253 4666 
z
" id="DejaVuSans-34" transform="scale(0.015625)"/>
       </defs>
       <use xlink:href="#DejaVuSans-34"/>
      </g>
     </g>
    </g>
    <g id="xtick_4">
     <g id="line2d_4">
      <g>
       <use style="stroke:#000000;stroke-width:0.8;" x="192.371307" xlink:href="#m87a15377d5" y="320.4"/>
      </g>
     </g>
     <g id="text_4">
      <!-- 5 -->
      <g transform="translate(189.190057 334.998438)scale(0.1 -0.1)">
       <defs>
        <path d="M 691 4666 
L 3169 4666 
L 3169 4134 
L 1269 4134 
L 1269 2991 
Q 1406 3038 1543 3061 
Q 1681 3084 1819 3084 
Q 2600 3084 3056 2656 
Q 3513 2228 3513 1497 
Q 3513 744 3044 326 
Q 2575 -91 1722 -91 
Q 1428 -91 1123 -41 
Q 819 9 494 109 
L 494 744 
Q 775 591 1075 516 
Q 1375 441 1709 441 
Q 2250 441 2565 725 
Q 2881 1009 2881 1497 
Q 2881 1984 2565 2268 
Q 2250 2553 1709 2553 
Q 1456 2553 1204 2497 
Q 953 2441 691 2322 
L 691 4666 
z
" id="DejaVuSans-35" transform="scale(0.015625)"/>
       </defs>
       <use xlink:href="#DejaVuSans-35"/>
      </g>
     </g>
    </g>
    <g id="xtick_5">
     <g id="line2d_5">
      <g>
       <use style="stroke:#000000;stroke-width:0.8;" x="230.040556" xlink:href="#m87a15377d5" y="320.4"/>
      </g>
     </g>
     <g id="text_5">
      <!-- 6 -->
      <g transform="translate(226.859306 334.998438)scale(0.1 -0.1)">
       <defs>
        <path d="M 2113 2584 
Q 1688 2584 1439 2293 
Q 1191 2003 1191 1497 
Q 1191 994 1439 701 
Q 1688 409 2113 409 
Q 2538 409 2786 701 
Q 3034 994 3034 1497 
Q 3034 2003 2786 2293 
Q 2538 2584 2113 2584 
z
M 3366 4563 
L 3366 3988 
Q 3128 4100 2886 4159 
Q 2644 4219 2406 4219 
Q 1781 4219 1451 3797 
Q 1122 3375 1075 2522 
Q 1259 2794 1537 2939 
Q 1816 3084 2150 3084 
Q 2853 3084 3261 2657 
Q 3669 2231 3669 1497 
Q 3669 778 3244 343 
Q 2819 -91 2113 -91 
Q 1303 -91 875 529 
Q 447 1150 447 2328 
Q 447 3434 972 4092 
Q 1497 4750 2381 4750 
Q 2619 4750 2861 4703 
Q 3103 4656 3366 4563 
z
" id="DejaVuSans-36" transform="scale(0.015625)"/>
       </defs>
       <use xlink:href="#DejaVuSans-36"/>
      </g>
     </g>
    </g>
    <g id="xtick_6">
     <g id="line2d_6">
      <g>
       <use style="stroke:#000000;stroke-width:0.8;" x="267.709805" xlink:href="#m87a15377d5" y="320.4"/>
      </g>
     </g>
     <g id="text_6">
      <!-- 7 -->
      <g transform="translate(264.528555 334.998438)scale(0.1 -0.1)">
       <defs>
        <path d="M 525 4666 
L 3525 4666 
L 3525 4397 
L 1831 0 
L 1172 0 
L 2766 4134 
L 525 4134 
L 525 4666 
z
" id="DejaVuSans-37" transform="scale(0.015625)"/>
       </defs>
       <use xlink:href="#DejaVuSans-37"/>
      </g>
     </g>
    </g>
    <g id="xtick_7">
     <g id="line2d_7">
      <g>
       <use style="stroke:#000000;stroke-width:0.8;" x="305.379054" xlink:href="#m87a15377d5" y="320.4"/>
      </g>
     </g>
     <g id="text_7">
      <!-- 8 -->
      <g transform="translate(302.197804 334.998438)scale(0.1 -0.1)">
       <defs>
        <path d="M 2034 2216 
Q 1584 2216 1326 1975 
Q 1069 1734 1069 1313 
Q 1069 891 1326 650 
Q 1584 409 2034 409 
Q 2484 409 2743 651 
Q 3003 894 3003 1313 
Q 3003 1734 2745 1975 
Q 2488 2216 2034 2216 
z
M 1403 2484 
Q 997 2584 770 2862 
Q 544 3141 544 3541 
Q 544 4100 942 4425 
Q 1341 4750 2034 4750 
Q 2731 4750 3128 4425 
Q 3525 4100 3525 3541 
Q 3525 3141 3298 2862 
Q 3072 2584 2669 2484 
Q 3125 2378 3379 2068 
Q 3634 1759 3634 1313 
Q 3634 634 3220 271 
Q 2806 -91 2034 -91 
Q 1263 -91 848 271 
Q 434 634 434 1313 
Q 434 1759 690 2068 
Q 947 2378 1403 2484 
z
M 1172 3481 
Q 1172 3119 1398 2916 
Q 1625 2713 2034 2713 
Q 2441 2713 2670 2916 
Q 2900 3119 2900 3481 
Q 2900 3844 2670 4047 
Q 2441 4250 2034 4250 
Q 1625 4250 1398 4047 
Q 1172 3844 1172 3481 
z
" id="DejaVuSans-38" transform="scale(0.015625)"/>
       </defs>
       <use xlink:href="#DejaVuSans-38"/>
      </g>
     </g>
    </g>
    <g id="text_8">
     <!-- 1e6 -->
     <g transform="translate(291.334544 347.676562)scale(0.1 -0.1)">
      <defs>
       <path d="M 794 531 
L 1825 531 
L 1825 4091 
L 703 3866 
L 703 4441 
L 1819 4666 
L 2450 4666 
L 2450 531 
L 3481 531 
L 3481 0 
L 794 0 
L 794 531 
z
" id="DejaVuSans-31" transform="scale(0.015625)"/>
       <path d="M 3597 1894 
L 3597 1613 
L 953 1613 
Q 991 1019 1311 708 
Q 1631 397 2203 397 
Q 2534 397 2845 478 
Q 3156 559 3463 722 
L 3463 178 
Q 3153 47 2828 -22 
Q 2503 -91 2169 -91 
Q 1331 -91 842 396 
Q 353 884 353 1716 
Q 353 2575 817 3079 
Q 1281 3584 2069 3584 
Q 2775 3584 3186 3129 
Q 3597 2675 3597 1894 
z
M 3022 2063 
Q 3016 2534 2758 2815 
Q 2500 3097 2075 3097 
Q 1594 3097 1305 2825 
Q 1016 2553 972 2059 
L 3022 2063 
z
" id="DejaVuSans-65" transform="scale(0.015625)"/>
      </defs>
      <use xlink:href="#DejaVuSans-31"/>
      <use x="63.623047" xlink:href="#DejaVuSans-65"/>
      <use x="125.146484" xlink:href="#DejaVuSans-36"/>
     </g>
    </g>
   </g>
   <g id="matplotlib.axis_2">
    <g id="ytick_1">
     <g id="line2d_8">
      <defs>
       <path d="M 0 0 
L -3.5 0 
" id="m1181e96c70" style="stroke:#000000;stroke-width:0.8;"/>
      </defs>
      <g>
       <use style="stroke:#000000;stroke-width:0.8;" x="58.787331" xlink:href="#m1181e96c70" y="315.201245"/>
      </g>
     </g>
     <g id="text_9">
      <!-- 0 -->
      <g transform="translate(45.424831 319.000464)scale(0.1 -0.1)">
       <defs>
        <path d="M 2034 4250 
Q 1547 4250 1301 3770 
Q 1056 3291 1056 2328 
Q 1056 1369 1301 889 
Q 1547 409 2034 409 
Q 2525 409 2770 889 
Q 3016 1369 3016 2328 
Q 3016 3291 2770 3770 
Q 2525 4250 2034 4250 
z
M 2034 4750 
Q 2819 4750 3233 4129 
Q 3647 3509 3647 2328 
Q 3647 1150 3233 529 
Q 2819 -91 2034 -91 
Q 1250 -91 836 529 
Q 422 1150 422 2328 
Q 422 3509 836 4129 
Q 1250 4750 2034 4750 
z
" id="DejaVuSans-30" transform="scale(0.015625)"/>
       </defs>
       <use xlink:href="#DejaVuSans-30"/>
      </g>
     </g>
    </g>
    <g id="ytick_2">
     <g id="line2d_9">
      <g>
       <use style="stroke:#000000;stroke-width:0.8;" x="58.787331" xlink:href="#m1181e96c70" y="277.531996"/>
      </g>
     </g>
     <g id="text_10">
      <!-- 1 -->
      <g transform="translate(45.424831 281.331215)scale(0.1 -0.1)">
       <use xlink:href="#DejaVuSans-31"/>
      </g>
     </g>
    </g>
    <g id="ytick_3">
     <g id="line2d_10">
      <g>
       <use style="stroke:#000000;stroke-width:0.8;" x="58.787331" xlink:href="#m1181e96c70" y="239.862748"/>
      </g>
     </g>
     <g id="text_11">
      <!-- 2 -->
      <g transform="translate(45.424831 243.661966)scale(0.1 -0.1)">
       <use xlink:href="#DejaVuSans-32"/>
      </g>
     </g>
    </g>
    <g id="ytick_4">
     <g id="line2d_11">
      <g>
       <use style="stroke:#000000;stroke-width:0.8;" x="58.787331" xlink:href="#m1181e96c70" y="202.193499"/>
      </g>
     </g>
     <g id="text_12">
      <!-- 3 -->
      <g transform="translate(45.424831 205.992717)scale(0.1 -0.1)">
       <use xlink:href="#DejaVuSans-33"/>
      </g>
     </g>
    </g>
    <g id="ytick_5">
     <g id="line2d_12">
      <g>
       <use style="stroke:#000000;stroke-width:0.8;" x="58.787331" xlink:href="#m1181e96c70" y="164.52425"/>
      </g>
     </g>
     <g id="text_13">
      <!-- 4 -->
      <g transform="translate(45.424831 168.323469)scale(0.1 -0.1)">
       <use xlink:href="#DejaVuSans-34"/>
      </g>
     </g>
    </g>
    <g id="ytick_6">
     <g id="line2d_13">
      <g>
       <use style="stroke:#000000;stroke-width:0.8;" x="58.787331" xlink:href="#m1181e96c70" y="126.855001"/>
      </g>
     </g>
     <g id="text_14">
      <!-- 5 -->
      <g transform="translate(45.424831 130.65422)scale(0.1 -0.1)">
       <use xlink:href="#DejaVuSans-35"/>
      </g>
     </g>
    </g>
    <g id="ytick_7">
     <g id="line2d_14">
      <g>
       <use style="stroke:#000000;stroke-width:0.8;" x="58.787331" xlink:href="#m1181e96c70" y="89.185752"/>
      </g>
     </g>
     <g id="text_15">
      <!-- 6 -->
      <g transform="translate(45.424831 92.984971)scale(0.1 -0.1)">
       <use xlink:href="#DejaVuSans-36"/>
      </g>
     </g>
    </g>
    <g id="ytick_8">
     <g id="line2d_15">
      <g>
       <use style="stroke:#000000;stroke-width:0.8;" x="58.787331" xlink:href="#m1181e96c70" y="51.516503"/>
      </g>
     </g>
     <g id="text_16">
      <!-- 7 -->
      <g transform="translate(45.424831 55.315722)scale(0.1 -0.1)">
       <use xlink:href="#DejaVuSans-37"/>
      </g>
     </g>
    </g>
    <g id="text_17">
     <!-- 1e6 -->
     <g transform="translate(58.787331 40.2)scale(0.1 -0.1)">
      <use xlink:href="#DejaVuSans-31"/>
      <use x="63.623047" xlink:href="#DejaVuSans-65"/>
      <use x="125.146484" xlink:href="#DejaVuSans-36"/>
     </g>
    </g>
   </g>
   <g id="patch_3">
    <path d="M 58.787331 320.4 
L 58.787331 43.2 
" style="fill:none;stroke:#000000;stroke-linecap:square;stroke-linejoin:miter;stroke-width:0.8;"/>
   </g>
   <g id="patch_4">
    <path d="M 310.212669 320.4 
L 310.212669 43.2 
" style="fill:none;stroke:#000000;stroke-linecap:square;stroke-linejoin:miter;stroke-width:0.8;"/>
   </g>
   <g id="patch_5">
    <path d="M 58.787331 320.4 
L 310.212669 320.4 
" style="fill:none;stroke:#000000;stroke-linecap:square;stroke-linejoin:miter;stroke-width:0.8;"/>
   </g>
   <g id="patch_6">
    <path d="M 58.787331 43.2 
L 310.212669 43.2 
" style="fill:none;stroke:#000000;stroke-linecap:square;stroke-linejoin:miter;stroke-width:0.8;"/>
   </g>
  </g>
 </g>
 <defs>
  <clipPath id="pd4c51e0c99">
   <rect height="277.2" width="251.425337" x="58.787331" y="43.2"/>
  </clipPath>
 </defs>
</svg>
