<?xml version="1.0" encoding="utf-8" standalone="no"?>
<!DOCTYPE svg PUBLIC "-//W3C//DTD SVG 1.1//EN"
  "http://www.w3.org/Graphics/SVG/1.1/DTD/svg11.dtd">
<svg height="360pt" version="1.1" viewBox="0 0 360 360" width="360pt" xmlns="http://www.w3.org/2000/svg" xmlns:xlink="http://www.w3.org/1999/xlink">
 <metadata>
  <rdf:RDF xmlns:cc="http://creativecommons.org/ns#" xmlns:dc="http://purl.org/dc/elements/1.1/" xmlns:rdf="http://www.w3.org/1999/02/22-rdf-syntax-ns#">
   <cc:Work>
    <dc:type rdf:resource="http://purl.org/dc/dcmitype/StillImage"/>
    <dc:date>2021-11-27T05:10:19.719951</dc:date>
    <dc:format>image/svg+xml</dc:format>
    <dc:creator>
     <cc:Agent>
      <dc:title>Matplotlib v3.4.3, https://matplotlib.org/</dc:title>
     </cc:Agent>
    </dc:creator>
   </cc:Work>
  </rdf:RDF>
 </metadata>
 <defs>
  <style type="text/css">*{stroke-linecap:butt;stroke-linejoin:round;}</style>
 </defs>
 <g id="figure_1">
  <g id="patch_1">
   <path d="M 0 360 
L 360 360 
L 360 0 
L 0 0 
z
" style="fill:#ffffff;"/>
  </g>
  <g id="axes_1">
   <g id="patch_2">
    <path d="M 45 290.651306 
L 324 290.651306 
L 324 72.948694 
L 45 72.948694 
z
" style="fill:#ffffff;"/>
   </g>
   <g id="PatchCollection_1">
    <path clip-path="url(#p9b1e02d949)" d="M 309.190238 249.368644 
L 310.11303 244.016268 
L 304.571728 244.056227 
L 304.07424 251.549307 
L 300.697433 261.511898 
L 298.651251 267.530077 
L 299.063592 272.449204 
L 303.162504 272.663081 
L 305.715951 278.881174 
L 306.075235 280.755732 
L 296.87046 280.755732 
L 294.541978 278.287424 
L 293.905445 280.755732 
L 293.024888 280.755732 
L 292.315963 278.507462 
L 293.002692 274.256859 
L 294.874109 267.73513 
L 297.923527 260.733934 
L 301.379439 254.382517 
L 298.919406 248.168866 
L 299.017977 245.003783 
L 298.299016 241.20053 
L 294.102109 235.787129 
L 292.599748 232.369039 
L 294.772724 231.110005 
L 297.075845 225.18704 
L 294.498407 220.690127 
L 290.504745 215.715575 
L 287.445132 209.729445 
L 290.099703 208.491952 
L 292.96855 201.126494 
L 297.410501 200.821433 
L 301.082808 197.867293 
L 304.686183 196.291823 
L 307.410011 198.394328 
L 307.771259 202.488088 
L 311.318182 202.748159 
L 311.318182 206.067345 
L 310.474603 209.978176 
L 310.623199 216.08537 
L 311.318182 215.65945 
L 311.318182 249.318393 
L 309.190238 249.368644 
" style="fill:#808080;stroke:#ffffff;"/>
    <path clip-path="url(#p9b1e02d949)" d="M 310.623199 216.08537 
L 310.474603 209.978176 
L 311.318182 206.067345 
L 311.318182 215.65945 
L 310.623199 216.08537 
" style="fill:#808080;stroke:#ffffff;"/>
    <path clip-path="url(#p9b1e02d949)" d="M 307.771259 202.488088 
L 307.410011 198.394328 
L 304.686183 196.291823 
L 306.027125 193.782863 
L 311.318182 189.403584 
L 311.318182 202.748159 
L 307.771259 202.488088 
" style="fill:#808080;stroke:#ffffff;"/>
    <path clip-path="url(#p9b1e02d949)" d="M 301.082808 197.867293 
L 297.410501 200.821433 
L 292.96855 201.126494 
L 290.099703 208.491952 
L 287.445132 209.729445 
L 290.504745 215.715575 
L 294.498407 220.690127 
L 297.075845 225.18704 
L 294.772724 231.110005 
L 292.599748 232.369039 
L 294.102109 235.787129 
L 298.299016 241.20053 
L 299.017977 245.003783 
L 298.919406 248.168866 
L 301.379439 254.382517 
L 297.923527 260.733934 
L 294.874109 267.73513 
L 294.267665 262.677586 
L 296.201975 257.458458 
L 294.086296 253.427044 
L 294.597583 246.004709 
L 292.042887 242.474826 
L 289.992301 234.320449 
L 288.855528 225.713285 
L 286.133713 220.070669 
L 281.988057 223.487454 
L 274.836591 228.344245 
L 271.306585 227.737373 
L 267.40749 226.139717 
L 269.57666 217.695934 
L 268.247295 211.309493 
L 263.315335 203.454494 
L 264.084653 200.998696 
L 260.403892 200.12541 
L 255.957033 194.57453 
L 255.546089 189.092519 
L 257.742434 190.124355 
L 257.85207 185.232017 
L 260.956656 183.615883 
L 260.290737 180.722826 
L 261.712968 178.402747 
L 261.957485 171.352207 
L 266.875138 172.904265 
L 269.680906 167.28714 
L 269.999233 163.967561 
L 273.471895 158.252914 
L 273.280704 154.354196 
L 281.426502 149.646443 
L 285.923079 150.878302 
L 285.407057 146.686494 
L 287.612912 145.436503 
L 287.138185 142.854139 
L 290.818296 142.347524 
L 292.921403 146.358373 
L 295.667667 147.982605 
L 295.852681 153.196269 
L 295.599384 158.815683 
L 289.639282 164.504805 
L 288.884921 172.586355 
L 295.52655 171.45624 
L 297.027143 177.727847 
L 301.011599 179.04737 
L 299.179998 184.706919 
L 303.852484 187.264286 
L 306.577288 188.518502 
L 311.192547 186.534993 
L 311.318182 188.411282 
L 311.318182 189.403584 
L 306.027125 193.782863 
L 304.686183 196.291823 
L 301.082808 197.867293 
" style="fill:#808080;stroke:#ffffff;"/>
    <path clip-path="url(#p9b1e02d949)" d="M 287.612912 145.436503 
L 285.407057 146.686494 
L 285.923079 150.878302 
L 281.426502 149.646443 
L 273.280704 154.354196 
L 273.471895 158.252914 
L 269.999233 163.967561 
L 269.680906 167.28714 
L 266.875138 172.904265 
L 261.957485 171.352207 
L 261.712968 178.402747 
L 260.290737 180.722826 
L 260.956656 183.615883 
L 257.85207 185.232017 
L 254.55714 174.430139 
L 252.81962 174.45158 
L 251.790938 178.805839 
L 248.345563 175.274671 
L 250.288687 171.397155 
L 253.103915 171.003579 
L 256.005764 165.237655 
L 252.377256 164.074271 
L 246.541284 164.175194 
L 240.553464 163.240623 
L 239.998455 158.503061 
L 236.994293 158.166929 
L 232.010059 155.222645 
L 229.786916 159.845202 
L 234.32887 163.452104 
L 230.394589 165.990776 
L 228.997822 168.47369 
L 232.871205 170.299348 
L 231.800257 174.404871 
L 233.980932 179.528515 
L 234.960325 185.138894 
L 234.059166 187.626562 
L 229.778289 187.540757 
L 222.005616 188.9496 
L 222.367189 194.074545 
L 219.008332 198.105462 
L 209.953398 202.690875 
L 202.910853 210.706589 
L 198.18049 215.004016 
L 191.910839 219.463567 
L 191.901085 222.597257 
L 188.764308 224.276234 
L 183.096846 226.716894 
L 180.157765 227.076523 
L 178.271212 232.273113 
L 179.581264 241.134124 
L 179.914874 246.7854 
L 177.248598 253.257857 
L 177.219984 264.832375 
L 173.963876 265.162256 
L 171.099905 270.358493 
L 173.015072 272.603935 
L 167.278026 274.535339 
L 165.158987 279.168632 
L 163.112595 280.755732 
L 162.286614 280.755732 
L 156.676003 274.765411 
L 153.763259 265.225098 
L 151.349629 258.353581 
L 149.145074 255.131171 
L 145.802149 248.58619 
L 144.241077 240.065797 
L 143.153431 235.810265 
L 137.429717 226.453376 
L 134.822945 213.250754 
L 132.941594 204.532679 
L 132.96403 196.280557 
L 131.743721 189.90034 
L 122.587014 193.978257 
L 118.152217 193.161476 
L 109.932608 184.904601 
L 112.957856 182.441937 
L 111.099592 179.768566 
L 103.71921 173.985971 
L 107.90949 169.440694 
L 121.756242 169.458473 
L 120.506994 163.609163 
L 116.971902 160.154217 
L 116.254934 154.910804 
L 112.136513 151.851222 
L 119.071107 144.70985 
L 126.377353 145.227731 
L 132.959478 138.085127 
L 136.903941 131.171362 
L 143.011989 124.335403 
L 142.914767 119.47908 
L 148.28016 115.538114 
L 143.20188 112.174 
L 141.016834 107.564647 
L 138.787242 101.595109 
L 141.871993 98.657516 
L 151.416286 100.319594 
L 158.429892 99.307068 
L 164.5064 93.581155 
L 171.269311 101.56624 
L 170.632657 107.123692 
L 173.135704 110.610499 
L 172.929556 114.089209 
L 168.413795 113.173676 
L 170.178414 120.683127 
L 176.360272 124.996925 
L 185.105658 129.760656 
L 181.113072 132.851043 
L 178.669853 139.223691 
L 184.765545 141.801478 
L 190.697684 145.143941 
L 198.904286 148.965734 
L 207.529363 149.848701 
L 211.158425 153.314385 
L 216.019827 153.963057 
L 223.589774 155.551026 
L 228.845885 155.439999 
L 229.550527 152.740703 
L 228.72203 148.411766 
L 229.208463 145.477342 
L 233.045949 144.044455 
L 233.574002 149.409858 
L 233.708617 150.774797 
L 239.427453 153.360681 
L 243.383622 152.295698 
L 248.695689 152.752673 
L 253.829896 152.55059 
L 254.271782 148.36547 
L 251.710531 146.191321 
L 256.78491 145.338806 
L 262.512201 140.271775 
L 269.764796 135.933333 
L 275.042722 137.607381 
L 279.528244 134.738616 
L 282.478705 138.97496 
L 280.353488 141.83598 
L 287.138185 142.854139 
L 287.612912 145.436503 
" style="fill:#ff0000;stroke:#ffffff;"/>
    <path clip-path="url(#p9b1e02d949)" d="M 257.742434 190.124355 
L 255.546089 189.092519 
L 255.957033 194.57453 
L 254.159422 191.022637 
L 253.79657 187.552101 
L 252.59894 184.272378 
L 249.969814 180.306404 
L 244.173535 180.033774 
L 244.745827 182.842396 
L 242.769871 186.633473 
L 240.092236 185.251829 
L 239.177114 186.492045 
L 237.395055 185.74893 
L 234.960325 185.138894 
L 233.980932 179.528515 
L 231.800257 174.404871 
L 232.871205 170.299348 
L 228.997822 168.47369 
L 230.394589 165.990776 
L 234.32887 163.452104 
L 229.786916 159.845202 
L 232.010059 155.222645 
L 236.994293 158.166929 
L 239.998455 158.503061 
L 240.553464 163.240623 
L 246.541284 164.175194 
L 252.377256 164.074271 
L 256.005764 165.237655 
L 253.103915 171.003579 
L 250.288687 171.397155 
L 248.345563 175.274671 
L 251.790938 178.805839 
L 252.81962 174.45158 
L 254.55714 174.430139 
L 257.85207 185.232017 
L 257.742434 190.124355 
" style="fill:#ff0000;stroke:#ffffff;"/>
    <path clip-path="url(#p9b1e02d949)" d="M 254.271782 148.36547 
L 253.829896 152.55059 
L 248.695689 152.752673 
L 243.383622 152.295698 
L 239.427453 153.360681 
L 233.708617 150.774797 
L 233.574002 149.409858 
L 237.736644 144.344939 
L 241.13452 142.616674 
L 245.631422 144.193729 
L 248.955813 144.35955 
L 251.710531 146.191321 
L 254.271782 148.36547 
" style="fill:#808080;stroke:#ffffff;"/>
    <path clip-path="url(#p9b1e02d949)" d="M 228.72203 148.411766 
L 229.550527 152.740703 
L 228.845885 155.439999 
L 223.589774 155.551026 
L 216.019827 153.963057 
L 211.158425 153.314385 
L 207.529363 149.848701 
L 198.904286 148.965734 
L 190.697684 145.143941 
L 184.765545 141.801478 
L 178.669853 139.223691 
L 181.113072 132.851043 
L 185.105658 129.760656 
L 187.714056 128.130791 
L 192.75852 130.225376 
L 199.111085 134.664155 
L 202.646502 135.641827 
L 204.758062 138.914229 
L 209.647427 140.257164 
L 214.754646 143.249327 
L 221.872302 144.811595 
L 229.208463 145.477342 
L 228.72203 148.411766 
" style="fill:#808080;stroke:#ffffff;"/>
    <path clip-path="url(#p9b1e02d949)" d="M 158.429892 99.307068 
L 151.416286 100.319594 
L 141.871993 98.657516 
L 138.787242 101.595109 
L 141.016834 107.564647 
L 143.20188 112.174 
L 148.28016 115.538114 
L 142.914767 119.47908 
L 143.011989 124.335403 
L 136.903941 131.171362 
L 132.959478 138.085127 
L 126.377353 145.227731 
L 119.071107 144.70985 
L 112.136513 151.851222 
L 116.254934 154.910804 
L 116.971902 160.154217 
L 120.506994 163.609163 
L 121.756242 169.458473 
L 107.90949 169.440694 
L 103.71921 173.985971 
L 99.107203 172.263163 
L 97.23073 167.366353 
L 92.369329 162.178213 
L 80.776556 163.459714 
L 70.553664 163.586631 
L 61.692198 164.541596 
L 64.063233 156.626923 
L 73.139301 153.107726 
L 72.618727 149.970338 
L 69.608111 148.867509 
L 69.434478 142.867341 
L 63.419425 139.871834 
L 60.886462 135.757303 
L 57.771472 132.174031 
L 68.314642 135.653093 
L 74.60933 134.632821 
L 78.370404 135.501531 
L 79.644039 134.00809 
L 84.026161 134.606593 
L 92.203499 131.77409 
L 92.42363 125.976709 
L 95.931083 122.12059 
L 100.6156 122.13256 
L 101.303304 120.226504 
L 106.11203 119.338256 
L 108.438518 119.972669 
L 110.899296 118.056755 
L 110.551705 113.96546 
L 113.223508 109.853569 
L 117.228125 108.129705 
L 114.754991 103.62245 
L 120.740456 103.835446 
L 122.470609 101.382464 
L 122.207883 98.764894 
L 125.341733 95.902994 
L 124.622488 92.514588 
L 123.134901 89.627163 
L 126.80916 86.659821 
L 133.565243 85.228695 
L 140.785648 84.437263 
L 143.984204 83.179175 
L 145.589185 82.844268 
L 148.27561 82.844268 
L 152.296157 85.591141 
L 154.158323 90.826106 
L 164.5064 93.581155 
L 158.429892 99.307068 
" style="fill:#808080;stroke:#ffffff;"/>
    <path clip-path="url(#p9b1e02d949)" d="M 103.460711 83.163684 
L 104.12552 82.844268 
L 124.310453 82.844268 
L 124.307413 82.873938 
L 126.798755 85.104946 
L 128.990954 83.673468 
L 131.783715 82.997159 
L 131.980267 82.844268 
L 145.589185 82.844268 
L 143.984204 83.179175 
L 140.785648 84.437263 
L 133.565243 85.228695 
L 126.80916 86.659821 
L 123.134901 89.627163 
L 124.622488 92.514588 
L 125.341733 95.902994 
L 122.207883 98.764894 
L 122.470609 101.382464 
L 120.740456 103.835446 
L 114.754991 103.62245 
L 117.228125 108.129705 
L 113.223508 109.853569 
L 110.551705 113.96546 
L 110.899296 118.056755 
L 108.438518 119.972669 
L 106.11203 119.338256 
L 101.303304 120.226504 
L 100.6156 122.13256 
L 95.931083 122.12059 
L 92.42363 125.976709 
L 92.203499 131.77409 
L 84.026161 134.606593 
L 79.644039 134.00809 
L 78.370404 135.501531 
L 74.60933 134.632821 
L 68.314642 135.653093 
L 57.771472 132.174031 
L 63.478278 125.997481 
L 62.962906 121.612391 
L 58.197426 120.463969 
L 57.704815 116.138906 
L 57.681818 116.078222 
L 57.681818 107.874136 
L 58.334316 106.969489 
L 57.681818 106.729897 
L 57.681818 99.823499 
L 59.88921 92.517932 
L 66.306156 95.102761 
L 71.050501 94.194093 
L 72.36478 91.10705 
L 77.331532 90.079737 
L 80.877679 88.007861 
L 82.068077 82.844268 
L 102.7211 82.844268 
L 103.460711 83.163684 
" style="fill:#ffa500;stroke:#ffffff;"/>
    <path clip-path="url(#p9b1e02d949)" d="M 131.783715 82.997159 
L 128.990954 83.673468 
L 126.798755 85.104946 
L 124.307413 82.873938 
L 124.310453 82.844268 
L 131.980267 82.844268 
L 131.783715 82.997159 
" style="fill:#808080;stroke:#ffffff;"/>
    <path clip-path="url(#p9b1e02d949)" d="M 103.460711 83.163684 
L 102.7211 82.844268 
L 104.12552 82.844268 
L 103.460711 83.163684 
" style="fill:#808080;stroke:#ffffff;"/>
    <path clip-path="url(#p9b1e02d949)" d="M 80.877679 88.007861 
L 77.331532 90.079737 
L 72.36478 91.10705 
L 71.050501 94.194093 
L 66.306156 95.102761 
L 59.88921 92.517932 
L 59.337096 86.784803 
L 57.681818 86.698763 
L 57.681818 82.844268 
L 82.068077 82.844268 
L 80.877679 88.007861 
" style="fill:#808080;stroke:#ffffff;"/>
    <path clip-path="url(#p9b1e02d949)" d="M 59.337096 86.784803 
L 59.88921 92.517932 
L 57.681818 99.823499 
L 57.681818 86.698763 
L 59.337096 86.784803 
" style="fill:#808080;stroke:#ffffff;"/>
    <path clip-path="url(#p9b1e02d949)" d="M 58.334316 106.969489 
L 57.681818 107.874136 
L 57.681818 106.729897 
L 58.334316 106.969489 
" style="fill:#808080;stroke:#ffffff;"/>
    <path clip-path="url(#p9b1e02d949)" d="M 57.704815 116.138906 
L 58.197426 120.463969 
L 62.962906 121.612391 
L 63.478278 125.997481 
L 57.771472 132.174031 
L 60.886462 135.757303 
L 63.419425 139.871834 
L 69.434478 142.867341 
L 69.608111 148.867509 
L 72.618727 149.970338 
L 73.139301 153.107726 
L 64.063233 156.626923 
L 61.692198 164.541596 
L 57.681818 163.84471 
L 57.681818 116.078222 
L 57.704815 116.138906 
" style="fill:#808080;stroke:#ffffff;"/>
    <path clip-path="url(#p9b1e02d949)" d="M 176.195419 279.523685 
L 179.043457 268.464935 
L 183.391437 272.250466 
L 186.320439 277.048171 
L 187.911074 280.755732 
L 176.335778 280.755732 
L 176.195419 279.523685 
" style="fill:#808080;stroke:#ffffff;"/>
    <path clip-path="url(#p9b1e02d949)" d="M 311.192547 186.534993 
L 306.577288 188.518502 
L 303.852484 187.264286 
L 299.179998 184.706919 
L 301.011599 179.04737 
L 297.027143 177.727847 
L 295.52655 171.45624 
L 288.884921 172.586355 
L 289.639282 164.504805 
L 295.599384 158.815683 
L 295.852681 153.196269 
L 295.667667 147.982605 
L 292.921403 146.358373 
L 290.818296 142.347524 
L 287.138185 142.854139 
L 280.353488 141.83598 
L 282.478705 138.97496 
L 279.528244 134.738616 
L 275.042722 137.607381 
L 269.764796 135.933333 
L 262.512201 140.271775 
L 256.78491 145.338806 
L 251.710531 146.191321 
L 248.955813 144.35955 
L 245.631422 144.193729 
L 241.13452 142.616674 
L 237.736644 144.344939 
L 233.574002 149.409858 
L 233.045949 144.044455 
L 229.208463 145.477342 
L 221.872302 144.811595 
L 214.754646 143.249327 
L 209.647427 140.257164 
L 204.758062 138.914229 
L 202.646502 135.641827 
L 199.111085 134.664155 
L 192.75852 130.225376 
L 187.714056 128.130791 
L 185.105658 129.760656 
L 176.360272 124.996925 
L 170.178414 120.683127 
L 168.413795 113.173676 
L 172.929556 114.089209 
L 173.135704 110.610499 
L 170.632657 107.123692 
L 171.269311 101.56624 
L 164.5064 93.581155 
L 154.158323 90.826106 
L 152.296157 85.591141 
L 148.27561 82.844268 
L 311.318182 82.844268 
L 311.318182 188.411282 
L 311.192547 186.534993 
" style="fill:#808080;stroke:#ffffff;"/>
   </g>
   <g id="matplotlib.axis_1">
    <g id="xtick_1">
     <g id="line2d_1">
      <defs>
       <path d="M 0 0 
L 0 3.5 
" id="m033c0852b7" style="stroke:#000000;stroke-width:0.8;"/>
      </defs>
      <g>
       <use style="stroke:#000000;stroke-width:0.8;" x="52.270574" xlink:href="#m033c0852b7" y="290.651306"/>
      </g>
     </g>
     <g id="text_1">
      <!-- 60 -->
      <g transform="translate(45.908074 305.249743)scale(0.1 -0.1)">
       <defs>
        <path d="M 2113 2584 
Q 1688 2584 1439 2293 
Q 1191 2003 1191 1497 
Q 1191 994 1439 701 
Q 1688 409 2113 409 
Q 2538 409 2786 701 
Q 3034 994 3034 1497 
Q 3034 2003 2786 2293 
Q 2538 2584 2113 2584 
z
M 3366 4563 
L 3366 3988 
Q 3128 4100 2886 4159 
Q 2644 4219 2406 4219 
Q 1781 4219 1451 3797 
Q 1122 3375 1075 2522 
Q 1259 2794 1537 2939 
Q 1816 3084 2150 3084 
Q 2853 3084 3261 2657 
Q 3669 2231 3669 1497 
Q 3669 778 3244 343 
Q 2819 -91 2113 -91 
Q 1303 -91 875 529 
Q 447 1150 447 2328 
Q 447 3434 972 4092 
Q 1497 4750 2381 4750 
Q 2619 4750 2861 4703 
Q 3103 4656 3366 4563 
z
" id="DejaVuSans-36" transform="scale(0.015625)"/>
        <path d="M 2034 4250 
Q 1547 4250 1301 3770 
Q 1056 3291 1056 2328 
Q 1056 1369 1301 889 
Q 1547 409 2034 409 
Q 2525 409 2770 889 
Q 3016 1369 3016 2328 
Q 3016 3291 2770 3770 
Q 2525 4250 2034 4250 
z
M 2034 4750 
Q 2819 4750 3233 4129 
Q 3647 3509 3647 2328 
Q 3647 1150 3233 529 
Q 2819 -91 2034 -91 
Q 1250 -91 836 529 
Q 422 1150 422 2328 
Q 422 3509 836 4129 
Q 1250 4750 2034 4750 
z
" id="DejaVuSans-30" transform="scale(0.015625)"/>
       </defs>
       <use xlink:href="#DejaVuSans-36"/>
       <use x="63.623047" xlink:href="#DejaVuSans-30"/>
      </g>
     </g>
    </g>
    <g id="xtick_2">
     <g id="line2d_2">
      <g>
       <use style="stroke:#000000;stroke-width:0.8;" x="83.731298" xlink:href="#m033c0852b7" y="290.651306"/>
      </g>
     </g>
     <g id="text_2">
      <!-- 65 -->
      <g transform="translate(77.368798 305.249743)scale(0.1 -0.1)">
       <defs>
        <path d="M 691 4666 
L 3169 4666 
L 3169 4134 
L 1269 4134 
L 1269 2991 
Q 1406 3038 1543 3061 
Q 1681 3084 1819 3084 
Q 2600 3084 3056 2656 
Q 3513 2228 3513 1497 
Q 3513 744 3044 326 
Q 2575 -91 1722 -91 
Q 1428 -91 1123 -41 
Q 819 9 494 109 
L 494 744 
Q 775 591 1075 516 
Q 1375 441 1709 441 
Q 2250 441 2565 725 
Q 2881 1009 2881 1497 
Q 2881 1984 2565 2268 
Q 2250 2553 1709 2553 
Q 1456 2553 1204 2497 
Q 953 2441 691 2322 
L 691 4666 
z
" id="DejaVuSans-35" transform="scale(0.015625)"/>
       </defs>
       <use xlink:href="#DejaVuSans-36"/>
       <use x="63.623047" xlink:href="#DejaVuSans-35"/>
      </g>
     </g>
    </g>
    <g id="xtick_3">
     <g id="line2d_3">
      <g>
       <use style="stroke:#000000;stroke-width:0.8;" x="115.192023" xlink:href="#m033c0852b7" y="290.651306"/>
      </g>
     </g>
     <g id="text_3">
      <!-- 70 -->
      <g transform="translate(108.829523 305.249743)scale(0.1 -0.1)">
       <defs>
        <path d="M 525 4666 
L 3525 4666 
L 3525 4397 
L 1831 0 
L 1172 0 
L 2766 4134 
L 525 4134 
L 525 4666 
z
" id="DejaVuSans-37" transform="scale(0.015625)"/>
       </defs>
       <use xlink:href="#DejaVuSans-37"/>
       <use x="63.623047" xlink:href="#DejaVuSans-30"/>
      </g>
     </g>
    </g>
    <g id="xtick_4">
     <g id="line2d_4">
      <g>
       <use style="stroke:#000000;stroke-width:0.8;" x="146.652748" xlink:href="#m033c0852b7" y="290.651306"/>
      </g>
     </g>
     <g id="text_4">
      <!-- 75 -->
      <g transform="translate(140.290248 305.249743)scale(0.1 -0.1)">
       <use xlink:href="#DejaVuSans-37"/>
       <use x="63.623047" xlink:href="#DejaVuSans-35"/>
      </g>
     </g>
    </g>
    <g id="xtick_5">
     <g id="line2d_5">
      <g>
       <use style="stroke:#000000;stroke-width:0.8;" x="178.113473" xlink:href="#m033c0852b7" y="290.651306"/>
      </g>
     </g>
     <g id="text_5">
      <!-- 80 -->
      <g transform="translate(171.750973 305.249743)scale(0.1 -0.1)">
       <defs>
        <path d="M 2034 2216 
Q 1584 2216 1326 1975 
Q 1069 1734 1069 1313 
Q 1069 891 1326 650 
Q 1584 409 2034 409 
Q 2484 409 2743 651 
Q 3003 894 3003 1313 
Q 3003 1734 2745 1975 
Q 2488 2216 2034 2216 
z
M 1403 2484 
Q 997 2584 770 2862 
Q 544 3141 544 3541 
Q 544 4100 942 4425 
Q 1341 4750 2034 4750 
Q 2731 4750 3128 4425 
Q 3525 4100 3525 3541 
Q 3525 3141 3298 2862 
Q 3072 2584 2669 2484 
Q 3125 2378 3379 2068 
Q 3634 1759 3634 1313 
Q 3634 634 3220 271 
Q 2806 -91 2034 -91 
Q 1263 -91 848 271 
Q 434 634 434 1313 
Q 434 1759 690 2068 
Q 947 2378 1403 2484 
z
M 1172 3481 
Q 1172 3119 1398 2916 
Q 1625 2713 2034 2713 
Q 2441 2713 2670 2916 
Q 2900 3119 2900 3481 
Q 2900 3844 2670 4047 
Q 2441 4250 2034 4250 
Q 1625 4250 1398 4047 
Q 1172 3844 1172 3481 
z
" id="DejaVuSans-38" transform="scale(0.015625)"/>
       </defs>
       <use xlink:href="#DejaVuSans-38"/>
       <use x="63.623047" xlink:href="#DejaVuSans-30"/>
      </g>
     </g>
    </g>
    <g id="xtick_6">
     <g id="line2d_6">
      <g>
       <use style="stroke:#000000;stroke-width:0.8;" x="209.574198" xlink:href="#m033c0852b7" y="290.651306"/>
      </g>
     </g>
     <g id="text_6">
      <!-- 85 -->
      <g transform="translate(203.211698 305.249743)scale(0.1 -0.1)">
       <use xlink:href="#DejaVuSans-38"/>
       <use x="63.623047" xlink:href="#DejaVuSans-35"/>
      </g>
     </g>
    </g>
    <g id="xtick_7">
     <g id="line2d_7">
      <g>
       <use style="stroke:#000000;stroke-width:0.8;" x="241.034923" xlink:href="#m033c0852b7" y="290.651306"/>
      </g>
     </g>
     <g id="text_7">
      <!-- 90 -->
      <g transform="translate(234.672423 305.249743)scale(0.1 -0.1)">
       <defs>
        <path d="M 703 97 
L 703 672 
Q 941 559 1184 500 
Q 1428 441 1663 441 
Q 2288 441 2617 861 
Q 2947 1281 2994 2138 
Q 2813 1869 2534 1725 
Q 2256 1581 1919 1581 
Q 1219 1581 811 2004 
Q 403 2428 403 3163 
Q 403 3881 828 4315 
Q 1253 4750 1959 4750 
Q 2769 4750 3195 4129 
Q 3622 3509 3622 2328 
Q 3622 1225 3098 567 
Q 2575 -91 1691 -91 
Q 1453 -91 1209 -44 
Q 966 3 703 97 
z
M 1959 2075 
Q 2384 2075 2632 2365 
Q 2881 2656 2881 3163 
Q 2881 3666 2632 3958 
Q 2384 4250 1959 4250 
Q 1534 4250 1286 3958 
Q 1038 3666 1038 3163 
Q 1038 2656 1286 2365 
Q 1534 2075 1959 2075 
z
" id="DejaVuSans-39" transform="scale(0.015625)"/>
       </defs>
       <use xlink:href="#DejaVuSans-39"/>
       <use x="63.623047" xlink:href="#DejaVuSans-30"/>
      </g>
     </g>
    </g>
    <g id="xtick_8">
     <g id="line2d_8">
      <g>
       <use style="stroke:#000000;stroke-width:0.8;" x="272.495647" xlink:href="#m033c0852b7" y="290.651306"/>
      </g>
     </g>
     <g id="text_8">
      <!-- 95 -->
      <g transform="translate(266.133147 305.249743)scale(0.1 -0.1)">
       <use xlink:href="#DejaVuSans-39"/>
       <use x="63.623047" xlink:href="#DejaVuSans-35"/>
      </g>
     </g>
    </g>
    <g id="xtick_9">
     <g id="line2d_9">
      <g>
       <use style="stroke:#000000;stroke-width:0.8;" x="303.956372" xlink:href="#m033c0852b7" y="290.651306"/>
      </g>
     </g>
     <g id="text_9">
      <!-- 100 -->
      <g transform="translate(294.412622 305.249743)scale(0.1 -0.1)">
       <defs>
        <path d="M 794 531 
L 1825 531 
L 1825 4091 
L 703 3866 
L 703 4441 
L 1819 4666 
L 2450 4666 
L 2450 531 
L 3481 531 
L 3481 0 
L 794 0 
L 794 531 
z
" id="DejaVuSans-31" transform="scale(0.015625)"/>
       </defs>
       <use xlink:href="#DejaVuSans-31"/>
       <use x="63.623047" xlink:href="#DejaVuSans-30"/>
       <use x="127.246094" xlink:href="#DejaVuSans-30"/>
      </g>
     </g>
    </g>
   </g>
   <g id="matplotlib.axis_2">
    <g id="ytick_1">
     <g id="line2d_10">
      <defs>
       <path d="M 0 0 
L -3.5 0 
" id="m94832c01f1" style="stroke:#000000;stroke-width:0.8;"/>
      </defs>
      <g>
       <use style="stroke:#000000;stroke-width:0.8;" x="45" xlink:href="#m94832c01f1" y="267.266414"/>
      </g>
     </g>
     <g id="text_10">
      <!-- 10 -->
      <g transform="translate(25.275 271.065633)scale(0.1 -0.1)">
       <use xlink:href="#DejaVuSans-31"/>
       <use x="63.623047" xlink:href="#DejaVuSans-30"/>
      </g>
     </g>
    </g>
    <g id="ytick_2">
     <g id="line2d_11">
      <g>
       <use style="stroke:#000000;stroke-width:0.8;" x="45" xlink:href="#m94832c01f1" y="233.202479"/>
      </g>
     </g>
     <g id="text_11">
      <!-- 15 -->
      <g transform="translate(25.275 237.001697)scale(0.1 -0.1)">
       <use xlink:href="#DejaVuSans-31"/>
       <use x="63.623047" xlink:href="#DejaVuSans-35"/>
      </g>
     </g>
    </g>
    <g id="ytick_3">
     <g id="line2d_12">
      <g>
       <use style="stroke:#000000;stroke-width:0.8;" x="45" xlink:href="#m94832c01f1" y="199.138543"/>
      </g>
     </g>
     <g id="text_12">
      <!-- 20 -->
      <g transform="translate(25.275 202.937762)scale(0.1 -0.1)">
       <defs>
        <path d="M 1228 531 
L 3431 531 
L 3431 0 
L 469 0 
L 469 531 
Q 828 903 1448 1529 
Q 2069 2156 2228 2338 
Q 2531 2678 2651 2914 
Q 2772 3150 2772 3378 
Q 2772 3750 2511 3984 
Q 2250 4219 1831 4219 
Q 1534 4219 1204 4116 
Q 875 4013 500 3803 
L 500 4441 
Q 881 4594 1212 4672 
Q 1544 4750 1819 4750 
Q 2544 4750 2975 4387 
Q 3406 4025 3406 3419 
Q 3406 3131 3298 2873 
Q 3191 2616 2906 2266 
Q 2828 2175 2409 1742 
Q 1991 1309 1228 531 
z
" id="DejaVuSans-32" transform="scale(0.015625)"/>
       </defs>
       <use xlink:href="#DejaVuSans-32"/>
       <use x="63.623047" xlink:href="#DejaVuSans-30"/>
      </g>
     </g>
    </g>
    <g id="ytick_4">
     <g id="line2d_13">
      <g>
       <use style="stroke:#000000;stroke-width:0.8;" x="45" xlink:href="#m94832c01f1" y="165.074608"/>
      </g>
     </g>
     <g id="text_13">
      <!-- 25 -->
      <g transform="translate(25.275 168.873826)scale(0.1 -0.1)">
       <use xlink:href="#DejaVuSans-32"/>
       <use x="63.623047" xlink:href="#DejaVuSans-35"/>
      </g>
     </g>
    </g>
    <g id="ytick_5">
     <g id="line2d_14">
      <g>
       <use style="stroke:#000000;stroke-width:0.8;" x="45" xlink:href="#m94832c01f1" y="131.010672"/>
      </g>
     </g>
     <g id="text_14">
      <!-- 30 -->
      <g transform="translate(25.275 134.809891)scale(0.1 -0.1)">
       <defs>
        <path d="M 2597 2516 
Q 3050 2419 3304 2112 
Q 3559 1806 3559 1356 
Q 3559 666 3084 287 
Q 2609 -91 1734 -91 
Q 1441 -91 1130 -33 
Q 819 25 488 141 
L 488 750 
Q 750 597 1062 519 
Q 1375 441 1716 441 
Q 2309 441 2620 675 
Q 2931 909 2931 1356 
Q 2931 1769 2642 2001 
Q 2353 2234 1838 2234 
L 1294 2234 
L 1294 2753 
L 1863 2753 
Q 2328 2753 2575 2939 
Q 2822 3125 2822 3475 
Q 2822 3834 2567 4026 
Q 2313 4219 1838 4219 
Q 1578 4219 1281 4162 
Q 984 4106 628 3988 
L 628 4550 
Q 988 4650 1302 4700 
Q 1616 4750 1894 4750 
Q 2613 4750 3031 4423 
Q 3450 4097 3450 3541 
Q 3450 3153 3228 2886 
Q 3006 2619 2597 2516 
z
" id="DejaVuSans-33" transform="scale(0.015625)"/>
       </defs>
       <use xlink:href="#DejaVuSans-33"/>
       <use x="63.623047" xlink:href="#DejaVuSans-30"/>
      </g>
     </g>
    </g>
    <g id="ytick_6">
     <g id="line2d_15">
      <g>
       <use style="stroke:#000000;stroke-width:0.8;" x="45" xlink:href="#m94832c01f1" y="96.946737"/>
      </g>
     </g>
     <g id="text_15">
      <!-- 35 -->
      <g transform="translate(25.275 100.745956)scale(0.1 -0.1)">
       <use xlink:href="#DejaVuSans-33"/>
       <use x="63.623047" xlink:href="#DejaVuSans-35"/>
      </g>
     </g>
    </g>
   </g>
   <g id="patch_3">
    <path d="M 45 290.651306 
L 45 72.948694 
" style="fill:none;stroke:#000000;stroke-linecap:square;stroke-linejoin:miter;stroke-width:0.8;"/>
   </g>
   <g id="patch_4">
    <path d="M 324 290.651306 
L 324 72.948694 
" style="fill:none;stroke:#000000;stroke-linecap:square;stroke-linejoin:miter;stroke-width:0.8;"/>
   </g>
   <g id="patch_5">
    <path d="M 45 290.651306 
L 324 290.651306 
" style="fill:none;stroke:#000000;stroke-linecap:square;stroke-linejoin:miter;stroke-width:0.8;"/>
   </g>
   <g id="patch_6">
    <path d="M 45 72.948694 
L 324 72.948694 
" style="fill:none;stroke:#000000;stroke-linecap:square;stroke-linejoin:miter;stroke-width:0.8;"/>
   </g>
  </g>
 </g>
 <defs>
  <clipPath id="p9b1e02d949">
   <rect height="217.702611" width="279" x="45" y="72.948694"/>
  </clipPath>
 </defs>
</svg>
