<?xml version="1.0" encoding="utf-8" standalone="no"?>
<!DOCTYPE svg PUBLIC "-//W3C//DTD SVG 1.1//EN"
  "http://www.w3.org/Graphics/SVG/1.1/DTD/svg11.dtd">
<svg height="360pt" version="1.1" viewBox="0 0 360 360" width="360pt" xmlns="http://www.w3.org/2000/svg" xmlns:xlink="http://www.w3.org/1999/xlink">
 <metadata>
  <rdf:RDF xmlns:cc="http://creativecommons.org/ns#" xmlns:dc="http://purl.org/dc/elements/1.1/" xmlns:rdf="http://www.w3.org/1999/02/22-rdf-syntax-ns#">
   <cc:Work>
    <dc:type rdf:resource="http://purl.org/dc/dcmitype/StillImage"/>
    <dc:date>2021-11-27T05:33:22.145409</dc:date>
    <dc:format>image/svg+xml</dc:format>
    <dc:creator>
     <cc:Agent>
      <dc:title>Matplotlib v3.4.3, https://matplotlib.org/</dc:title>
     </cc:Agent>
    </dc:creator>
   </cc:Work>
  </rdf:RDF>
 </metadata>
 <defs>
  <style type="text/css">*{stroke-linecap:butt;stroke-linejoin:round;}</style>
 </defs>
 <g id="figure_1">
  <g id="patch_1">
   <path d="M 0 360 
L 360 360 
L 360 0 
L 0 0 
z
" style="fill:#ffffff;"/>
  </g>
  <g id="axes_1">
   <g id="patch_2">
    <path d="M 104.720358 320.4 
L 264.279642 320.4 
L 264.279642 43.2 
L 104.720358 43.2 
z
" style="fill:#ffffff;"/>
   </g>
   <g id="PatchCollection_1">
    <path clip-path="url(#p6fd19557a5)" d="M 214.127005 251.560346 
L 212.966014 256.191348 
L 213.008596 260.678695 
L 212.06691 261.68164 
L 211.730745 264.593126 
L 211.434047 266.944944 
L 216.944715 270.80364 
L 216.352188 273.909292 
L 219.0644 275.872281 
L 218.843963 278.072775 
L 214.673554 283.84971 
L 208.238152 286.266116 
L 199.533186 287.204242 
L 194.765226 286.750584 
L 195.677619 289.4374 
L 194.788946 292.809401 
L 195.589968 295.081356 
L 192.986628 296.666592 
L 188.539109 297.288507 
L 184.365379 295.648225 
L 182.69027 296.826964 
L 183.295791 301.303617 
L 186.226247 302.659663 
L 188.602375 301.239022 
L 189.895399 303.579181 
L 185.899081 304.977739 
L 182.41387 307.779191 
L 182.410941 307.8 
L 153.659475 307.796672 
L 153.186896 307.38477 
L 152.173371 302.18753 
L 153.918495 301.270723 
L 153.185105 295.778987 
L 154.204769 291.165104 
L 155.36453 287.146025 
L 157.963613 285.510554 
L 156.644231 281.112998 
L 156.629982 276.97429 
L 159.916707 274.035057 
L 159.814712 270.269095 
L 162.291771 265.871655 
L 162.302666 261.728481 
L 161.175815 260.905546 
L 159.176212 253.129073 
L 161.849996 248.494883 
L 161.439573 244.132192 
L 162.990805 240.038126 
L 165.83317 235.812747 
L 168.89604 233.011179 
L 167.597145 231.243307 
L 168.503371 229.79318 
L 168.365922 222.285909 
L 173.093447 220.063745 
L 174.584098 215.384127 
L 174.055934 214.255064 
L 177.673041 210.184535 
L 183.35226 211.281692 
L 185.9039 214.535365 
L 187.597416 210.911255 
L 192.547092 211.097452 
L 193.247693 212.061728 
L 201.228516 219.412989 
L 204.777233 220.098098 
L 210.08054 223.425768 
L 214.550786 225.186664 
L 215.173905 227.174819 
L 210.900813 234.022854 
L 215.277743 235.248994 
L 220.152264 235.936416 
L 223.578767 235.22887 
L 227.515933 231.77776 
L 228.225643 227.801907 
L 230.375299 226.938664 
L 232.552993 229.539102 
L 232.464503 233.136879 
L 228.809741 235.620449 
L 225.894747 237.454724 
L 220.995861 241.828441 
L 215.211194 247.955092 
L 214.127005 251.560346 
" style="fill:#ff0000;stroke:#ffffff;"/>
    <path clip-path="url(#p6fd19557a5)" d="M 165.403431 194.092164 
L 165.982054 197.342255 
L 168.258998 199.249585 
L 166.892082 203.608597 
L 169.224014 208.661792 
L 170.924348 214.87226 
L 174.055934 214.255064 
L 174.584098 215.384127 
L 173.093447 220.063745 
L 168.365922 222.285909 
L 168.503371 229.79318 
L 167.597145 231.243307 
L 168.89604 233.011179 
L 165.83317 235.812747 
L 162.990805 240.038126 
L 161.439573 244.132192 
L 161.849996 248.494883 
L 159.176212 253.129073 
L 161.175815 260.905546 
L 162.302666 261.728481 
L 162.291771 265.871655 
L 159.814712 270.269095 
L 159.916707 274.035057 
L 156.629982 276.97429 
L 156.644231 281.112998 
L 157.963613 285.510554 
L 155.36453 287.146025 
L 154.204769 291.165104 
L 153.185105 295.778987 
L 153.918495 301.270723 
L 152.173371 302.18753 
L 153.186896 307.38477 
L 153.659475 307.796672 
L 148.481966 307.796796 
L 149.704244 302.766329 
L 146.791521 301.568875 
L 145.435733 307.1922 
L 142.69876 306.557888 
L 144.06124 300.115104 
L 145.540302 291.769183 
L 147.534541 288.689892 
L 146.284556 284.293961 
L 145.926316 279.218701 
L 147.755032 279.07223 
L 150.417691 271.797155 
L 153.418387 264.590241 
L 155.255386 257.876898 
L 154.255799 251.127295 
L 155.551896 247.410828 
L 155.031768 241.850607 
L 157.569743 236.349706 
L 158.351498 227.635168 
L 159.744563 218.278538 
L 161.10175 208.206752 
L 160.784064 200.83272 
L 159.880987 194.487991 
L 162.112519 193.337905 
L 163.275819 191.028223 
L 165.403431 194.092164 
" style="fill:#ff0000;stroke:#ffffff;"/>
    <path clip-path="url(#p6fd19557a5)" d="M 218.028565 247.474778 
L 222.374682 250.975139 
L 223.988241 250.843603 
L 228.454998 253.729694 
L 231.860218 256.219782 
L 234.370672 259.285133 
L 232.456652 261.422055 
L 233.658495 263.973603 
L 231.780027 266.804752 
L 226.877552 269.308808 
L 223.673201 268.407851 
L 221.324023 268.890689 
L 217.318542 266.940206 
L 214.375008 267.08482 
L 211.730745 264.593126 
L 212.06691 261.68164 
L 213.008596 260.678695 
L 212.966014 256.191348 
L 214.127005 251.560346 
L 215.211194 247.955092 
L 218.028565 247.474778 
" style="fill:#ff0000;stroke:#ffffff;"/>
    <path clip-path="url(#p6fd19557a5)" d="M 232.456652 261.422055 
L 234.370672 259.285133 
L 231.860218 256.219782 
L 228.454998 253.729694 
L 223.988241 250.843603 
L 222.374682 250.975139 
L 218.028565 247.474778 
L 215.211194 247.955092 
L 220.995861 241.828441 
L 225.894747 237.454724 
L 228.809741 235.620449 
L 232.464503 233.136879 
L 232.552993 229.539102 
L 230.375299 226.938664 
L 228.225643 227.801907 
L 229.077901 225.202168 
L 229.665925 222.537941 
L 229.668168 220.061123 
L 228.106087 219.243742 
L 226.47806 219.972191 
L 224.859678 219.772444 
L 224.352293 218.038275 
L 223.948426 213.909935 
L 223.135534 212.564318 
L 220.210086 211.32886 
L 218.438377 212.211208 
L 213.855508 211.345903 
L 214.144015 205.230335 
L 212.860458 202.725593 
L 214.217222 201.794362 
L 213.799675 199.226524 
L 214.988882 197.252562 
L 215.760787 193.704624 
L 214.734711 190.903275 
L 212.363774 189.638461 
L 211.898234 187.860767 
L 212.535558 185.258938 
L 204.21425 185.072979 
L 202.544998 179.827434 
L 203.811604 179.75223 
L 203.754397 177.809477 
L 202.908565 176.494136 
L 202.717113 173.889987 
L 200.196116 172.553937 
L 197.465633 172.598185 
L 195.669228 171.289835 
L 192.735188 170.397279 
L 191.02749 168.714113 
L 186.166844 167.970563 
L 181.45343 163.93539 
L 181.80231 160.915217 
L 181.268697 159.183389 
L 181.730511 155.807028 
L 176.051179 156.569954 
L 173.764244 158.261522 
L 169.969018 160.087195 
L 169.000842 161.449805 
L 166.766455 161.548723 
L 163.539245 161.167409 
L 161.090918 161.943363 
L 159.116301 161.426083 
L 159.406169 154.582778 
L 155.844767 157.237706 
L 152.014413 157.121327 
L 150.373092 154.718321 
L 147.492417 154.457131 
L 148.409678 152.522747 
L 145.997775 149.781946 
L 144.191363 145.724629 
L 145.336519 144.90096 
L 145.331801 142.998014 
L 147.955424 141.697556 
L 147.522742 139.26149 
L 148.630438 137.694014 
L 148.945459 135.591556 
L 153.908854 132.525511 
L 157.466121 131.658772 
L 158.048063 130.981544 
L 161.959387 131.19292 
L 163.910543 118.840604 
L 164.013046 116.886922 
L 163.33342 114.307234 
L 161.408039 112.663647 
L 161.430322 109.390766 
L 163.874931 108.649063 
L 164.742657 109.114896 
L 164.889562 107.389826 
L 162.346213 106.923974 
L 162.292503 104.105057 
L 170.749551 104.205783 
L 172.185196 102.652868 
L 173.391031 104.081711 
L 174.237194 106.739179 
L 175.056344 106.183944 
L 177.446033 108.566711 
L 180.820752 108.274793 
L 181.660877 106.896129 
L 184.888907 105.844455 
L 186.675915 105.10508 
L 187.180378 103.197136 
L 190.280783 101.915338 
L 190.046059 100.968522 
L 186.369099 100.581343 
L 185.766532 97.744156 
L 185.941619 94.723874 
L 183.998956 93.556 
L 184.812386 93.141382 
L 188.025718 93.717827 
L 191.477027 94.843926 
L 192.729979 93.778975 
L 195.851242 93.080006 
L 200.706246 91.393618 
L 202.293636 89.674378 
L 201.718988 88.403149 
L 203.975568 88.204007 
L 204.985697 89.242087 
L 204.421228 91.220213 
L 205.912591 91.902146 
L 206.908133 93.995607 
L 205.704191 95.583197 
L 205.013538 99.418166 
L 206.12465 101.695379 
L 206.439338 103.779998 
L 209.109489 105.893719 
L 211.239982 106.117209 
L 211.719755 105.234893 
L 213.091448 105.040039 
L 215.055399 104.249914 
L 216.46668 103.051805 
L 218.867449 103.43395 
L 219.923554 103.27262 
L 222.283388 103.641378 
L 222.674451 102.720884 
L 221.946383 101.825299 
L 222.380512 100.520801 
L 224.126078 100.935921 
L 226.17558 100.475315 
L 228.662034 101.429934 
L 230.557549 102.359294 
L 231.901154 101.137763 
L 232.872071 101.326103 
L 233.46402 102.594311 
L 235.542345 102.272341 
L 237.205813 100.561104 
L 238.538763 97.243625 
L 241.106417 93.120871 
L 242.591363 92.893411 
L 243.665077 95.385087 
L 246.099604 103.263567 
L 248.420869 104.007255 
L 248.537951 107.117024 
L 245.273285 110.825562 
L 246.623338 112.183499 
L 254.295691 112.890985 
L 254.446461 117.421347 
L 257.026947 115.10754 
L 257.026947 225.754469 
L 254.832944 228.422567 
L 254.20118 231.786374 
L 254.922891 234.274134 
L 254.11213 238.82525 
L 253.127081 241.023633 
L 250.09354 243.503012 
L 245.277424 251.431903 
L 241.460487 255.005468 
L 238.509491 257.112358 
L 236.530085 261.39761 
L 233.658495 263.973603 
L 232.456652 261.422055 
" style="fill:#ff0000;stroke:#ffffff;"/>
    <path clip-path="url(#p6fd19557a5)" d="M 166.766455 161.548723 
L 169.000842 161.449805 
L 169.969018 160.087195 
L 173.764244 158.261522 
L 176.051179 156.569954 
L 181.730511 155.807028 
L 181.268697 159.183389 
L 181.80231 160.915217 
L 181.45343 163.93539 
L 186.166844 167.970563 
L 191.02749 168.714113 
L 192.735188 170.397279 
L 195.669228 171.289835 
L 197.465633 172.598185 
L 200.196116 172.553937 
L 202.717113 173.889987 
L 202.908565 176.494136 
L 203.754397 177.809477 
L 203.811604 179.75223 
L 202.544998 179.827434 
L 204.21425 185.072979 
L 212.535558 185.258938 
L 211.898234 187.860767 
L 212.363774 189.638461 
L 214.734711 190.903275 
L 215.760787 193.704624 
L 214.988882 197.252562 
L 213.799675 199.226524 
L 214.217222 201.794362 
L 212.860458 202.725593 
L 212.786318 201.336677 
L 208.742903 199.032401 
L 204.712737 198.968642 
L 197.148445 200.279629 
L 195.066667 204.244093 
L 194.957232 206.667368 
L 193.247693 212.061728 
L 192.547092 211.097452 
L 187.597416 210.911255 
L 185.9039 214.535365 
L 183.35226 211.281692 
L 177.673041 210.184535 
L 174.055934 214.255064 
L 170.924348 214.87226 
L 169.224014 208.661792 
L 166.892082 203.608597 
L 168.258998 199.249585 
L 165.982054 197.342255 
L 165.403431 194.092164 
L 163.275819 191.028223 
L 166.01367 186.16581 
L 164.146689 182.379006 
L 165.142448 180.864596 
L 164.36468 179.194221 
L 166.060245 176.943675 
L 166.144868 173.109387 
L 166.358847 169.943213 
L 167.291506 168.418129 
L 163.539245 161.167409 
L 166.766455 161.548723 
" style="fill:#ff0000;stroke:#ffffff;"/>
    <path clip-path="url(#p6fd19557a5)" d="M 158.048063 130.981544 
L 157.466121 131.658772 
L 153.908854 132.525511 
L 148.945459 135.591556 
L 148.630438 137.694014 
L 147.522742 139.26149 
L 147.955424 141.697556 
L 145.331801 142.998014 
L 145.336519 144.90096 
L 144.191363 145.724629 
L 145.997775 149.781946 
L 148.409678 152.522747 
L 147.492417 154.457131 
L 150.373092 154.718321 
L 152.014413 157.121327 
L 155.844767 157.237706 
L 159.406169 154.582778 
L 159.116301 161.426083 
L 161.090918 161.943363 
L 163.539245 161.167409 
L 167.291506 168.418129 
L 166.358847 169.943213 
L 166.144868 173.109387 
L 166.060245 176.943675 
L 164.36468 179.194221 
L 165.142448 180.864596 
L 164.146689 182.379006 
L 166.01367 186.16581 
L 163.275819 191.028223 
L 162.112519 193.337905 
L 159.880987 194.487991 
L 155.528896 191.901325 
L 155.152167 190.052846 
L 146.547236 185.529272 
L 138.763225 180.602232 
L 135.415307 177.825348 
L 133.617178 174.103719 
L 134.32999 172.805584 
L 130.653785 166.893498 
L 126.374199 158.581651 
L 122.27327 149.61143 
L 120.498149 147.558325 
L 119.13237 144.240384 
L 115.760228 141.300064 
L 112.667568 139.476278 
L 114.072353 137.465763 
L 111.973053 133.177236 
L 111.973053 133.159325 
L 113.320026 130.013664 
L 116.779966 127.169037 
L 117.294521 129.044492 
L 116.056292 130.117259 
L 116.173725 131.768063 
L 117.96777 131.409298 
L 119.720998 131.896308 
L 121.54265 134.171011 
L 123.996681 132.317884 
L 124.817931 129.278405 
L 127.477638 125.358687 
L 132.697054 123.582143 
L 137.42985 118.865075 
L 138.780907 115.935945 
L 138.175404 112.514907 
L 139.332626 112.087228 
L 142.219137 114.220871 
L 143.604635 116.347297 
L 145.613797 117.508054 
L 148.170813 122.231403 
L 151.402741 122.795714 
L 153.794441 121.604455 
L 155.361843 122.383879 
L 157.966851 121.996723 
L 161.290627 124.106383 
L 158.491161 128.69122 
L 159.787384 128.798074 
L 161.959387 131.19292 
L 158.048063 130.981544 
" style="fill:#ff0000;stroke:#ffffff;"/>
    <path clip-path="url(#p6fd19557a5)" d="M 174.237194 106.739179 
L 173.391031 104.081711 
L 172.185196 102.652868 
L 170.749551 104.205783 
L 162.292503 104.105057 
L 162.346213 106.923974 
L 164.889562 107.389826 
L 164.742657 109.114896 
L 163.874931 108.649063 
L 161.430322 109.390766 
L 161.408039 112.663647 
L 163.33342 114.307234 
L 164.013046 116.886922 
L 163.910543 118.840604 
L 161.959387 131.19292 
L 159.787384 128.798074 
L 158.491161 128.69122 
L 161.290627 124.106383 
L 157.966851 121.996723 
L 155.361843 122.383879 
L 153.794441 121.604455 
L 151.402741 122.795714 
L 148.170813 122.231403 
L 145.613797 117.508054 
L 143.604635 116.347297 
L 142.219137 114.220871 
L 139.332626 112.087228 
L 138.175404 112.514907 
L 136.316635 111.447977 
L 134.186125 109.955717 
L 132.953155 110.672522 
L 129.269824 110.047463 
L 128.212356 108.109384 
L 127.403085 108.181324 
L 123.061757 105.608994 
L 122.473072 104.210167 
L 124.09252 103.872138 
L 123.900298 101.61534 
L 124.918175 99.983622 
L 127.071344 99.681563 
L 128.899171 96.850564 
L 130.560454 94.487152 
L 128.960637 93.41509 
L 129.779563 90.800484 
L 128.800283 86.679176 
L 129.730908 85.496427 
L 129.045799 81.686265 
L 127.288307 79.286649 
L 127.844581 77.096916 
L 129.243538 77.420285 
L 130.061903 76.08133 
L 129.05425 73.42785 
L 129.581022 72.769141 
L 131.823683 72.91221 
L 135.08031 69.767432 
L 136.867644 69.287989 
L 136.910607 67.797946 
L 137.710483 63.991308 
L 140.199886 61.900775 
L 142.934994 61.815241 
L 143.280197 60.876243 
L 146.676423 61.25224 
L 150.092174 58.977327 
L 151.78342 57.970116 
L 153.884539 55.8 
L 155.422219 56.075996 
L 156.561175 57.260916 
L 155.718573 58.777739 
L 152.930491 59.532816 
L 151.829489 61.78518 
L 150.149345 63.076879 
L 148.887859 64.751077 
L 148.356917 67.965743 
L 147.153073 70.600143 
L 149.393738 70.901869 
L 149.950332 72.973012 
L 150.907985 73.964179 
L 151.250709 75.778073 
L 150.735143 77.445529 
L 150.887888 78.385825 
L 151.956236 78.761343 
L 152.990035 80.332776 
L 158.571675 79.899558 
L 161.09316 80.473551 
L 164.148126 84.350221 
L 165.902391 83.868443 
L 169.028703 84.109648 
L 171.502639 83.595866 
L 173.037641 84.370065 
L 172.255936 86.796458 
L 171.287282 88.308979 
L 170.947335 91.539948 
L 171.820523 94.533349 
L 173.054397 95.871981 
L 173.203664 96.880606 
L 171.004044 99.123197 
L 172.578969 100.116 
L 173.732653 101.691161 
L 175.056344 106.183944 
L 174.237194 106.739179 
" style="fill:#ff0000;stroke:#ffffff;"/>
    <path clip-path="url(#p6fd19557a5)" d="M 129.05425 73.42785 
L 130.061903 76.08133 
L 129.243538 77.420285 
L 127.844581 77.096916 
L 127.288307 79.286649 
L 125.841353 77.987024 
L 124.911529 75.555286 
L 125.983914 74.351822 
L 124.884173 74.043121 
L 124.074009 72.554581 
L 121.911839 71.302171 
L 120.012577 71.589203 
L 119.132751 73.156301 
L 117.379615 74.28794 
L 116.432619 74.445192 
L 116.007117 75.382683 
L 118.077506 77.827931 
L 116.892638 78.403528 
L 116.265491 79.071085 
L 114.246115 79.300966 
L 113.494611 76.609768 
L 112.929595 77.375684 
L 111.973457 77.199035 
L 111.973485 72.228133 
L 113.981818 71.921954 
L 115.828264 70.784147 
L 118.464245 69.87554 
L 119.945643 68.529259 
L 122.341874 68.793775 
L 122.180151 69.236912 
L 124.600236 69.390577 
L 126.531567 70.168728 
L 127.948349 71.524224 
L 129.581022 72.769141 
L 129.05425 73.42785 
" style="fill:#ff0000;stroke:#ffffff;"/>
    <path clip-path="url(#p6fd19557a5)" d="M 202.293636 89.674378 
L 200.706246 91.393618 
L 195.851242 93.080006 
L 192.729979 93.778975 
L 191.477027 94.843926 
L 188.025718 93.717827 
L 184.812386 93.141382 
L 183.998956 93.556 
L 185.941619 94.723874 
L 185.766532 97.744156 
L 186.369099 100.581343 
L 190.046059 100.968522 
L 190.280783 101.915338 
L 187.180378 103.197136 
L 186.675915 105.10508 
L 184.888907 105.844455 
L 181.660877 106.896129 
L 180.820752 108.274793 
L 177.446033 108.566711 
L 175.056344 106.183944 
L 173.732653 101.691161 
L 172.578969 100.116 
L 171.004044 99.123197 
L 173.203664 96.880606 
L 173.054397 95.871981 
L 171.820523 94.533349 
L 170.947335 91.539948 
L 171.287282 88.308979 
L 172.255936 86.796458 
L 173.037641 84.370065 
L 171.502639 83.595866 
L 169.028703 84.109648 
L 165.902391 83.868443 
L 164.148126 84.350221 
L 161.09316 80.473551 
L 158.571675 79.899558 
L 152.990035 80.332776 
L 151.956236 78.761343 
L 150.887888 78.385825 
L 150.735143 77.445529 
L 151.250709 75.778073 
L 150.907985 73.964179 
L 149.950332 72.973012 
L 149.393738 70.901869 
L 147.153073 70.600143 
L 148.356917 67.965743 
L 148.887859 64.751077 
L 150.149345 63.076879 
L 151.829489 61.78518 
L 152.930491 59.532816 
L 155.718573 58.777739 
L 155.595199 59.84223 
L 153.047123 60.367998 
L 154.462904 62.412487 
L 154.409954 64.768457 
L 152.495295 67.385156 
L 154.138286 70.9594 
L 156.009415 70.666894 
L 156.984139 67.410677 
L 155.638225 65.82516 
L 155.41888 62.414705 
L 160.824236 60.583398 
L 160.222898 58.459997 
L 161.744686 57.038746 
L 163.302664 60.204414 
L 166.346666 60.277538 
L 169.166794 62.789739 
L 169.336691 64.281309 
L 173.233934 64.320918 
L 177.871263 63.858029 
L 180.356732 65.875521 
L 183.676278 66.432299 
L 186.111195 65.025028 
L 186.161 63.890581 
L 191.537509 63.618952 
L 196.739058 63.556381 
L 193.053213 64.886927 
L 194.535937 67.013595 
L 198.00722 67.352125 
L 201.298034 69.567393 
L 201.989632 73.176659 
L 204.251709 73.074947 
L 205.952233 74.136709 
L 202.513341 76.783248 
L 202.134032 78.425786 
L 203.619787 80.09756 
L 202.541901 80.941461 
L 199.871031 81.664523 
L 199.957481 83.744854 
L 198.781685 84.984754 
L 201.718988 88.403149 
L 202.293636 89.674378 
" style="fill:#ff0000;stroke:#ffffff;"/>
    <path clip-path="url(#p6fd19557a5)" d="M 218.867449 103.43395 
L 216.46668 103.051805 
L 215.055399 104.249914 
L 213.091448 105.040039 
L 211.719755 105.234893 
L 211.239982 106.117209 
L 209.109489 105.893719 
L 206.439338 103.779998 
L 206.12465 101.695379 
L 205.013538 99.418166 
L 205.704191 95.583197 
L 206.908133 93.995607 
L 205.912591 91.902146 
L 204.421228 91.220213 
L 204.985697 89.242087 
L 203.975568 88.204007 
L 201.718988 88.403149 
L 198.781685 84.984754 
L 199.957481 83.744854 
L 199.871031 81.664523 
L 202.541901 80.941461 
L 203.619787 80.09756 
L 202.134032 78.425786 
L 202.513341 76.783248 
L 205.952233 74.136709 
L 208.802154 75.793788 
L 211.48766 78.728819 
L 211.609558 81.048436 
L 213.244912 81.15518 
L 215.570871 83.352817 
L 217.284388 84.921078 
L 216.590738 88.973659 
L 213.955912 90.149177 
L 214.190637 91.211562 
L 213.38989 93.535839 
L 215.313237 96.807388 
L 216.702761 96.812629 
L 217.27281 99.355976 
L 219.923554 103.27262 
L 218.867449 103.43395 
" style="fill:#ff0000;stroke:#ffffff;"/>
    <path clip-path="url(#p6fd19557a5)" d="M 226.17558 100.475315 
L 224.126078 100.935921 
L 222.380512 100.520801 
L 221.946383 101.825299 
L 222.674451 102.720884 
L 222.283388 103.641378 
L 219.923554 103.27262 
L 217.27281 99.355976 
L 216.702761 96.812629 
L 215.313237 96.807388 
L 213.38989 93.535839 
L 214.190637 91.211562 
L 213.955912 90.149177 
L 216.590738 88.973659 
L 217.284388 84.921078 
L 222.484723 85.823308 
L 222.951488 85.011304 
L 226.454844 84.700644 
L 231.121908 85.911349 
L 228.862229 89.784768 
L 229.205533 92.866881 
L 230.909712 95.536462 
L 230.150991 97.474801 
L 229.769106 99.535363 
L 228.662034 101.429934 
L 226.17558 100.475315 
" style="fill:#ff0000;stroke:#ffffff;"/>
    <path clip-path="url(#p6fd19557a5)" d="M 238.538763 97.243625 
L 237.205813 100.561104 
L 235.542345 102.272341 
L 233.46402 102.594311 
L 232.872071 101.326103 
L 231.901154 101.137763 
L 230.557549 102.359294 
L 228.662034 101.429934 
L 229.769106 99.535363 
L 230.150991 97.474801 
L 230.909712 95.536462 
L 229.205533 92.866881 
L 228.862229 89.784768 
L 231.121908 85.911349 
L 232.595948 86.406992 
L 235.792 87.473242 
L 240.387846 91.275888 
L 241.106417 93.120871 
L 238.538763 97.243625 
" style="fill:#ff0000;stroke:#ffffff;"/>
    <path clip-path="url(#p6fd19557a5)" d="M 138.780907 115.935945 
L 137.42985 118.865075 
L 132.697054 123.582143 
L 127.477638 125.358687 
L 124.817931 129.278405 
L 123.996681 132.317884 
L 121.54265 134.171011 
L 119.720998 131.896308 
L 117.96777 131.409298 
L 116.173725 131.768063 
L 116.056292 130.117259 
L 117.294521 129.044492 
L 116.779966 127.169037 
L 119.090215 123.802223 
L 118.151511 121.834813 
L 116.492503 123.926793 
L 113.892643 121.952647 
L 114.773565 120.6827 
L 114.040636 116.593988 
L 115.56104 115.914656 
L 116.359859 113.108209 
L 118.00238 110.206773 
L 117.699787 108.36833 
L 120.077689 107.401947 
L 123.061757 105.608994 
L 127.403085 108.181324 
L 128.212356 108.109384 
L 129.269824 110.047463 
L 132.953155 110.672522 
L 134.186125 109.955717 
L 136.316635 111.447977 
L 138.175404 112.514907 
L 138.780907 115.935945 
" style="fill:#ff0000;stroke:#ffffff;"/>
    <path clip-path="url(#p6fd19557a5)" d="M 214.144015 205.230335 
L 213.855508 211.345903 
L 218.438377 212.211208 
L 220.210086 211.32886 
L 223.135534 212.564318 
L 223.948426 213.909935 
L 224.352293 218.038275 
L 224.859678 219.772444 
L 226.47806 219.972191 
L 228.106087 219.243742 
L 229.668168 220.061123 
L 229.665925 222.537941 
L 229.077901 225.202168 
L 228.225643 227.801907 
L 227.515933 231.77776 
L 223.578767 235.22887 
L 220.152264 235.936416 
L 215.277743 235.248994 
L 210.900813 234.022854 
L 215.173905 227.174819 
L 214.550786 225.186664 
L 210.08054 223.425768 
L 204.777233 220.098098 
L 201.228516 219.412989 
L 193.247693 212.061728 
L 194.957232 206.667368 
L 195.066667 204.244093 
L 197.148445 200.279629 
L 204.712737 198.968642 
L 208.742903 199.032401 
L 212.786318 201.336677 
L 212.860458 202.725593 
L 214.144015 205.230335 
" style="fill:#ff0000;stroke:#ffffff;"/>
    <path clip-path="url(#p6fd19557a5)" d="M 200.107055 62.770857 
L 201.018558 62.928542 
L 200.844904 66.284769 
L 197.220587 66.780282 
L 196.439302 66.374824 
L 197.698057 65.13596 
L 197.611265 63.356481 
L 200.107055 62.770857 
" style="fill:#ff0000;stroke:#ffffff;"/>
   </g>
   <g id="matplotlib.axis_1">
    <g id="xtick_1">
     <g id="line2d_1">
      <defs>
       <path d="M 0 0 
L 0 3.5 
" id="m8c71735ef7" style="stroke:#000000;stroke-width:0.8;"/>
      </defs>
      <g>
       <use style="stroke:#000000;stroke-width:0.8;" x="118.083562" xlink:href="#m8c71735ef7" y="320.4"/>
      </g>
     </g>
     <g id="text_1">
      <!-- −80 -->
      <g transform="translate(107.531219 334.998438)scale(0.1 -0.1)">
       <defs>
        <path d="M 678 2272 
L 4684 2272 
L 4684 1741 
L 678 1741 
L 678 2272 
z
" id="DejaVuSans-2212" transform="scale(0.015625)"/>
        <path d="M 2034 2216 
Q 1584 2216 1326 1975 
Q 1069 1734 1069 1313 
Q 1069 891 1326 650 
Q 1584 409 2034 409 
Q 2484 409 2743 651 
Q 3003 894 3003 1313 
Q 3003 1734 2745 1975 
Q 2488 2216 2034 2216 
z
M 1403 2484 
Q 997 2584 770 2862 
Q 544 3141 544 3541 
Q 544 4100 942 4425 
Q 1341 4750 2034 4750 
Q 2731 4750 3128 4425 
Q 3525 4100 3525 3541 
Q 3525 3141 3298 2862 
Q 3072 2584 2669 2484 
Q 3125 2378 3379 2068 
Q 3634 1759 3634 1313 
Q 3634 634 3220 271 
Q 2806 -91 2034 -91 
Q 1263 -91 848 271 
Q 434 634 434 1313 
Q 434 1759 690 2068 
Q 947 2378 1403 2484 
z
M 1172 3481 
Q 1172 3119 1398 2916 
Q 1625 2713 2034 2713 
Q 2441 2713 2670 2916 
Q 2900 3119 2900 3481 
Q 2900 3844 2670 4047 
Q 2441 4250 2034 4250 
Q 1625 4250 1398 4047 
Q 1172 3844 1172 3481 
z
" id="DejaVuSans-38" transform="scale(0.015625)"/>
        <path d="M 2034 4250 
Q 1547 4250 1301 3770 
Q 1056 3291 1056 2328 
Q 1056 1369 1301 889 
Q 1547 409 2034 409 
Q 2525 409 2770 889 
Q 3016 1369 3016 2328 
Q 3016 3291 2770 3770 
Q 2525 4250 2034 4250 
z
M 2034 4750 
Q 2819 4750 3233 4129 
Q 3647 3509 3647 2328 
Q 3647 1150 3233 529 
Q 2819 -91 2034 -91 
Q 1250 -91 836 529 
Q 422 1150 422 2328 
Q 422 3509 836 4129 
Q 1250 4750 2034 4750 
z
" id="DejaVuSans-30" transform="scale(0.015625)"/>
       </defs>
       <use xlink:href="#DejaVuSans-2212"/>
       <use x="83.789062" xlink:href="#DejaVuSans-38"/>
       <use x="147.412109" xlink:href="#DejaVuSans-30"/>
      </g>
     </g>
    </g>
    <g id="xtick_2">
     <g id="line2d_2">
      <g>
       <use style="stroke:#000000;stroke-width:0.8;" x="161.489806" xlink:href="#m8c71735ef7" y="320.4"/>
      </g>
     </g>
     <g id="text_2">
      <!-- −70 -->
      <g transform="translate(150.937462 334.998438)scale(0.1 -0.1)">
       <defs>
        <path d="M 525 4666 
L 3525 4666 
L 3525 4397 
L 1831 0 
L 1172 0 
L 2766 4134 
L 525 4134 
L 525 4666 
z
" id="DejaVuSans-37" transform="scale(0.015625)"/>
       </defs>
       <use xlink:href="#DejaVuSans-2212"/>
       <use x="83.789062" xlink:href="#DejaVuSans-37"/>
       <use x="147.412109" xlink:href="#DejaVuSans-30"/>
      </g>
     </g>
    </g>
    <g id="xtick_3">
     <g id="line2d_3">
      <g>
       <use style="stroke:#000000;stroke-width:0.8;" x="204.896049" xlink:href="#m8c71735ef7" y="320.4"/>
      </g>
     </g>
     <g id="text_3">
      <!-- −60 -->
      <g transform="translate(194.343705 334.998438)scale(0.1 -0.1)">
       <defs>
        <path d="M 2113 2584 
Q 1688 2584 1439 2293 
Q 1191 2003 1191 1497 
Q 1191 994 1439 701 
Q 1688 409 2113 409 
Q 2538 409 2786 701 
Q 3034 994 3034 1497 
Q 3034 2003 2786 2293 
Q 2538 2584 2113 2584 
z
M 3366 4563 
L 3366 3988 
Q 3128 4100 2886 4159 
Q 2644 4219 2406 4219 
Q 1781 4219 1451 3797 
Q 1122 3375 1075 2522 
Q 1259 2794 1537 2939 
Q 1816 3084 2150 3084 
Q 2853 3084 3261 2657 
Q 3669 2231 3669 1497 
Q 3669 778 3244 343 
Q 2819 -91 2113 -91 
Q 1303 -91 875 529 
Q 447 1150 447 2328 
Q 447 3434 972 4092 
Q 1497 4750 2381 4750 
Q 2619 4750 2861 4703 
Q 3103 4656 3366 4563 
z
" id="DejaVuSans-36" transform="scale(0.015625)"/>
       </defs>
       <use xlink:href="#DejaVuSans-2212"/>
       <use x="83.789062" xlink:href="#DejaVuSans-36"/>
       <use x="147.412109" xlink:href="#DejaVuSans-30"/>
      </g>
     </g>
    </g>
    <g id="xtick_4">
     <g id="line2d_4">
      <g>
       <use style="stroke:#000000;stroke-width:0.8;" x="248.302293" xlink:href="#m8c71735ef7" y="320.4"/>
      </g>
     </g>
     <g id="text_4">
      <!-- −50 -->
      <g transform="translate(237.749949 334.998438)scale(0.1 -0.1)">
       <defs>
        <path d="M 691 4666 
L 3169 4666 
L 3169 4134 
L 1269 4134 
L 1269 2991 
Q 1406 3038 1543 3061 
Q 1681 3084 1819 3084 
Q 2600 3084 3056 2656 
Q 3513 2228 3513 1497 
Q 3513 744 3044 326 
Q 2575 -91 1722 -91 
Q 1428 -91 1123 -41 
Q 819 9 494 109 
L 494 744 
Q 775 591 1075 516 
Q 1375 441 1709 441 
Q 2250 441 2565 725 
Q 2881 1009 2881 1497 
Q 2881 1984 2565 2268 
Q 2250 2553 1709 2553 
Q 1456 2553 1204 2497 
Q 953 2441 691 2322 
L 691 4666 
z
" id="DejaVuSans-35" transform="scale(0.015625)"/>
       </defs>
       <use xlink:href="#DejaVuSans-2212"/>
       <use x="83.789062" xlink:href="#DejaVuSans-35"/>
       <use x="147.412109" xlink:href="#DejaVuSans-30"/>
      </g>
     </g>
    </g>
   </g>
   <g id="matplotlib.axis_2">
    <g id="ytick_1">
     <g id="line2d_5">
      <defs>
       <path d="M 0 0 
L -3.5 0 
" id="me2ef34e5d8" style="stroke:#000000;stroke-width:0.8;"/>
      </defs>
      <g>
       <use style="stroke:#000000;stroke-width:0.8;" x="104.720358" xlink:href="#me2ef34e5d8" y="292.04745"/>
      </g>
     </g>
     <g id="text_5">
      <!-- −40 -->
      <g transform="translate(76.61567 295.846669)scale(0.1 -0.1)">
       <defs>
        <path d="M 2419 4116 
L 825 1625 
L 2419 1625 
L 2419 4116 
z
M 2253 4666 
L 3047 4666 
L 3047 1625 
L 3713 1625 
L 3713 1100 
L 3047 1100 
L 3047 0 
L 2419 0 
L 2419 1100 
L 313 1100 
L 313 1709 
L 2253 4666 
z
" id="DejaVuSans-34" transform="scale(0.015625)"/>
       </defs>
       <use xlink:href="#DejaVuSans-2212"/>
       <use x="83.789062" xlink:href="#DejaVuSans-34"/>
       <use x="147.412109" xlink:href="#DejaVuSans-30"/>
      </g>
     </g>
    </g>
    <g id="ytick_2">
     <g id="line2d_6">
      <g>
       <use style="stroke:#000000;stroke-width:0.8;" x="104.720358" xlink:href="#me2ef34e5d8" y="246.996827"/>
      </g>
     </g>
     <g id="text_6">
      <!-- −30 -->
      <g transform="translate(76.61567 250.796046)scale(0.1 -0.1)">
       <defs>
        <path d="M 2597 2516 
Q 3050 2419 3304 2112 
Q 3559 1806 3559 1356 
Q 3559 666 3084 287 
Q 2609 -91 1734 -91 
Q 1441 -91 1130 -33 
Q 819 25 488 141 
L 488 750 
Q 750 597 1062 519 
Q 1375 441 1716 441 
Q 2309 441 2620 675 
Q 2931 909 2931 1356 
Q 2931 1769 2642 2001 
Q 2353 2234 1838 2234 
L 1294 2234 
L 1294 2753 
L 1863 2753 
Q 2328 2753 2575 2939 
Q 2822 3125 2822 3475 
Q 2822 3834 2567 4026 
Q 2313 4219 1838 4219 
Q 1578 4219 1281 4162 
Q 984 4106 628 3988 
L 628 4550 
Q 988 4650 1302 4700 
Q 1616 4750 1894 4750 
Q 2613 4750 3031 4423 
Q 3450 4097 3450 3541 
Q 3450 3153 3228 2886 
Q 3006 2619 2597 2516 
z
" id="DejaVuSans-33" transform="scale(0.015625)"/>
       </defs>
       <use xlink:href="#DejaVuSans-2212"/>
       <use x="83.789062" xlink:href="#DejaVuSans-33"/>
       <use x="147.412109" xlink:href="#DejaVuSans-30"/>
      </g>
     </g>
    </g>
    <g id="ytick_3">
     <g id="line2d_7">
      <g>
       <use style="stroke:#000000;stroke-width:0.8;" x="104.720358" xlink:href="#me2ef34e5d8" y="201.946204"/>
      </g>
     </g>
     <g id="text_7">
      <!-- −20 -->
      <g transform="translate(76.61567 205.745422)scale(0.1 -0.1)">
       <defs>
        <path d="M 1228 531 
L 3431 531 
L 3431 0 
L 469 0 
L 469 531 
Q 828 903 1448 1529 
Q 2069 2156 2228 2338 
Q 2531 2678 2651 2914 
Q 2772 3150 2772 3378 
Q 2772 3750 2511 3984 
Q 2250 4219 1831 4219 
Q 1534 4219 1204 4116 
Q 875 4013 500 3803 
L 500 4441 
Q 881 4594 1212 4672 
Q 1544 4750 1819 4750 
Q 2544 4750 2975 4387 
Q 3406 4025 3406 3419 
Q 3406 3131 3298 2873 
Q 3191 2616 2906 2266 
Q 2828 2175 2409 1742 
Q 1991 1309 1228 531 
z
" id="DejaVuSans-32" transform="scale(0.015625)"/>
       </defs>
       <use xlink:href="#DejaVuSans-2212"/>
       <use x="83.789062" xlink:href="#DejaVuSans-32"/>
       <use x="147.412109" xlink:href="#DejaVuSans-30"/>
      </g>
     </g>
    </g>
    <g id="ytick_4">
     <g id="line2d_8">
      <g>
       <use style="stroke:#000000;stroke-width:0.8;" x="104.720358" xlink:href="#me2ef34e5d8" y="156.895581"/>
      </g>
     </g>
     <g id="text_8">
      <!-- −10 -->
      <g transform="translate(76.61567 160.694799)scale(0.1 -0.1)">
       <defs>
        <path d="M 794 531 
L 1825 531 
L 1825 4091 
L 703 3866 
L 703 4441 
L 1819 4666 
L 2450 4666 
L 2450 531 
L 3481 531 
L 3481 0 
L 794 0 
L 794 531 
z
" id="DejaVuSans-31" transform="scale(0.015625)"/>
       </defs>
       <use xlink:href="#DejaVuSans-2212"/>
       <use x="83.789062" xlink:href="#DejaVuSans-31"/>
       <use x="147.412109" xlink:href="#DejaVuSans-30"/>
      </g>
     </g>
    </g>
    <g id="ytick_5">
     <g id="line2d_9">
      <g>
       <use style="stroke:#000000;stroke-width:0.8;" x="104.720358" xlink:href="#me2ef34e5d8" y="111.844957"/>
      </g>
     </g>
     <g id="text_9">
      <!-- 0 -->
      <g transform="translate(91.357858 115.644176)scale(0.1 -0.1)">
       <use xlink:href="#DejaVuSans-30"/>
      </g>
     </g>
    </g>
    <g id="ytick_6">
     <g id="line2d_10">
      <g>
       <use style="stroke:#000000;stroke-width:0.8;" x="104.720358" xlink:href="#me2ef34e5d8" y="66.794334"/>
      </g>
     </g>
     <g id="text_10">
      <!-- 10 -->
      <g transform="translate(84.995358 70.593553)scale(0.1 -0.1)">
       <use xlink:href="#DejaVuSans-31"/>
       <use x="63.623047" xlink:href="#DejaVuSans-30"/>
      </g>
     </g>
    </g>
   </g>
   <g id="patch_3">
    <path d="M 104.720358 320.4 
L 104.720358 43.2 
" style="fill:none;stroke:#000000;stroke-linecap:square;stroke-linejoin:miter;stroke-width:0.8;"/>
   </g>
   <g id="patch_4">
    <path d="M 264.279642 320.4 
L 264.279642 43.2 
" style="fill:none;stroke:#000000;stroke-linecap:square;stroke-linejoin:miter;stroke-width:0.8;"/>
   </g>
   <g id="patch_5">
    <path d="M 104.720358 320.4 
L 264.279642 320.4 
" style="fill:none;stroke:#000000;stroke-linecap:square;stroke-linejoin:miter;stroke-width:0.8;"/>
   </g>
   <g id="patch_6">
    <path d="M 104.720358 43.2 
L 264.279642 43.2 
" style="fill:none;stroke:#000000;stroke-linecap:square;stroke-linejoin:miter;stroke-width:0.8;"/>
   </g>
  </g>
 </g>
 <defs>
  <clipPath id="p6fd19557a5">
   <rect height="277.2" width="159.559284" x="104.720358" y="43.2"/>
  </clipPath>
 </defs>
</svg>
