<?xml version="1.0" encoding="utf-8" standalone="no"?>
<!DOCTYPE svg PUBLIC "-//W3C//DTD SVG 1.1//EN"
  "http://www.w3.org/Graphics/SVG/1.1/DTD/svg11.dtd">
<svg height="360pt" version="1.1" viewBox="0 0 360 360" width="360pt" xmlns="http://www.w3.org/2000/svg" xmlns:xlink="http://www.w3.org/1999/xlink">
 <metadata>
  <rdf:RDF xmlns:cc="http://creativecommons.org/ns#" xmlns:dc="http://purl.org/dc/elements/1.1/" xmlns:rdf="http://www.w3.org/1999/02/22-rdf-syntax-ns#">
   <cc:Work>
    <dc:type rdf:resource="http://purl.org/dc/dcmitype/StillImage"/>
    <dc:date>2021-11-27T04:43:29.484601</dc:date>
    <dc:format>image/svg+xml</dc:format>
    <dc:creator>
     <cc:Agent>
      <dc:title>Matplotlib v3.4.3, https://matplotlib.org/</dc:title>
     </cc:Agent>
    </dc:creator>
   </cc:Work>
  </rdf:RDF>
 </metadata>
 <defs>
  <style type="text/css">*{stroke-linecap:butt;stroke-linejoin:round;}</style>
 </defs>
 <g id="figure_1">
  <g id="patch_1">
   <path d="M 0 360 
L 360 360 
L 360 0 
L 0 0 
z
" style="fill:#ffffff;"/>
  </g>
  <g id="axes_1">
   <g id="patch_2">
    <path d="M 63.97628 320.4 
L 305.02372 320.4 
L 305.02372 43.2 
L 63.97628 43.2 
z
" style="fill:#ffffff;"/>
   </g>
   <g id="PatchCollection_1">
    <path clip-path="url(#p287a052d9c)" d="M 264.561094 171.939547 
L 262.987968 170.057236 
L 263.54601 169.219988 
L 263.752669 169.172174 
L 264.651939 172.096786 
L 264.561094 171.939547 
" style="fill:#808080;stroke:#ffffff;"/>
    <path clip-path="url(#p287a052d9c)" d="M 261.128214 162.909548 
L 257.476307 159.356594 
L 257.73748 157.358987 
L 256.443148 154.409268 
L 252.410094 153.902285 
L 250.714982 155.225532 
L 249.736697 153.743488 
L 245.450474 153.127683 
L 243.262961 149.547241 
L 242.121208 146.435706 
L 240.024424 145.349388 
L 240.986678 142.882503 
L 238.355872 137.00893 
L 239.74421 132.608101 
L 238.93003 131.594811 
L 238.930047 131.594783 
L 241.650791 126.969844 
L 237.37452 124.779686 
L 237.374512 124.779682 
L 241.65215 114.571579 
L 243.258968 109.973007 
L 243.270177 106.330662 
L 237.500387 103.235978 
L 237.313032 98.670846 
L 233.262295 94.60463 
L 233.313513 88.524391 
L 227.928847 82.0648 
L 228.695535 76.522161 
L 223.585296 73.304111 
L 222.545339 68.683319 
L 224.245511 67.550164 
L 227.281611 63.783742 
L 227.281676 63.783658 
L 227.947154 62.491417 
L 261.902732 163.199239 
L 261.128214 162.909548 
" style="fill:#808080;stroke:#ffffff;"/>
    <path clip-path="url(#p287a052d9c)" d="M 220.517009 171.105201 
L 215.593692 171.033804 
L 216.06898 167.958483 
L 221.042903 164.999242 
L 225.244545 165.508065 
L 227.128075 166.269666 
L 227.048573 168.171091 
L 227.666422 169.819782 
L 220.517009 171.105201 
" style="fill:#808080;stroke:#ffffff;"/>
    <path clip-path="url(#p287a052d9c)" d="M 224.245511 67.550164 
L 222.545339 68.683319 
L 222.103441 63.883893 
L 218.419813 62.118913 
L 215.52268 65.211 
L 215.639905 70.261423 
L 214.072863 73.673181 
L 211.102185 72.63338 
L 208.007835 73.566559 
L 204.658863 70.539164 
L 203.5346 72.518894 
L 202.080141 73.018981 
L 202.426325 77.438852 
L 197.576493 76.986014 
L 197.381411 80.775724 
L 194.928957 81.011483 
L 193.708725 85.929994 
L 191.677217 93.578226 
L 187.925472 103.304794 
L 189.123972 105.546171 
L 188.248052 108.268734 
L 185.282905 108.28373 
L 183.532934 114.668433 
L 183.994337 123.621779 
L 186.186791 126.974314 
L 185.378976 134.950712 
L 182.659834 139.658384 
L 181.193901 143.580749 
L 178.813038 139.454832 
L 171.803984 147.212363 
L 166.977807 148.644062 
L 162.233778 144.952215 
L 161.472368 137.618074 
L 161.558718 121.990746 
L 164.770206 117.844741 
L 173.169484 112.50803 
L 179.133572 105.590395 
L 184.172589 96.098827 
L 189.899201 82.803322 
L 193.697641 77.422166 
L 199.289256 68.309342 
L 203.881906 64.642369 
L 207.708724 64.314205 
L 209.855998 58.191043 
L 213.892648 57.562826 
L 215.017953 56.839204 
L 218.880142 55.8 
L 225.663127 57.942703 
L 223.437601 60.535517 
L 227.281611 63.783742 
L 224.245511 67.550164 
" style="fill:#808080;stroke:#ffffff;"/>
    <path clip-path="url(#p287a052d9c)" d="M 162.77175 208.5916 
L 169.12399 210.064138 
L 166.727395 214.625931 
L 165.994534 219.419706 
L 164.696958 220.527993 
L 162.634269 219.820853 
L 162.708752 221.542904 
L 159.150102 225.171311 
L 158.92381 228.222151 
L 161.209512 227.277637 
L 162.694338 230.308654 
L 162.421486 232.206582 
L 163.721495 234.796559 
L 161.982306 236.782118 
L 163.019586 242.049938 
L 165.62947 243.000947 
L 164.977164 245.907302 
L 160.362968 249.532502 
L 150.718752 247.131567 
L 143.362632 248.720122 
L 142.443621 252.710644 
L 136.57227 252.99418 
L 131.308078 249.310188 
L 129.335539 250.529224 
L 120.655608 246.201602 
L 119.090374 243.298785 
L 122.186428 239.685463 
L 125.020018 226.498569 
L 121.343254 218.722482 
L 118.56703 214.767937 
L 112.199894 210.915319 
L 112.69905 205.973908 
L 118.646936 205.616743 
L 125.746266 208.601032 
L 125.561627 200.802569 
L 129.213595 204.32073 
L 140.010854 200.448505 
L 141.933008 195.086258 
L 145.784887 194.130546 
L 146.160442 196.562218 
L 148.132429 196.866719 
L 149.881778 199.754259 
L 152.643494 203.185134 
L 154.915537 202.826043 
L 158.543509 206.152598 
L 159.494549 206.795429 
L 160.772716 206.721141 
L 162.77175 208.5916 
" style="fill:#808080;stroke:#ffffff;"/>
    <path clip-path="url(#p287a052d9c)" d="M 174.547501 250.718847 
L 175.36142 256.499384 
L 173.646262 261.684222 
L 171.347681 260.283996 
L 170.250298 255.73479 
L 171.30519 253.251059 
L 174.547501 250.718847 
" style="fill:#808080;stroke:#ffffff;"/>
    <path clip-path="url(#p287a052d9c)" d="M 167.101265 306.644357 
L 168.529111 301.16903 
L 167.775391 294.77844 
L 168.955534 291.369146 
L 174.919472 288.747353 
L 178.723484 289.557782 
L 178.57088 292.94486 
L 183.189629 290.44504 
L 183.593918 291.725484 
L 180.883483 295.034044 
L 180.867571 298.127112 
L 182.803358 299.768481 
L 182.124448 305.556133 
L 179.677791 307.8 
L 166.111194 307.654901 
L 167.101265 306.644357 
" style="fill:#ff0000;stroke:#ffffff;"/>
    <path clip-path="url(#p287a052d9c)" d="M 111.26849 302.560697 
L 109.75442 297.991427 
L 115.532826 295.177572 
L 121.611426 294.851194 
L 125.380162 292.550644 
L 130.848347 291.143251 
L 140.193395 290.881727 
L 149.251485 291.046957 
L 151.94976 292.21646 
L 157.216456 289.862833 
L 163.036116 290.053942 
L 165.210228 291.682083 
L 168.955534 291.369146 
L 167.775391 294.77844 
L 168.529111 301.16903 
L 167.101265 306.644357 
L 166.111194 307.654901 
L 111.259085 302.74792 
L 111.26849 302.560697 
" style="fill:#ff0000;stroke:#ffffff;"/>
    <path clip-path="url(#p287a052d9c)" d="M 182.659834 139.658384 
L 185.378976 134.950712 
L 186.186791 126.974314 
L 183.994337 123.621779 
L 183.532934 114.668433 
L 185.282905 108.28373 
L 188.248052 108.268734 
L 189.123972 105.546171 
L 187.925472 103.304794 
L 191.677217 93.578226 
L 193.708725 85.929994 
L 194.928957 81.011483 
L 197.381411 80.775724 
L 197.576493 76.986014 
L 202.426325 77.438852 
L 202.080141 73.018981 
L 203.5346 72.518894 
L 207.379594 75.216682 
L 212.194918 78.978265 
L 214.482449 89.115181 
L 215.956538 91.498944 
L 211.634173 94.268715 
L 209.77442 99.362821 
L 210.944759 103.362293 
L 207.132659 109.438116 
L 202.02632 115.939986 
L 200.792815 125.641728 
L 203.661553 130.127796 
L 207.318946 133.474702 
L 205.113777 141.422743 
L 201.647716 143.373876 
L 201.373677 154.81177 
L 199.819559 161.311818 
L 195.196151 160.996278 
L 193.376879 166.485995 
L 188.933488 167.015432 
L 187.468331 160.669288 
L 184.118031 153.090855 
L 181.193901 143.580749 
L 182.659834 139.658384 
" style="fill:#808080;stroke:#ffffff;"/>
    <path clip-path="url(#p287a052d9c)" d="M 249.736697 153.743488 
L 250.714982 155.225532 
L 252.410094 153.902285 
L 256.443148 154.409268 
L 257.73748 157.358987 
L 257.476307 159.356594 
L 261.128214 162.909548 
L 261.902732 163.199239 
L 263.752669 169.172174 
L 263.54601 169.219988 
L 262.987968 170.057236 
L 264.561094 171.939547 
L 264.651939 172.096786 
L 265.907997 176.205324 
L 263.523443 177.235 
L 262.714914 179.033249 
L 263.406512 182.400363 
L 261.617267 182.23311 
L 258.044146 183.569252 
L 256.570414 182.320606 
L 255.347949 183.872096 
L 253.573861 183.318345 
L 250.335524 183.992047 
L 245.415637 183.484604 
L 241.18489 183.878535 
L 238.051236 184.687273 
L 236.157899 186.939978 
L 234.234358 187.57819 
L 233.599706 184.624135 
L 231.768724 181.767462 
L 233.934651 179.949531 
L 233.443476 177.288971 
L 231.853406 174.96488 
L 231.119525 172.048274 
L 234.908981 171.351659 
L 238.58849 167.959222 
L 238.638251 164.020322 
L 241.242929 161.19004 
L 240.183394 158.312012 
L 242.165614 156.66195 
L 245.450474 153.127683 
L 249.736697 153.743488 
" style="fill:#808080;stroke:#ffffff;"/>
    <path clip-path="url(#p287a052d9c)" d="M 272.958268 213.158573 
L 272.275404 217.243431 
L 270.023424 223.071828 
L 267.65737 222.502107 
L 265.759184 224.125833 
L 263.413118 223.435142 
L 264.397359 222.426104 
L 264.645841 219.960975 
L 265.368652 217.538318 
L 264.755498 216.443501 
L 265.565233 215.670517 
L 266.238825 216.463176 
L 268.941121 215.937606 
L 270.002244 215.122939 
L 268.990757 214.689673 
L 269.049032 213.623943 
L 267.054461 212.382942 
L 265.700045 209.810131 
L 263.815626 209.165816 
L 263.561353 206.852666 
L 261.136394 205.602965 
L 259.279067 205.81896 
L 255.569865 204.56378 
L 252.820673 205.91098 
L 251.995107 207.130029 
L 250.141427 207.550562 
L 249.365859 209.347028 
L 246.227749 210.688758 
L 244.912856 212.024184 
L 242.52966 210.815297 
L 239.673468 211.343182 
L 236.787186 211.113853 
L 235.106489 212.885281 
L 234.493658 211.149077 
L 231.727366 209.749568 
L 232.150155 206.910016 
L 233.075324 204.962361 
L 234.095763 205.185693 
L 232.461112 202.379226 
L 235.380812 196.12727 
L 237.340375 194.95235 
L 237.435116 192.9955 
L 234.234358 187.57819 
L 236.157899 186.939978 
L 238.051236 184.687273 
L 241.18489 183.878535 
L 245.415637 183.484604 
L 250.335524 183.992047 
L 253.573861 183.318345 
L 255.347949 183.872096 
L 256.570414 182.320606 
L 258.044146 183.569252 
L 261.617267 182.23311 
L 263.406512 182.400363 
L 262.714914 179.033249 
L 263.523443 177.235 
L 265.907997 176.205324 
L 276.324002 211.407558 
L 272.958268 213.158573 
" style="fill:#808080;stroke:#ffffff;"/>
    <path clip-path="url(#p287a052d9c)" d="M 231.853406 174.96488 
L 233.443476 177.288971 
L 233.934651 179.949531 
L 231.768724 181.767462 
L 233.599706 184.624135 
L 234.234358 187.57819 
L 237.435116 192.9955 
L 237.340375 194.95235 
L 235.380812 196.12727 
L 232.461112 202.379226 
L 234.095763 205.185693 
L 233.075324 204.962361 
L 228.515758 203.080496 
L 225.523472 204.51197 
L 223.364522 204.124836 
L 220.975852 205.921681 
L 218.464264 203.83058 
L 216.780644 204.966916 
L 216.485442 204.590992 
L 214.098757 201.516018 
L 210.836046 201.463152 
L 210.209702 199.397212 
L 207.188016 198.935141 
L 206.705013 200.735601 
L 204.240614 199.547514 
L 204.352028 197.669055 
L 201.107308 197.339007 
L 198.93191 195.310923 
L 196.918491 191.112527 
L 197.095067 188.762766 
L 195.844536 185.213086 
L 194.215998 182.89167 
L 195.243451 181.022001 
L 194.098864 177.638155 
L 196.700215 175.485615 
L 202.616365 171.887049 
L 207.305183 169.128525 
L 211.31561 169.826569 
L 211.81108 171.431327 
L 215.593692 171.033804 
L 220.517009 171.105201 
L 227.666422 169.819782 
L 229.792626 170.170041 
L 231.119525 172.048274 
L 231.853406 174.96488 
" style="fill:#ffa500;stroke:#ffffff;"/>
    <path clip-path="url(#p287a052d9c)" d="M 209.053712 217.510653 
L 206.494977 217.75388 
L 207.501065 219.137009 
L 206.337222 223.605263 
L 205.544662 224.81512 
L 201.495801 225.288667 
L 199.242333 226.973272 
L 195.35845 226.66988 
L 188.62948 225.204298 
L 187.525334 222.887063 
L 182.979318 224.163309 
L 182.458029 225.456173 
L 179.634563 224.52404 
L 177.267694 224.346408 
L 175.178104 223.108067 
L 175.89279 221.458433 
L 175.72116 220.258442 
L 177.105067 219.89061 
L 179.431648 221.762409 
L 180.074464 219.975009 
L 184.118174 220.209286 
L 187.359852 218.918981 
L 189.555326 219.055854 
L 191.032664 220.385047 
L 191.414454 219.220264 
L 190.59954 214.845101 
L 192.183249 213.920172 
L 193.620633 210.732515 
L 197.055869 212.727125 
L 199.396825 209.80797 
L 200.925147 209.196083 
L 204.531515 210.989558 
L 206.594335 210.46124 
L 208.763342 211.54525 
L 208.482964 212.434381 
L 209.145079 214.726239 
L 209.053712 217.510653 
" style="fill:#808080;stroke:#ffffff;"/>
    <path clip-path="url(#p287a052d9c)" d="M 234.493658 211.149077 
L 235.106489 212.885281 
L 232.596292 214.752674 
L 231.160524 219.636045 
L 229.052823 224.603085 
L 225.504705 226.403374 
L 222.56024 226.496948 
L 219.190838 228.707486 
L 219.19078 228.707529 
L 217.54793 229.91575 
L 213.533019 229.044981 
L 209.765532 226.502566 
L 208.213712 225.80814 
L 207.121117 223.61364 
L 206.337222 223.605263 
L 207.501065 219.137009 
L 206.494977 217.75388 
L 209.053712 217.510653 
L 209.145079 214.726239 
L 211.607862 216.224123 
L 213.351993 216.783732 
L 217.059619 215.532305 
L 217.266443 214.139474 
L 219.028458 213.72208 
L 221.080927 212.399186 
L 221.620084 212.764106 
L 223.607662 211.639389 
L 224.433688 209.91365 
L 225.828945 209.293038 
L 230.889316 210.589381 
L 231.727366 209.749568 
L 234.493658 211.149077 
" style="fill:#808080;stroke:#ffffff;"/>
    <path clip-path="url(#p287a052d9c)" d="M 252.820673 205.91098 
L 255.569865 204.56378 
L 259.279067 205.81896 
L 261.136394 205.602965 
L 263.561353 206.852666 
L 263.815626 209.165816 
L 265.700045 209.810131 
L 267.054461 212.382942 
L 269.049032 213.623943 
L 268.990757 214.689673 
L 270.002244 215.122939 
L 268.941121 215.937606 
L 266.238825 216.463176 
L 265.565233 215.670517 
L 264.755498 216.443501 
L 265.368652 217.538318 
L 264.645841 219.960975 
L 264.397359 222.426104 
L 263.413118 223.435142 
L 261.878453 220.631422 
L 261.687909 217.694995 
L 260.849979 214.83641 
L 257.343498 211.548719 
L 255.291222 209.101344 
L 253.478963 207.463614 
L 251.995107 207.130029 
L 252.820673 205.91098 
" style="fill:#808080;stroke:#ffffff;"/>
    <path clip-path="url(#p287a052d9c)" d="M 265.759184 224.125833 
L 267.65737 222.502107 
L 270.023424 223.071828 
L 270.563609 224.736904 
L 268.676982 226.752327 
L 267.116415 226.505362 
L 267.717942 234.786166 
L 264.766961 234.792886 
L 260.779234 233.22436 
L 255.519097 236.034316 
L 253.489215 238.235628 
L 246.368155 239.307579 
L 242.490427 238.956418 
L 240.705999 239.776096 
L 238.877166 237.273985 
L 237.814633 236.26007 
L 238.738452 234.94551 
L 237.431134 234.314773 
L 236.170896 236.059961 
L 233.097315 234.564815 
L 232.317592 231.86692 
L 229.217581 230.728493 
L 228.393332 228.675425 
L 225.504705 226.403374 
L 229.052823 224.603085 
L 231.160524 219.636045 
L 232.596292 214.752674 
L 235.106489 212.885281 
L 236.787186 211.113853 
L 239.673468 211.343182 
L 242.52966 210.815297 
L 244.912856 212.024184 
L 246.227749 210.688758 
L 249.365859 209.347028 
L 250.141427 207.550562 
L 251.995107 207.130029 
L 253.478963 207.463614 
L 255.291222 209.101344 
L 257.343498 211.548719 
L 260.849979 214.83641 
L 261.687909 217.694995 
L 261.878453 220.631422 
L 263.413118 223.435142 
L 265.759184 224.125833 
" style="fill:#808080;stroke:#ffffff;"/>
    <path clip-path="url(#p287a052d9c)" d="M 241.242929 161.19004 
L 238.638251 164.020322 
L 238.58849 167.959222 
L 234.908981 171.351659 
L 231.119525 172.048274 
L 229.792626 170.170041 
L 227.666422 169.819782 
L 227.048573 168.171091 
L 227.128075 166.269666 
L 225.244545 165.508065 
L 221.042903 164.999242 
L 219.336605 159.497353 
L 223.25442 156.748032 
L 229.532402 156.033341 
L 233.008509 154.640041 
L 233.823905 155.910962 
L 235.879214 155.911556 
L 240.183394 158.312012 
L 241.242929 161.19004 
" style="fill:#808080;stroke:#ffffff;"/>
    <path clip-path="url(#p287a052d9c)" d="M 242.121208 146.435706 
L 243.262961 149.547241 
L 245.450474 153.127683 
L 242.165614 156.66195 
L 240.183394 158.312012 
L 235.879214 155.911556 
L 233.823905 155.910962 
L 233.008509 154.640041 
L 229.532402 156.033341 
L 223.25442 156.748032 
L 219.336605 159.497353 
L 218.657103 154.437846 
L 219.749832 149.951197 
L 222.722966 147.094493 
L 226.519316 151.551194 
L 229.396972 150.856351 
L 229.018264 145.616742 
L 231.76396 143.813229 
L 233.488218 144.286486 
L 237.106531 146.042596 
L 240.024424 145.349388 
L 242.121208 146.435706 
" style="fill:#ffa500;stroke:#ffffff;"/>
    <path clip-path="url(#p287a052d9c)" d="M 238.93003 131.594811 
L 239.74421 132.608101 
L 238.355872 137.00893 
L 240.986678 142.882503 
L 240.024424 145.349388 
L 237.106531 146.042596 
L 233.488218 144.286486 
L 231.76396 143.813229 
L 229.018264 145.616742 
L 228.592416 141.616763 
L 227.487018 142.714326 
L 224.796032 140.785096 
L 223.736005 137.021011 
L 227.63718 134.313603 
L 231.645211 132.426959 
L 235.540465 132.658532 
L 238.929978 131.594698 
L 238.930047 131.594783 
L 238.93003 131.594811 
" style="fill:#808080;stroke:#ffffff;"/>
    <path clip-path="url(#p287a052d9c)" d="M 195.243451 181.022001 
L 194.215998 182.89167 
L 195.844536 185.213086 
L 197.095067 188.762766 
L 196.918491 191.112527 
L 198.93191 195.310923 
L 197.079554 196.140261 
L 195.910579 195.432083 
L 194.915634 196.77937 
L 191.908867 198.243736 
L 190.383985 199.996824 
L 187.293762 201.580651 
L 188.118008 203.566111 
L 188.676057 206.401415 
L 190.986496 207.940876 
L 193.620633 210.732515 
L 192.183249 213.920172 
L 190.59954 214.845101 
L 191.414454 219.220264 
L 191.032664 220.385047 
L 189.555326 219.055854 
L 187.359852 218.918981 
L 184.118174 220.209286 
L 180.074464 219.975009 
L 179.431648 221.762409 
L 177.105067 219.89061 
L 175.72116 220.258442 
L 170.850301 218.129971 
L 169.882681 219.577835 
L 165.994534 219.419706 
L 166.727395 214.625931 
L 169.12399 210.064138 
L 162.77175 208.5916 
L 160.772716 206.721141 
L 161.170579 203.771924 
L 160.380742 202.20043 
L 161.111474 197.661042 
L 160.780381 190.541009 
L 163.29425 190.666272 
L 164.465755 188.168875 
L 165.749549 182.01969 
L 165.0882 179.701648 
L 165.934015 178.30194 
L 169.300631 178.049108 
L 170.005396 179.561308 
L 172.79966 176.283183 
L 171.939247 173.729973 
L 171.837835 169.888927 
L 174.773911 170.826158 
L 177.27671 169.809614 
L 177.343317 172.425236 
L 181.337916 173.977847 
L 181.327531 176.38032 
L 185.346759 175.028628 
L 187.511899 173.106913 
L 192.097332 175.58651 
L 194.098864 177.638155 
L 195.243451 181.022001 
" style="fill:#808080;stroke:#ffffff;"/>
    <path clip-path="url(#p287a052d9c)" d="M 240.705999 239.776096 
L 242.490427 238.956418 
L 246.368155 239.307579 
L 253.489215 238.235628 
L 255.519097 236.034316 
L 260.779234 233.22436 
L 264.766961 234.792886 
L 267.717942 234.786166 
L 265.882154 238.136339 
L 265.188469 243.283304 
L 267.604595 246.663391 
L 263.194807 246.785588 
L 258.615524 249.995254 
L 259.220898 253.30261 
L 254.804062 254.885899 
L 250.859442 253.271537 
L 247.172614 255.855864 
L 243.425321 256.327535 
L 242.366457 251.986388 
L 239.544276 250.269691 
L 240.211722 249.192844 
L 239.552863 248.489744 
L 240.047254 246.229079 
L 241.575086 243.823982 
L 238.752139 241.352189 
L 237.934155 238.988312 
L 238.877166 237.273985 
L 240.705999 239.776096 
" style="fill:#808080;stroke:#ffffff;"/>
    <path clip-path="url(#p287a052d9c)" d="M 267.55298 294.982689 
L 259.746689 297.150465 
L 259.618737 296.051018 
L 252.708383 296.00634 
L 253.282971 293.014391 
L 256.630329 294.692598 
L 260.824586 293.496339 
L 264.969406 293.139654 
L 265.044572 294.313766 
L 267.874632 292.894433 
L 267.55298 294.982689 
" style="fill:#808080;stroke:#ffffff;"/>
    <path clip-path="url(#p287a052d9c)" d="M 247.172614 255.855864 
L 250.859442 253.271537 
L 254.804062 254.885899 
L 259.220898 253.30261 
L 258.615524 249.995254 
L 261.3822 251.212978 
L 260.682295 255.693848 
L 259.637826 256.695656 
L 256.538666 257.15738 
L 253.796432 257.067365 
L 247.983452 259.968048 
L 252.150642 263.035821 
L 249.738046 264.609386 
L 246.882248 265.13582 
L 243.630947 262.184285 
L 242.898305 263.807142 
L 244.660565 267.584379 
L 247.743904 270.250594 
L 246.011456 272.049288 
L 249.409614 274.596163 
L 252.325714 276.04326 
L 253.027018 279.77182 
L 247.840891 278.897164 
L 249.937871 282.004438 
L 246.652683 283.287407 
L 249.57885 288.789169 
L 245.99236 289.479215 
L 241.149529 287.297398 
L 238.420597 282.28509 
L 236.904227 277.995893 
L 234.44878 275.231747 
L 231.287705 271.801947 
L 230.702483 269.949568 
L 232.703703 266.381765 
L 232.731902 264.169495 
L 234.268213 262.962002 
L 234.134881 261.194096 
L 237.378103 260.100265 
L 239.096855 258.3372 
L 241.853796 258.014973 
L 242.501649 256.713655 
L 243.425321 256.327535 
L 247.172614 255.855864 
" style="fill:#808080;stroke:#ffffff;"/>
    <path clip-path="url(#p287a052d9c)" d="M 289.143113 278.147611 
L 288.578555 281.193606 
L 285.090126 282.95592 
L 279.168354 280.788671 
L 273.394036 282.315547 
L 268.922171 276.495789 
L 264.367038 273.69123 
L 265.874331 267.999739 
L 261.98526 265.565907 
L 266.33573 257.981768 
L 274.006847 255.829267 
L 274.917843 250.294735 
L 284.513383 248.573012 
L 286.110604 246.56906 
L 294.067018 276.949697 
L 289.143113 278.147611 
" style="fill:#808080;stroke:#ffffff;"/>
    <path clip-path="url(#p287a052d9c)" d="M 263.194807 246.785588 
L 267.604595 246.663391 
L 268.759386 249.053677 
L 273.551924 250.092662 
L 273.030125 251.934785 
L 267.211607 253.756848 
L 265.517163 256.299236 
L 262.040612 260.808058 
L 259.838771 258.07561 
L 259.637826 256.695656 
L 260.682295 255.693848 
L 261.3822 251.212978 
L 258.615524 249.995254 
L 263.194807 246.785588 
" style="fill:#808080;stroke:#ffffff;"/>
    <path clip-path="url(#p287a052d9c)" d="M 234.268213 262.962002 
L 232.731902 264.169495 
L 232.703703 266.381765 
L 230.702483 269.949568 
L 229.76235 269.600211 
L 229.481984 268.145166 
L 226.357388 266.269752 
L 225.547872 263.140312 
L 225.454961 258.523231 
L 225.901665 256.35956 
L 224.932429 255.411965 
L 224.932423 255.411944 
L 224.349081 253.324092 
L 226.115483 249.752651 
L 226.58412 250.970712 
L 227.846084 250.200732 
L 229.131885 251.851587 
L 230.411694 252.370291 
L 231.065032 254.745183 
L 231.06504 254.745214 
L 230.721682 257.108891 
L 231.810886 259.872575 
L 234.134881 261.194096 
L 234.268213 262.962002 
" style="fill:#808080;stroke:#ffffff;"/>
    <path clip-path="url(#p287a052d9c)" d="M 209.765532 226.502566 
L 213.533019 229.044981 
L 217.54793 229.91575 
L 219.19078 228.707529 
L 220.633699 231.169535 
L 222.363255 232.894278 
L 220.828967 235.645684 
L 218.505481 234.415222 
L 215.221144 234.872395 
L 211.01993 234.165879 
L 208.808001 234.517576 
L 207.887827 236.003011 
L 206.053247 234.598733 
L 205.26064 237.471461 
L 207.861255 240.427805 
L 209.080729 242.422438 
L 211.535622 244.732227 
L 213.537136 246.041674 
L 215.660036 248.660226 
L 220.302184 250.723648 
L 219.87578 251.925305 
L 219.875778 251.925311 
L 214.957195 249.941414 
L 211.871009 247.800883 
L 207.206514 246.192843 
L 202.749915 241.548881 
L 203.695337 240.976773 
L 201.307506 238.297097 
L 201.075308 236.029229 
L 197.940198 235.155395 
L 196.623366 238.145384 
L 195.096747 235.960908 
L 195.093784 233.614611 
L 195.258142 233.497128 
L 198.583183 233.546599 
L 199.386626 232.356423 
L 201.067839 233.353175 
L 202.940857 233.355139 
L 202.794347 231.473767 
L 204.386508 230.662718 
L 204.642075 227.906393 
L 208.213712 225.80814 
L 209.765532 226.502566 
" style="fill:#808080;stroke:#ffffff;"/>
    <path clip-path="url(#p287a052d9c)" d="M 175.89279 221.458433 
L 175.178104 223.108067 
L 177.267694 224.346408 
L 179.634563 224.52404 
L 179.279662 227.295113 
L 177.219029 228.438154 
L 173.757915 227.571054 
L 172.708319 230.281421 
L 170.459024 230.457585 
L 169.664974 229.370135 
L 166.963179 231.589534 
L 164.671691 231.834185 
L 162.694338 230.308654 
L 161.209512 227.277637 
L 158.92381 228.222151 
L 159.150102 225.171311 
L 162.708752 221.542904 
L 162.634269 219.820853 
L 164.696958 220.527993 
L 165.994534 219.419706 
L 169.882681 219.577835 
L 170.850301 218.129971 
L 175.72116 220.258442 
L 175.89279 221.458433 
" style="fill:#808080;stroke:#ffffff;"/>
    <path clip-path="url(#p287a052d9c)" d="M 161.170579 203.771924 
L 160.772716 206.721141 
L 159.494549 206.795429 
L 158.543509 206.152598 
L 159.234608 202.39212 
L 160.380742 202.20043 
L 161.170579 203.771924 
" style="fill:#808080;stroke:#ffffff;"/>
    <path clip-path="url(#p287a052d9c)" d="M 160.380742 202.20043 
L 159.234608 202.39212 
L 158.543509 206.152598 
L 154.915537 202.826043 
L 152.643494 203.185134 
L 149.881778 199.754259 
L 148.132429 196.866719 
L 146.160442 196.562218 
L 145.784887 194.130546 
L 149.298477 193.130625 
L 149.298645 193.13067 
L 149.298461 193.1308 
L 152.344247 193.928543 
L 156.362396 192.820883 
L 158.853346 195.950552 
L 161.111474 197.661042 
L 160.380742 202.20043 
" style="fill:#808080;stroke:#ffffff;"/>
    <path clip-path="url(#p287a052d9c)" d="M 165.749549 182.01969 
L 164.465755 188.168875 
L 163.29425 190.666272 
L 160.780381 190.541009 
L 161.111474 197.661042 
L 158.853346 195.950552 
L 156.362396 192.820883 
L 152.344247 193.928543 
L 149.298461 193.1308 
L 149.298645 193.13067 
L 151.629054 191.468953 
L 156.031018 181.82423 
L 161.747826 179.348392 
L 165.0882 179.701648 
L 165.749549 182.01969 
" style="fill:#ffa500;stroke:#ffffff;"/>
    <path clip-path="url(#p287a052d9c)" d="M 84.453535 245.000736 
L 86.663021 244.541628 
L 87.155234 248.070344 
L 90.060734 248.761909 
L 91.083098 248.126657 
L 93.901359 249.017433 
L 94.603154 252.643367 
L 91.934204 253.915608 
L 90.800452 259.053386 
L 89.779376 259.831877 
L 88.927014 262.903619 
L 86.611806 262.934018 
L 87.835608 267.363511 
L 85.511198 271.363208 
L 86.905362 273.735864 
L 85.822731 275.362825 
L 83.367565 277.379819 
L 83.357883 279.661366 
L 80.873799 280.866099 
L 78.279008 279.266364 
L 75.393691 279.308252 
L 77.339541 274.376372 
L 77.756519 270.216195 
L 75.582235 269.016745 
L 74.932982 266.209326 
L 76.3527 262.022756 
L 78.931304 260.166391 
L 79.90685 257.603189 
L 81.869164 253.918077 
L 82.407312 251.103754 
L 81.977112 248.48877 
L 82.288311 246.216576 
L 84.453535 245.000736 
" style="fill:#808080;stroke:#ffffff;"/>
    <path clip-path="url(#p287a052d9c)" d="M 83.367565 277.379819 
L 85.822731 275.362825 
L 86.905362 273.735864 
L 85.511198 271.363208 
L 87.835608 267.363511 
L 86.611806 262.934018 
L 88.927014 262.903619 
L 89.779376 259.831877 
L 90.800452 259.053386 
L 91.934204 253.915608 
L 94.603154 252.643367 
L 93.901359 249.017433 
L 91.083098 248.126657 
L 90.060734 248.761909 
L 87.155234 248.070344 
L 86.663021 244.541628 
L 84.453535 245.000736 
L 82.288311 246.216576 
L 83.653091 241.597116 
L 82.383852 238.228845 
L 90.259252 235.206403 
L 95.830194 237.783626 
L 102.279088 239.152288 
L 107.196314 241.32253 
L 111.277261 241.731621 
L 119.090374 243.298785 
L 120.655608 246.201602 
L 129.335539 250.529224 
L 131.308078 249.310188 
L 136.57227 252.99418 
L 142.443621 252.710644 
L 142.374808 256.633951 
L 137.166305 260.625183 
L 130.492953 261.298926 
L 129.783665 263.492899 
L 126.192058 266.79545 
L 123.530777 271.960572 
L 125.117842 276.044865 
L 121.700566 278.608116 
L 120.008707 282.775866 
L 115.794951 283.512851 
L 111.280619 288.028421 
L 104.411739 286.97588 
L 99.300382 285.909376 
L 95.528722 287.588803 
L 93.025128 289.668857 
L 90.477421 288.574904 
L 88.898355 285.923637 
L 88.108739 281.802693 
L 83.357883 279.661366 
L 83.367565 277.379819 
" style="fill:#ffa500;stroke:#ffffff;"/>
    <path clip-path="url(#p287a052d9c)" d="M 112.956514 175.012926 
L 108.576253 180.227907 
L 100.453797 182.341786 
L 95.015683 179.791531 
L 100.126832 173.838665 
L 99.947463 166.609394 
L 106.527785 162.874064 
L 110.168767 160.526998 
L 110.057064 164.253116 
L 108.383744 167.591821 
L 110.787827 168.084466 
L 113.391062 170.134126 
L 112.956514 175.012926 
" style="fill:#808080;stroke:#ffffff;"/>
    <path clip-path="url(#p287a052d9c)" d="M 182.458029 225.456173 
L 182.979318 224.163309 
L 187.525334 222.887063 
L 188.62948 225.204298 
L 195.35845 226.66988 
L 195.011824 230.018108 
L 196.285187 232.831284 
L 192.46717 232.02825 
L 188.687955 234.564382 
L 189.053555 237.904372 
L 188.519852 239.843892 
L 190.217223 243.22441 
L 194.940693 246.430057 
L 197.69386 251.869772 
L 203.584008 256.94811 
L 207.534695 256.616075 
L 208.876283 258.001199 
L 207.553417 259.452327 
L 212.300362 261.49466 
L 216.230024 263.166299 
L 220.974121 266.194076 
L 221.636427 267.383845 
L 220.90992 269.886548 
L 217.729963 267.067314 
L 213.145469 266.398574 
L 211.310357 270.924539 
L 215.292284 273.067417 
L 214.964494 276.61753 
L 212.788008 277.213053 
L 210.374965 283.188294 
L 208.173411 283.87622 
L 208.057266 281.8292 
L 208.897725 278.156945 
L 209.946379 276.636206 
L 207.616827 272.914426 
L 205.796971 269.650846 
L 203.586622 268.963324 
L 201.888032 266.164873 
L 198.510667 265.135901 
L 196.163143 262.548437 
L 192.360398 262.275941 
L 188.284684 259.3716 
L 183.573059 255.092245 
L 180.130097 251.251454 
L 178.560242 244.596825 
L 176.127228 243.811323 
L 172.183636 241.548477 
L 169.929388 242.419393 
L 167.032023 245.477488 
L 164.977164 245.907302 
L 165.62947 243.000947 
L 163.019586 242.049938 
L 161.982306 236.782118 
L 163.721495 234.796559 
L 162.421486 232.206582 
L 162.694338 230.308654 
L 164.671691 231.834185 
L 166.963179 231.589534 
L 169.664974 229.370135 
L 170.459024 230.457585 
L 172.708319 230.281421 
L 173.757915 227.571054 
L 177.219029 228.438154 
L 179.279662 227.295113 
L 179.634563 224.52404 
L 182.458029 225.456173 
" style="fill:#ffa500;stroke:#ffffff;"/>
    <path clip-path="url(#p287a052d9c)" d="M 207.153893 281.784161 
L 205.546975 287.185097 
L 206.484811 289.201099 
L 205.54734 292.715126 
L 201.232676 290.454408 
L 198.429132 289.880041 
L 190.732358 286.786146 
L 191.385388 283.322217 
L 197.690959 283.675392 
L 203.126371 282.641873 
L 207.153893 281.784161 
" style="fill:#ffa500;stroke:#ffffff;"/>
    <path clip-path="url(#p287a052d9c)" d="M 173.534386 262.826735 
L 176.5965 267.62018 
L 175.833622 276.500871 
L 173.433616 276.059813 
L 171.247561 278.272065 
L 169.271157 276.45613 
L 169.216184 268.350515 
L 168.117596 264.481335 
L 170.940605 264.87608 
L 173.534386 262.826735 
" style="fill:#ffa500;stroke:#ffffff;"/>
    <path clip-path="url(#p287a052d9c)" d="M 174.773911 170.826158 
L 171.837835 169.888927 
L 170.356645 166.097374 
L 170.429178 159.178684 
L 171.098712 157.368466 
L 172.207785 155.362695 
L 175.461176 154.988919 
L 176.760329 153.129816 
L 179.685334 151.214429 
L 179.589919 154.694355 
L 178.508576 156.904061 
L 178.963933 158.796844 
L 181.003981 159.802823 
L 180.111413 162.365476 
L 178.979036 161.638586 
L 176.233899 166.511344 
L 177.27671 169.809614 
L 174.773911 170.826158 
" style="fill:#808080;stroke:#ffffff;"/>
    <path clip-path="url(#p287a052d9c)" d="M 187.894114 165.374545 
L 185.757187 170.930561 
L 181.607304 167.196975 
L 181.032418 164.395349 
L 186.556331 162.026017 
L 187.894114 165.374545 
" style="fill:#808080;stroke:#ffffff;"/>
    <path clip-path="url(#p287a052d9c)" d="M 110.787827 168.084466 
L 108.383744 167.591821 
L 110.057064 164.253116 
L 110.168767 160.526998 
L 113.381025 161.022934 
L 116.493114 166.04821 
L 113.391062 170.134126 
L 110.787827 168.084466 
" style="fill:#808080;stroke:#ffffff;"/>
    <path clip-path="url(#p287a052d9c)" d="M 124.952092 175.724624 
L 126.244351 171.95604 
L 124.419037 167.363688 
L 124.378347 167.258611 
L 119.962267 165.153884 
L 119.441633 163.165225 
L 121.448501 160.487031 
L 120.613327 158.398843 
L 117.90562 161.097152 
L 119.133716 154.662927 
L 118.080318 150.871839 
L 120.982488 144.330912 
L 124.915048 139.558145 
L 127.560616 140.659874 
L 131.857067 140.912488 
L 126.658197 147.38528 
L 130.4696 147.173698 
L 134.372203 147.901997 
L 132.468704 153.181848 
L 128.053685 158.567907 
L 131.837976 159.680011 
L 132.013423 160.432775 
L 134.104981 168.878527 
L 136.600498 170.355612 
L 137.942754 178.344588 
L 138.732457 181.151852 
L 143.495977 183.041242 
L 142.4972 187.286963 
L 140.148096 189.005758 
L 141.40045 192.686711 
L 137.16277 195.73595 
L 131.494595 194.882166 
L 123.983668 195.56196 
L 122.239394 193.899292 
L 118.870628 196.509713 
L 115.091066 194.986973 
L 111.593425 196.908616 
L 109.61861 195.096006 
L 117.210902 189.404332 
L 121.202813 188.682018 
L 121.171213 188.670326 
L 114.939622 186.283882 
L 114.337639 183.395131 
L 119.008586 182.210346 
L 117.529104 178.178953 
L 119.183995 173.97941 
L 124.945273 175.722639 
L 124.952092 175.724624 
" style="fill:#808080;stroke:#ffffff;"/>
    <path clip-path="url(#p287a052d9c)" d="M 199.242333 226.973272 
L 201.495801 225.288667 
L 205.544662 224.81512 
L 206.337222 223.605263 
L 207.121117 223.61364 
L 208.213712 225.80814 
L 204.642075 227.906393 
L 204.386508 230.662718 
L 202.794347 231.473767 
L 202.940857 233.355139 
L 201.067839 233.353175 
L 199.386626 232.356423 
L 198.583183 233.546599 
L 195.258142 233.497128 
L 196.285187 232.831284 
L 195.011824 230.018108 
L 195.35845 226.66988 
L 199.242333 226.973272 
" style="fill:#808080;stroke:#ffffff;"/>
    <path clip-path="url(#p287a052d9c)" d="M 223.585296 73.304111 
L 228.695535 76.522161 
L 227.928847 82.0648 
L 233.313513 88.524391 
L 233.262295 94.60463 
L 237.313032 98.670846 
L 237.500387 103.235978 
L 243.270177 106.330662 
L 243.258968 109.973007 
L 241.65215 114.571579 
L 237.374512 124.779682 
L 237.37452 124.779686 
L 237.374511 124.779707 
L 231.631364 126.766109 
L 226.419214 130.469241 
L 221.285499 132.933656 
L 218.671167 129.647908 
L 215.092992 127.997477 
L 214.671135 121.30852 
L 212.10735 115.541751 
L 212.890034 111.424541 
L 214.825177 106.779176 
L 219.904018 98.30009 
L 221.44985 96.51087 
L 220.482819 93.796404 
L 215.956538 91.498944 
L 214.482449 89.115181 
L 212.194918 78.978265 
L 207.379594 75.216682 
L 203.5346 72.518894 
L 204.658863 70.539164 
L 208.007835 73.566559 
L 211.102185 72.63338 
L 214.072863 73.673181 
L 215.639905 70.261423 
L 215.52268 65.211 
L 218.419813 62.118913 
L 222.103441 63.883893 
L 222.545339 68.683319 
L 223.585296 73.304111 
" style="fill:#808080;stroke:#ffffff;"/>
    <path clip-path="url(#p287a052d9c)" d="M 232.150155 206.910016 
L 231.727366 209.749568 
L 230.889316 210.589381 
L 225.828945 209.293038 
L 224.433688 209.91365 
L 223.607662 211.639389 
L 221.620084 212.764106 
L 221.080927 212.399186 
L 219.028458 213.72208 
L 217.266443 214.139474 
L 217.059619 215.532305 
L 213.351993 216.783732 
L 211.607862 216.224123 
L 209.145079 214.726239 
L 208.482964 212.434381 
L 208.763342 211.54525 
L 209.25582 210.002967 
L 211.235472 209.920598 
L 212.678829 209.064765 
L 212.73241 208.42586 
L 213.544343 208.013755 
L 213.66625 206.450729 
L 214.641866 206.043988 
L 215.183019 204.754466 
L 216.485442 204.590992 
L 216.780644 204.966916 
L 218.464264 203.83058 
L 220.975852 205.921681 
L 223.364522 204.124836 
L 225.523472 204.51197 
L 228.515758 203.080496 
L 233.075324 204.962361 
L 232.150155 206.910016 
" style="fill:#808080;stroke:#ffffff;"/>
    <path clip-path="url(#p287a052d9c)" d="M 201.107308 197.339007 
L 204.352028 197.669055 
L 204.240614 199.547514 
L 206.705013 200.735601 
L 207.188016 198.935141 
L 210.209702 199.397212 
L 210.836046 201.463152 
L 214.098757 201.516018 
L 216.485442 204.590992 
L 215.183019 204.754466 
L 214.641866 206.043988 
L 213.66625 206.450729 
L 213.544343 208.013755 
L 212.73241 208.42586 
L 212.678829 209.064765 
L 211.235472 209.920598 
L 209.25582 210.002967 
L 208.763342 211.54525 
L 206.594335 210.46124 
L 204.531515 210.989558 
L 200.925147 209.196083 
L 199.396825 209.80797 
L 197.055869 212.727125 
L 193.620633 210.732515 
L 190.986496 207.940876 
L 188.676057 206.401415 
L 188.118008 203.566111 
L 187.293762 201.580651 
L 190.383985 199.996824 
L 191.908867 198.243736 
L 194.915634 196.77937 
L 195.910579 195.432083 
L 197.079554 196.140261 
L 198.93191 195.310923 
L 201.107308 197.339007 
" style="fill:#808080;stroke:#ffffff;"/>
    <path clip-path="url(#p287a052d9c)" d="M 111.26849 302.560697 
L 111.259085 302.74792 
L 84.263547 297.715039 
L 87.346965 293.962574 
L 89.806318 290.281199 
L 93.796252 291.134293 
L 96.604903 294.581374 
L 101.889991 295.091347 
L 107.367269 297.532051 
L 109.75442 297.991427 
L 111.26849 302.560697 
" style="fill:#ffa500;stroke:#ffffff;"/>
    <path clip-path="url(#p287a052d9c)" d="M 215.660036 248.660226 
L 213.537136 246.041674 
L 211.535622 244.732227 
L 209.080729 242.422438 
L 207.861255 240.427805 
L 205.26064 237.471461 
L 206.053247 234.598733 
L 207.887827 236.003011 
L 208.808001 234.517576 
L 211.01993 234.165879 
L 215.221144 234.872395 
L 218.505481 234.415222 
L 220.828967 235.645684 
L 220.828949 235.645717 
L 222.557616 235.412817 
L 221.705382 238.512499 
L 224.338744 240.797756 
L 224.009697 244.040106 
L 222.894411 244.48078 
L 222.050529 245.204641 
L 220.62819 246.952335 
L 220.302184 250.723648 
L 215.660036 248.660226 
" style="fill:#808080;stroke:#ffffff;"/>
    <path clip-path="url(#p287a052d9c)" d="M 242.366457 251.986388 
L 243.425321 256.327535 
L 242.501649 256.713655 
L 241.853796 258.014973 
L 239.096855 258.3372 
L 237.378103 260.100265 
L 234.134881 261.194096 
L 231.810886 259.872575 
L 230.721682 257.108891 
L 231.06504 254.745214 
L 231.065032 254.745183 
L 231.709223 254.709935 
L 231.751663 253.309765 
L 234.553415 251.839079 
L 235.63034 251.411454 
L 237.263681 250.755292 
L 239.544276 250.269691 
L 242.366457 251.986388 
" style="fill:#808080;stroke:#ffffff;"/>
    <path clip-path="url(#p287a052d9c)" d="M 219.190838 228.707486 
L 222.56024 226.496948 
L 225.504705 226.403374 
L 228.393332 228.675425 
L 229.217581 230.728493 
L 232.317592 231.86692 
L 233.097315 234.564815 
L 236.170896 236.059961 
L 237.431134 234.314773 
L 238.738452 234.94551 
L 237.814633 236.26007 
L 238.877166 237.273985 
L 237.934155 238.988312 
L 238.752139 241.352189 
L 241.575086 243.823982 
L 240.047254 246.229079 
L 239.552863 248.489744 
L 240.211722 249.192844 
L 239.544276 250.269691 
L 237.263681 250.755292 
L 235.63034 251.411454 
L 235.392829 250.936331 
L 235.871006 250.049931 
L 236.187291 248.337666 
L 235.492206 248.484713 
L 234.35599 247.395288 
L 233.50238 247.204498 
L 232.710389 246.238294 
L 231.736098 245.958307 
L 230.911404 245.116679 
L 230.082992 245.613307 
L 229.69775 247.930161 
L 228.580301 248.575516 
L 228.91195 247.945768 
L 226.858912 246.812563 
L 225.156177 246.303212 
L 224.328204 245.467332 
L 222.894411 244.48078 
L 224.009697 244.040106 
L 224.338744 240.797756 
L 221.705382 238.512499 
L 222.557616 235.412817 
L 220.828949 235.645717 
L 220.828967 235.645684 
L 222.363255 232.894278 
L 220.633699 231.169535 
L 219.19078 228.707529 
L 219.190838 228.707486 
" style="fill:#808080;stroke:#ffffff;"/>
    <path clip-path="url(#p287a052d9c)" d="M 226.58412 250.970712 
L 226.115483 249.752651 
L 224.349081 253.324092 
L 224.932423 255.411944 
L 223.822105 255.023306 
L 222.174319 253.005916 
L 219.87578 251.925305 
L 220.302184 250.723648 
L 220.62819 246.952335 
L 222.050529 245.204641 
L 222.894411 244.48078 
L 224.328204 245.467332 
L 225.156177 246.303212 
L 226.858912 246.812563 
L 228.91195 247.945768 
L 228.580301 248.575516 
L 227.846084 250.200732 
L 226.58412 250.970712 
" style="fill:#808080;stroke:#ffffff;"/>
    <path clip-path="url(#p287a052d9c)" d="M 230.411694 252.370291 
L 229.131885 251.851587 
L 227.846084 250.200732 
L 228.580301 248.575516 
L 229.69775 247.930161 
L 230.082992 245.613307 
L 230.911404 245.116679 
L 231.736098 245.958307 
L 232.710389 246.238294 
L 233.50238 247.204498 
L 234.35599 247.395288 
L 235.492206 248.484713 
L 236.187291 248.337666 
L 235.871006 250.049931 
L 235.392829 250.936331 
L 235.63034 251.411454 
L 234.553415 251.839079 
L 231.751663 253.309765 
L 231.709223 254.709935 
L 231.065032 254.745183 
L 230.411694 252.370291 
" style="fill:#808080;stroke:#ffffff;"/>
   </g>
   <g id="matplotlib.axis_1">
    <g id="xtick_1">
     <g id="line2d_1">
      <defs>
       <path d="M 0 0 
L 0 3.5 
" id="m3aaa329817" style="stroke:#000000;stroke-width:0.8;"/>
      </defs>
      <g>
       <use style="stroke:#000000;stroke-width:0.8;" x="66.830036" xlink:href="#m3aaa329817" y="320.4"/>
      </g>
     </g>
     <g id="text_1">
      <!-- 2.5 -->
      <g transform="translate(58.878473 334.998438)scale(0.1 -0.1)">
       <defs>
        <path d="M 1228 531 
L 3431 531 
L 3431 0 
L 469 0 
L 469 531 
Q 828 903 1448 1529 
Q 2069 2156 2228 2338 
Q 2531 2678 2651 2914 
Q 2772 3150 2772 3378 
Q 2772 3750 2511 3984 
Q 2250 4219 1831 4219 
Q 1534 4219 1204 4116 
Q 875 4013 500 3803 
L 500 4441 
Q 881 4594 1212 4672 
Q 1544 4750 1819 4750 
Q 2544 4750 2975 4387 
Q 3406 4025 3406 3419 
Q 3406 3131 3298 2873 
Q 3191 2616 2906 2266 
Q 2828 2175 2409 1742 
Q 1991 1309 1228 531 
z
" id="DejaVuSans-32" transform="scale(0.015625)"/>
        <path d="M 684 794 
L 1344 794 
L 1344 0 
L 684 0 
L 684 794 
z
" id="DejaVuSans-2e" transform="scale(0.015625)"/>
        <path d="M 691 4666 
L 3169 4666 
L 3169 4134 
L 1269 4134 
L 1269 2991 
Q 1406 3038 1543 3061 
Q 1681 3084 1819 3084 
Q 2600 3084 3056 2656 
Q 3513 2228 3513 1497 
Q 3513 744 3044 326 
Q 2575 -91 1722 -91 
Q 1428 -91 1123 -41 
Q 819 9 494 109 
L 494 744 
Q 775 591 1075 516 
Q 1375 441 1709 441 
Q 2250 441 2565 725 
Q 2881 1009 2881 1497 
Q 2881 1984 2565 2268 
Q 2250 2553 1709 2553 
Q 1456 2553 1204 2497 
Q 953 2441 691 2322 
L 691 4666 
z
" id="DejaVuSans-35" transform="scale(0.015625)"/>
       </defs>
       <use xlink:href="#DejaVuSans-32"/>
       <use x="63.623047" xlink:href="#DejaVuSans-2e"/>
       <use x="95.410156" xlink:href="#DejaVuSans-35"/>
      </g>
     </g>
    </g>
    <g id="xtick_2">
     <g id="line2d_2">
      <g>
       <use style="stroke:#000000;stroke-width:0.8;" x="97.239389" xlink:href="#m3aaa329817" y="320.4"/>
      </g>
     </g>
     <g id="text_2">
      <!-- 3.0 -->
      <g transform="translate(89.287827 334.998438)scale(0.1 -0.1)">
       <defs>
        <path d="M 2597 2516 
Q 3050 2419 3304 2112 
Q 3559 1806 3559 1356 
Q 3559 666 3084 287 
Q 2609 -91 1734 -91 
Q 1441 -91 1130 -33 
Q 819 25 488 141 
L 488 750 
Q 750 597 1062 519 
Q 1375 441 1716 441 
Q 2309 441 2620 675 
Q 2931 909 2931 1356 
Q 2931 1769 2642 2001 
Q 2353 2234 1838 2234 
L 1294 2234 
L 1294 2753 
L 1863 2753 
Q 2328 2753 2575 2939 
Q 2822 3125 2822 3475 
Q 2822 3834 2567 4026 
Q 2313 4219 1838 4219 
Q 1578 4219 1281 4162 
Q 984 4106 628 3988 
L 628 4550 
Q 988 4650 1302 4700 
Q 1616 4750 1894 4750 
Q 2613 4750 3031 4423 
Q 3450 4097 3450 3541 
Q 3450 3153 3228 2886 
Q 3006 2619 2597 2516 
z
" id="DejaVuSans-33" transform="scale(0.015625)"/>
        <path d="M 2034 4250 
Q 1547 4250 1301 3770 
Q 1056 3291 1056 2328 
Q 1056 1369 1301 889 
Q 1547 409 2034 409 
Q 2525 409 2770 889 
Q 3016 1369 3016 2328 
Q 3016 3291 2770 3770 
Q 2525 4250 2034 4250 
z
M 2034 4750 
Q 2819 4750 3233 4129 
Q 3647 3509 3647 2328 
Q 3647 1150 3233 529 
Q 2819 -91 2034 -91 
Q 1250 -91 836 529 
Q 422 1150 422 2328 
Q 422 3509 836 4129 
Q 1250 4750 2034 4750 
z
" id="DejaVuSans-30" transform="scale(0.015625)"/>
       </defs>
       <use xlink:href="#DejaVuSans-33"/>
       <use x="63.623047" xlink:href="#DejaVuSans-2e"/>
       <use x="95.410156" xlink:href="#DejaVuSans-30"/>
      </g>
     </g>
    </g>
    <g id="xtick_3">
     <g id="line2d_3">
      <g>
       <use style="stroke:#000000;stroke-width:0.8;" x="127.648743" xlink:href="#m3aaa329817" y="320.4"/>
      </g>
     </g>
     <g id="text_3">
      <!-- 3.5 -->
      <g transform="translate(119.69718 334.998438)scale(0.1 -0.1)">
       <use xlink:href="#DejaVuSans-33"/>
       <use x="63.623047" xlink:href="#DejaVuSans-2e"/>
       <use x="95.410156" xlink:href="#DejaVuSans-35"/>
      </g>
     </g>
    </g>
    <g id="xtick_4">
     <g id="line2d_4">
      <g>
       <use style="stroke:#000000;stroke-width:0.8;" x="158.058097" xlink:href="#m3aaa329817" y="320.4"/>
      </g>
     </g>
     <g id="text_4">
      <!-- 4.0 -->
      <g transform="translate(150.106534 334.998438)scale(0.1 -0.1)">
       <defs>
        <path d="M 2419 4116 
L 825 1625 
L 2419 1625 
L 2419 4116 
z
M 2253 4666 
L 3047 4666 
L 3047 1625 
L 3713 1625 
L 3713 1100 
L 3047 1100 
L 3047 0 
L 2419 0 
L 2419 1100 
L 313 1100 
L 313 1709 
L 2253 4666 
z
" id="DejaVuSans-34" transform="scale(0.015625)"/>
       </defs>
       <use xlink:href="#DejaVuSans-34"/>
       <use x="63.623047" xlink:href="#DejaVuSans-2e"/>
       <use x="95.410156" xlink:href="#DejaVuSans-30"/>
      </g>
     </g>
    </g>
    <g id="xtick_5">
     <g id="line2d_5">
      <g>
       <use style="stroke:#000000;stroke-width:0.8;" x="188.46745" xlink:href="#m3aaa329817" y="320.4"/>
      </g>
     </g>
     <g id="text_5">
      <!-- 4.5 -->
      <g transform="translate(180.515888 334.998438)scale(0.1 -0.1)">
       <use xlink:href="#DejaVuSans-34"/>
       <use x="63.623047" xlink:href="#DejaVuSans-2e"/>
       <use x="95.410156" xlink:href="#DejaVuSans-35"/>
      </g>
     </g>
    </g>
    <g id="xtick_6">
     <g id="line2d_6">
      <g>
       <use style="stroke:#000000;stroke-width:0.8;" x="218.876804" xlink:href="#m3aaa329817" y="320.4"/>
      </g>
     </g>
     <g id="text_6">
      <!-- 5.0 -->
      <g transform="translate(210.925241 334.998438)scale(0.1 -0.1)">
       <use xlink:href="#DejaVuSans-35"/>
       <use x="63.623047" xlink:href="#DejaVuSans-2e"/>
       <use x="95.410156" xlink:href="#DejaVuSans-30"/>
      </g>
     </g>
    </g>
    <g id="xtick_7">
     <g id="line2d_7">
      <g>
       <use style="stroke:#000000;stroke-width:0.8;" x="249.286157" xlink:href="#m3aaa329817" y="320.4"/>
      </g>
     </g>
     <g id="text_7">
      <!-- 5.5 -->
      <g transform="translate(241.334595 334.998438)scale(0.1 -0.1)">
       <use xlink:href="#DejaVuSans-35"/>
       <use x="63.623047" xlink:href="#DejaVuSans-2e"/>
       <use x="95.410156" xlink:href="#DejaVuSans-35"/>
      </g>
     </g>
    </g>
    <g id="xtick_8">
     <g id="line2d_8">
      <g>
       <use style="stroke:#000000;stroke-width:0.8;" x="279.695511" xlink:href="#m3aaa329817" y="320.4"/>
      </g>
     </g>
     <g id="text_8">
      <!-- 6.0 -->
      <g transform="translate(271.743948 334.998438)scale(0.1 -0.1)">
       <defs>
        <path d="M 2113 2584 
Q 1688 2584 1439 2293 
Q 1191 2003 1191 1497 
Q 1191 994 1439 701 
Q 1688 409 2113 409 
Q 2538 409 2786 701 
Q 3034 994 3034 1497 
Q 3034 2003 2786 2293 
Q 2538 2584 2113 2584 
z
M 3366 4563 
L 3366 3988 
Q 3128 4100 2886 4159 
Q 2644 4219 2406 4219 
Q 1781 4219 1451 3797 
Q 1122 3375 1075 2522 
Q 1259 2794 1537 2939 
Q 1816 3084 2150 3084 
Q 2853 3084 3261 2657 
Q 3669 2231 3669 1497 
Q 3669 778 3244 343 
Q 2819 -91 2113 -91 
Q 1303 -91 875 529 
Q 447 1150 447 2328 
Q 447 3434 972 4092 
Q 1497 4750 2381 4750 
Q 2619 4750 2861 4703 
Q 3103 4656 3366 4563 
z
" id="DejaVuSans-36" transform="scale(0.015625)"/>
       </defs>
       <use xlink:href="#DejaVuSans-36"/>
       <use x="63.623047" xlink:href="#DejaVuSans-2e"/>
       <use x="95.410156" xlink:href="#DejaVuSans-30"/>
      </g>
     </g>
    </g>
    <g id="text_9">
     <!-- 1e6 -->
     <g transform="translate(286.145595 347.676562)scale(0.1 -0.1)">
      <defs>
       <path d="M 794 531 
L 1825 531 
L 1825 4091 
L 703 3866 
L 703 4441 
L 1819 4666 
L 2450 4666 
L 2450 531 
L 3481 531 
L 3481 0 
L 794 0 
L 794 531 
z
" id="DejaVuSans-31" transform="scale(0.015625)"/>
       <path d="M 3597 1894 
L 3597 1613 
L 953 1613 
Q 991 1019 1311 708 
Q 1631 397 2203 397 
Q 2534 397 2845 478 
Q 3156 559 3463 722 
L 3463 178 
Q 3153 47 2828 -22 
Q 2503 -91 2169 -91 
Q 1331 -91 842 396 
Q 353 884 353 1716 
Q 353 2575 817 3079 
Q 1281 3584 2069 3584 
Q 2775 3584 3186 3129 
Q 3597 2675 3597 1894 
z
M 3022 2063 
Q 3016 2534 2758 2815 
Q 2500 3097 2075 3097 
Q 1594 3097 1305 2825 
Q 1016 2553 972 2059 
L 3022 2063 
z
" id="DejaVuSans-65" transform="scale(0.015625)"/>
      </defs>
      <use xlink:href="#DejaVuSans-31"/>
      <use x="63.623047" xlink:href="#DejaVuSans-65"/>
      <use x="125.146484" xlink:href="#DejaVuSans-36"/>
     </g>
    </g>
   </g>
   <g id="matplotlib.axis_2">
    <g id="ytick_1">
     <g id="line2d_9">
      <defs>
       <path d="M 0 0 
L -3.5 0 
" id="m6e07ad3519" style="stroke:#000000;stroke-width:0.8;"/>
      </defs>
      <g>
       <use style="stroke:#000000;stroke-width:0.8;" x="63.97628" xlink:href="#m6e07ad3519" y="263.58973"/>
      </g>
     </g>
     <g id="text_10">
      <!-- 2 -->
      <g transform="translate(50.61378 267.388948)scale(0.1 -0.1)">
       <use xlink:href="#DejaVuSans-32"/>
      </g>
     </g>
    </g>
    <g id="ytick_2">
     <g id="line2d_10">
      <g>
       <use style="stroke:#000000;stroke-width:0.8;" x="63.97628" xlink:href="#m6e07ad3519" y="202.771022"/>
      </g>
     </g>
     <g id="text_11">
      <!-- 3 -->
      <g transform="translate(50.61378 206.570241)scale(0.1 -0.1)">
       <use xlink:href="#DejaVuSans-33"/>
      </g>
     </g>
    </g>
    <g id="ytick_3">
     <g id="line2d_11">
      <g>
       <use style="stroke:#000000;stroke-width:0.8;" x="63.97628" xlink:href="#m6e07ad3519" y="141.952315"/>
      </g>
     </g>
     <g id="text_12">
      <!-- 4 -->
      <g transform="translate(50.61378 145.751534)scale(0.1 -0.1)">
       <use xlink:href="#DejaVuSans-34"/>
      </g>
     </g>
    </g>
    <g id="ytick_4">
     <g id="line2d_12">
      <g>
       <use style="stroke:#000000;stroke-width:0.8;" x="63.97628" xlink:href="#m6e07ad3519" y="81.133608"/>
      </g>
     </g>
     <g id="text_13">
      <!-- 5 -->
      <g transform="translate(50.61378 84.932827)scale(0.1 -0.1)">
       <use xlink:href="#DejaVuSans-35"/>
      </g>
     </g>
    </g>
    <g id="text_14">
     <!-- 1e6 -->
     <g transform="translate(63.97628 40.2)scale(0.1 -0.1)">
      <use xlink:href="#DejaVuSans-31"/>
      <use x="63.623047" xlink:href="#DejaVuSans-65"/>
      <use x="125.146484" xlink:href="#DejaVuSans-36"/>
     </g>
    </g>
   </g>
   <g id="patch_3">
    <path d="M 63.97628 320.4 
L 63.97628 43.2 
" style="fill:none;stroke:#000000;stroke-linecap:square;stroke-linejoin:miter;stroke-width:0.8;"/>
   </g>
   <g id="patch_4">
    <path d="M 305.02372 320.4 
L 305.02372 43.2 
" style="fill:none;stroke:#000000;stroke-linecap:square;stroke-linejoin:miter;stroke-width:0.8;"/>
   </g>
   <g id="patch_5">
    <path d="M 63.97628 320.4 
L 305.02372 320.4 
" style="fill:none;stroke:#000000;stroke-linecap:square;stroke-linejoin:miter;stroke-width:0.8;"/>
   </g>
   <g id="patch_6">
    <path d="M 63.97628 43.2 
L 305.02372 43.2 
" style="fill:none;stroke:#000000;stroke-linecap:square;stroke-linejoin:miter;stroke-width:0.8;"/>
   </g>
  </g>
 </g>
 <defs>
  <clipPath id="p287a052d9c">
   <rect height="277.2" width="241.047439" x="63.97628" y="43.2"/>
  </clipPath>
 </defs>
</svg>
